<svg width="61" height="60" viewBox="0 0 61 60" fill="none" xmlns="http://www.w3.org/2000/svg">
<path d="M42.2103 50.7664L37.4937 44.3546C36.838 43.4632 36.488 42.4157 36.488 41.3444V34.8473C36.488 33.3487 37.8285 32.1339 39.4821 32.1339H50.0007C53.0087 32.1339 54.1383 28.5644 51.5875 27.1196L39.3024 20.1611C37.5516 19.1694 36.488 17.4303 36.488 15.5592V10.988C36.488 7.68094 33.8071 5 30.5 5C27.1929 5 24.512 7.68094 24.512 10.988V15.5592C24.512 17.4303 23.4484 19.1694 21.6976 20.1611L9.41251 27.1196C6.86168 28.5644 7.99128 32.1339 10.9993 32.1339H21.5179C23.1715 32.1339 24.512 33.3487 24.512 34.8473V41.3444C24.512 42.4157 24.162 43.4632 23.5063 44.3546L18.7897 50.7664C17.0866 53.0815 19.8737 55.9428 22.6198 54.6984L27.8221 52.3411C29.5079 51.5772 31.4921 51.5772 33.1779 52.3411L38.3802 54.6984C41.1263 55.9428 43.9134 53.0815 42.2103 50.7664Z" stroke="#276CF4" stroke-width="3"/>
</svg>
