<svg width="60" height="60" viewBox="0 0 60 60" fill="none" xmlns="http://www.w3.org/2000/svg">
<g clip-path="url(#clip0_495_655)">
<path d="M59.6095 0.390213C59.089 -0.129976 58.2448 -0.130166 57.7238 0.390213L32.4237 25.6899C31.9168 25.4355 31.374 25.2997 30.8108 25.2997C29.4508 25.2997 28.2991 26.0543 27.6083 26.6421C26.9454 26.4522 26.2546 26.3562 25.5458 26.3562C21.9182 26.3562 18.1639 28.8692 14.4853 31.6507C14.4849 31.6509 14.4847 31.6511 14.4843 31.6514C13.9085 32.0867 13.3346 32.5284 12.7634 32.9682L12.5777 33.1113C6.65083 37.673 0.591424 42.2415 0.530662 42.2872C0.222473 42.5196 0.0300925 42.8741 0.00323542 43.259C-0.0236216 43.644 0.117711 44.0219 0.390472 44.2948L15.7047 59.6091C15.9556 59.8597 16.2954 59.9995 16.6476 59.9995C16.6784 59.9995 16.7095 59.9984 16.7405 59.9963C17.1255 59.9693 17.4799 59.7769 17.7123 59.4685C17.7578 59.4081 22.326 53.3487 26.8885 47.4213L27.0332 47.2335C30.8319 42.3 34.7528 37.2076 33.3584 32.3897C33.9254 31.7227 34.6473 30.6271 34.6968 29.3303C34.7205 28.7153 34.5856 28.124 34.3098 27.5751L59.6095 2.27592C60.1301 1.75516 60.1301 0.910973 59.6095 0.390213ZM27.1652 42.6402L17.3613 32.8354C18.3081 32.1467 19.25 31.4996 20.1748 30.9417L29.0645 39.8318C28.5089 40.7474 27.8622 41.6853 27.1652 42.6402ZM24.7755 45.795C21.4287 50.143 18.0792 54.5615 16.5074 56.6401L14.7043 54.8371L19.2742 49.6483C19.7611 49.0958 19.7074 48.2531 19.155 47.7664C18.6022 47.2796 17.7596 47.3333 17.2731 47.8857L12.815 52.9478L10.876 51.0087L12.572 49.3129C13.0927 48.7923 13.0927 47.948 12.5721 47.4274C12.0516 46.9068 11.2072 46.9068 10.6866 47.4272L8.99045 49.1232L7.05178 47.1845L12.1133 42.7263C12.6659 42.2394 12.7194 41.3969 12.2325 40.8444C11.7457 40.2916 10.9032 40.2383 10.3506 40.7251L5.16227 45.295L3.35942 43.4922C5.43788 41.9204 9.85616 38.5707 14.2043 35.2242L14.3902 35.081C14.662 34.8716 14.9344 34.6619 15.2074 34.4528L25.5464 44.7924C25.339 45.0628 25.13 45.3343 24.9205 45.6064L24.7755 45.795ZM30.9584 31.0448C30.5163 31.4238 30.3711 32.0461 30.6003 32.5815C31.221 34.0328 31.0311 35.633 30.3435 37.3394L22.6687 29.6642C23.6702 29.2595 24.6353 29.0227 25.5456 29.0227C26.2132 29.0227 26.8258 29.1457 27.418 29.3993C27.954 29.6282 28.5759 29.4833 28.9548 29.041C29.2433 28.7042 30.1111 27.9661 30.8106 27.9661C30.9892 27.9661 31.2683 28.008 31.6298 28.3694C32.0037 28.7431 32.0384 29.0353 32.0323 29.2225C32.0077 29.9646 31.2254 30.8113 30.9584 31.0448Z" fill="#276CF4"/>
</g>
<defs>
<clipPath id="clip0_495_655">
<rect width="60" height="60" fill="white"/>
</clipPath>
</defs>
</svg>
