<svg width="60" height="60" viewBox="0 0 60 60" fill="none" xmlns="http://www.w3.org/2000/svg">
<path d="M37.5 40L37.2058 41.4709C37.8691 41.6035 38.5391 41.2758 38.8416 40.6708L37.5 40ZM20 22.5L19.3292 21.1584C18.7242 21.4609 18.3965 22.1309 18.5291 22.7942L20 22.5ZM20.885 22.0575L21.5559 23.3991H21.5559L20.885 22.0575ZM23.2914 15.7284L24.6841 15.1713V15.1713L23.2914 15.7284ZM21.2572 10.643L19.8645 11.2001L21.2572 10.643ZM49.357 38.7428L48.7999 40.1355L49.357 38.7428ZM44.2716 36.7086L44.8287 35.3159V35.3159L44.2716 36.7086ZM37.9425 39.115L39.2842 39.7858V39.7858L37.9425 39.115ZM41 27.5C41 28.3284 41.6716 29 42.5 29C43.3284 29 44 28.3284 44 27.5H41ZM41.7388 23.6732L43.1246 23.0991V23.0991L41.7388 23.6732ZM36.3268 18.2612L36.9009 16.8754L36.3268 18.2612ZM32.5 16C31.6716 16 31 16.6716 31 17.5C31 18.3284 31.6716 19 32.5 19V16ZM51 27.5C51 28.3284 51.6716 29 52.5 29C53.3284 29 54 28.3284 54 27.5H51ZM50.9776 19.8463L52.3634 19.2723L50.9776 19.8463ZM40.1537 9.02241L40.7277 7.63659V7.63659L40.1537 9.02241ZM32.5 6C31.6716 6 31 6.67157 31 7.5C31 8.32843 31.6716 9 32.5 9V6ZM51 43.3852V47.5H54V43.3852H51ZM12.5 9H16.6148V6H12.5V9ZM37.5 40C37.7942 38.5291 37.7946 38.5292 37.795 38.5293C37.7951 38.5293 37.7955 38.5294 37.7957 38.5294C37.7961 38.5295 37.7964 38.5296 37.7966 38.5296C37.797 38.5297 37.7971 38.5297 37.7968 38.5296C37.7961 38.5295 37.794 38.5291 37.7905 38.5283C37.7833 38.5268 37.7704 38.5241 37.752 38.52C37.715 38.5119 37.6558 38.4984 37.5762 38.479C37.4169 38.4403 37.1762 38.378 36.8686 38.2875C36.2526 38.1063 35.372 37.8132 34.3409 37.3713C32.2717 36.4845 29.6378 35.0165 27.3107 32.6893L25.1893 34.8107C27.8622 37.4835 30.8533 39.1405 33.1591 40.1287C34.3155 40.6243 35.3099 40.9562 36.0221 41.1656C36.3785 41.2704 36.6651 41.3449 36.8672 41.394C36.9682 41.4186 37.0482 41.4369 37.1052 41.4495C37.1337 41.4558 37.1565 41.4606 37.1734 41.4642C37.1818 41.466 37.1887 41.4674 37.1941 41.4685C37.1969 41.4691 37.1992 41.4695 37.2011 41.4699C37.2021 41.4701 37.203 41.4703 37.2038 41.4705C37.2042 41.4705 37.2047 41.4706 37.2049 41.4707C37.2054 41.4708 37.2058 41.4709 37.5 40ZM27.3107 32.6893C24.9835 30.3622 23.5155 27.7283 22.6287 25.6591C22.1868 24.628 21.8937 23.7474 21.7125 23.1314C21.622 22.8238 21.5597 22.5831 21.521 22.4238C21.5016 22.3442 21.4881 22.285 21.48 22.248C21.4759 22.2296 21.4732 22.2166 21.4717 22.2095C21.4709 22.206 21.4705 22.2039 21.4704 22.2032C21.4703 22.2029 21.4703 22.203 21.4704 22.2034C21.4704 22.2036 21.4705 22.2039 21.4706 22.2043C21.4706 22.2045 21.4707 22.2049 21.4707 22.205C21.4708 22.2054 21.4709 22.2058 20 22.5C18.5291 22.7942 18.5292 22.7946 18.5293 22.7951C18.5294 22.7953 18.5295 22.7958 18.5295 22.7962C18.5297 22.797 18.5299 22.7979 18.5301 22.7989C18.5305 22.8008 18.5309 22.8031 18.5315 22.8059C18.5326 22.8113 18.534 22.8182 18.5358 22.8266C18.5394 22.8435 18.5442 22.8663 18.5505 22.8948C18.5631 22.9518 18.5814 23.0318 18.606 23.1328C18.6551 23.3349 18.7296 23.6215 18.8344 23.9779C19.0438 24.6901 19.3757 25.6845 19.8713 26.8409C20.8595 29.1467 22.5165 32.1378 25.1893 34.8107L27.3107 32.6893ZM20.6708 23.8416L21.5559 23.3991L20.2142 20.7158L19.3292 21.1584L20.6708 23.8416ZM24.6841 15.1713L22.6499 10.086L19.8645 11.2001L21.8986 16.2855L24.6841 15.1713ZM49.914 37.3501L44.8287 35.3159L43.7145 38.1014L48.7999 40.1355L49.914 37.3501ZM36.6009 38.4441L36.1584 39.3292L38.8416 40.6708L39.2842 39.7858L36.6009 38.4441ZM44.8287 35.3159C41.6899 34.0604 38.1127 35.4205 36.6009 38.4441L39.2842 39.7858C40.0982 38.1576 42.0244 37.4253 43.7145 38.1014L44.8287 35.3159ZM21.5559 23.3991C24.5795 21.8873 25.9396 18.3101 24.6841 15.1713L21.8986 16.2855C22.5747 17.9756 21.8424 19.9018 20.2142 20.7158L21.5559 23.3991ZM16.6148 9C18.046 9 19.333 9.87133 19.8645 11.2001L22.6499 10.086C21.6628 7.61818 19.2727 6 16.6148 6V9ZM54 43.3852C54 40.7273 52.3818 38.3372 49.914 37.3501L48.7999 40.1355C50.1287 40.667 51 41.954 51 43.3852H54ZM47.5 51C26.237 51 9 33.763 9 12.5H6C6 35.4198 24.5802 54 47.5 54V51ZM47.5 54C51.0899 54 54 51.0899 54 47.5H51C51 49.433 49.433 51 47.5 51V54ZM9 12.5C9 10.567 10.567 9 12.5 9V6C8.91015 6 6 8.91015 6 12.5H9ZM44 27.5C44 25.9898 43.7025 24.4944 43.1246 23.0991L40.353 24.2472C40.7801 25.2785 41 26.3838 41 27.5H44ZM43.1246 23.0991C42.5467 21.7039 41.6996 20.4361 40.6317 19.3683L38.5104 21.4896C39.2997 22.2789 39.9258 23.2159 40.353 24.2472L43.1246 23.0991ZM40.6317 19.3683C39.5639 18.3004 38.2961 17.4533 36.9009 16.8754L35.7528 19.647C36.7841 20.0742 37.7211 20.7003 38.5104 21.4896L40.6317 19.3683ZM36.9009 16.8754C35.5056 16.2975 34.0102 16 32.5 16V19C33.6162 19 34.7215 19.2199 35.7528 19.647L36.9009 16.8754ZM54 27.5C54 24.6766 53.4439 21.8808 52.3634 19.2723L49.5918 20.4204C50.5215 22.6649 51 25.0705 51 27.5H54ZM52.3634 19.2723C51.2829 16.6638 49.6993 14.2937 47.7028 12.2972L45.5815 14.4185C47.2994 16.1364 48.6621 18.1758 49.5918 20.4204L52.3634 19.2723ZM47.7028 12.2972C45.7063 10.3007 43.3362 8.71707 40.7277 7.63659L39.5796 10.4082C41.8242 11.3379 43.8636 12.7006 45.5815 14.4185L47.7028 12.2972ZM40.7277 7.63659C38.1192 6.55611 35.3234 6 32.5 6V9C34.9295 9 37.3351 9.47852 39.5796 10.4082L40.7277 7.63659Z" fill="#276CF4"/>
</svg>
