<svg width="60" height="60" viewBox="0 0 60 60" fill="none" xmlns="http://www.w3.org/2000/svg">
<path d="M41.1476 7.36429L40 8.50587L38.8524 7.36429C35.6835 4.2119 30.5456 4.2119 27.3767 7.36429C24.2078 10.5167 24.2078 15.6277 27.3767 18.7801L37.7049 29.0543C38.9724 30.3152 41.0276 30.3152 42.2951 29.0543L52.6233 18.7801C55.7922 15.6277 55.7922 10.5167 52.6233 7.36429C49.4544 4.2119 44.3165 4.2119 41.1476 7.36429Z" stroke="#276CF4" stroke-width="3" stroke-linejoin="round"/>
<path d="M5 25H7.48986C9.14537 25 10.783 25.3426 12.2997 26.0061L25.6556 31.8493C28.0602 32.9013 29.166 35.6961 28.132 38.1086V38.1086C27.0926 40.5339 24.2839 41.6574 21.8586 40.618L17.5 38.75" stroke="#276CF4" stroke-width="3" stroke-linecap="round" stroke-linejoin="round"/>
<path d="M5.67082 46.1584C4.92985 45.7879 4.02884 46.0882 3.65836 46.8292C3.28788 47.5701 3.58821 48.4712 4.32918 48.8416L5.67082 46.1584ZM28.1708 38.6584L26.8292 37.9875L25.4875 40.6708L26.8292 41.3416L28.1708 38.6584ZM35.3647 43.9324L34.6939 45.274L35.3647 43.9324ZM39.8873 46.5H45V43.5H39.8873V46.5ZM45 53.5H22.8328V56.5H45V53.5ZM18.1371 52.3915L5.67082 46.1584L4.32918 48.8416L16.7954 55.0748L18.1371 52.3915ZM36.0356 42.5907L28.1708 38.6584L26.8292 41.3416L34.6939 45.274L36.0356 42.5907ZM22.8328 53.5C21.2027 53.5 19.5951 53.1205 18.1371 52.3915L16.7954 55.0748C18.67 56.012 20.737 56.5 22.8328 56.5V53.5ZM48.5 50C48.5 51.933 46.933 53.5 45 53.5V56.5C48.5899 56.5 51.5 53.5899 51.5 50H48.5ZM45 46.5C46.933 46.5 48.5 48.067 48.5 50H51.5C51.5 46.4101 48.5899 43.5 45 43.5V46.5ZM39.8873 43.5C38.5502 43.5 37.2315 43.1887 36.0356 42.5907L34.6939 45.274C36.3064 46.0803 38.0845 46.5 39.8873 46.5V43.5Z" fill="#276CF4"/>
</svg>
