<svg width="61" height="60" viewBox="0 0 61 60" fill="none" xmlns="http://www.w3.org/2000/svg">
<path d="M20.5 45H40.5M20.5 45C20.5 50.5228 24.9772 55 30.5 55C36.0228 55 40.5 50.5228 40.5 45M20.5 45V39.4718C20.5 37.8373 19.6665 36.3408 18.4788 35.2178C15.105 32.0277 13 27.5097 13 22.5C13 12.835 20.835 5 30.5 5C40.165 5 48 12.835 48 22.5C48 27.5097 45.895 32.0277 42.5212 35.2178C41.3335 36.3408 40.5 37.8373 40.5 39.4718V45M25.5 22.5L30.5 27.5M30.5 27.5L35.5 22.5M30.5 27.5V45" stroke="#276CF4" stroke-width="3" stroke-linecap="round" stroke-linejoin="round"/>
</svg>
