<svg width="60" height="60" viewBox="0 0 60 60" fill="none" xmlns="http://www.w3.org/2000/svg">
<path d="M47.5 52.5V12.5C47.5 9.73858 45.2614 7.5 42.5 7.5H17.5C14.7386 7.5 12.5 9.73858 12.5 12.5V52.5M47.5 52.5L52.5 52.4999M47.5 52.5H35M12.5 52.5L7.5 52.4999M12.5 52.5H25M22.5 17.4999H25M22.5 27.4999H25M35 17.4999H37.5M35 27.4999H37.5M25 52.5V39.9999C25 38.6192 26.1193 37.4999 27.5 37.4999H32.5C33.8807 37.4999 35 38.6192 35 39.9999V52.5M25 52.5H35" stroke="#276CF4" stroke-width="3" stroke-linecap="round" stroke-linejoin="round"/>
</svg>
