<svg width="60" height="60" viewBox="0 0 60 60" fill="none" xmlns="http://www.w3.org/2000/svg">
<path d="M55 40C55 42.7614 52.7614 45 50 45C47.2386 45 45 42.7614 45 40C45 37.2386 47.2386 35 50 35C52.7614 35 55 37.2386 55 40Z" stroke="#276CF4" stroke-width="3"/>
<path d="M10 7.5V7.5C7.23858 7.5 5 9.73858 5 12.5V20C5 26.9036 10.5964 32.5 17.5 32.5V32.5C24.4036 32.5 30 26.9036 30 20V12.5C30 9.73858 27.7614 7.5 25 7.5V7.5" stroke="#276CF4" stroke-width="3" stroke-linecap="round" stroke-linejoin="round"/>
<path d="M17.5 32.5V45.625C17.5 50.8027 21.6973 55 26.875 55V55C32.0527 55 36.25 50.8027 36.25 45.625V31.875C36.25 28.078 39.328 25 43.125 25V25C46.922 25 50 28.078 50 31.875V35" stroke="#276CF4" stroke-width="3" stroke-linecap="round" stroke-linejoin="round"/>
<path d="M25 5V10" stroke="#276CF4" stroke-width="3" stroke-linecap="round" stroke-linejoin="round"/>
<path d="M10 5V10" stroke="#276CF4" stroke-width="3" stroke-linecap="round" stroke-linejoin="round"/>
</svg>
