<svg width="1440" height="721" viewBox="0 0 1440 721" fill="none" xmlns="http://www.w3.org/2000/svg">
<path d="M1440 721V35.3936C1379 50.0738 1317.91 58.5655 1255 65.2448C1198 70.2517 1142 72.2544 1086 70.2517C1055 68.2489 1024 68.2489 993 64.2434H984C976.049 63.0792 968.034 62.4103 960 62.2406C931 59.2365 904 56.2323 875 52.2268C773 38.2074 676 22.1853 574 11.1701C520 6.16321 468 2.15768 414 1.1563C374 -0.846468 334 0.154914 294 1.1563C195.336 3.23399 97.008 13.3952 0 31.5382L0 721H1440Z" fill="#000B37"/>
</svg>
