<svg width="86" height="53" viewBox="0 0 86 53" fill="none" xmlns="http://www.w3.org/2000/svg">
<path fill-rule="evenodd" clip-rule="evenodd" d="M14.6308 1.59944C8.77752 2.90814 2.40795 6.23689 0.141626 12.1091C-0.164559 12.8299 0.00892532 13.6955 0.858686 14.1088C1.52528 14.417 2.50935 14.1788 2.81554 13.4579C5.12913 7.40742 12.3012 4.67034 18.2506 3.93995C30.9069 2.37238 42.709 8.5155 51.6605 16.9446C56.2353 21.3281 60.1999 26.2766 63.883 31.4184C67.8909 37.0627 71.4459 42.9696 74.5479 49.1389C74.5208 49.2117 74.4866 49.2998 74.4524 49.388C74.4279 49.4512 74.4033 49.5144 74.3814 49.572C74.2384 49.4591 74.0402 49.3582 73.8883 49.2808C73.8276 49.2498 73.7742 49.2227 73.7348 49.2C72.9965 48.6919 72.2719 48.1683 71.5473 47.6448C70.8227 47.1212 70.0981 46.5976 69.3598 46.0895C63.6913 42.068 57.9605 37.992 52.2298 33.916C51.6105 33.4296 50.7285 33.4274 50.1806 34.0468C49.6875 34.6043 49.6928 35.5975 50.3121 36.084C52.0691 37.3453 53.8252 38.592 55.5812 39.8387C57.3373 41.0855 59.0933 42.3322 60.8503 43.5935C62.4203 44.6914 63.9767 45.8048 65.533 46.9181C67.0894 48.0315 68.6458 49.1449 70.2159 50.2428C71.0184 50.8345 71.7586 51.3717 72.5573 51.9052C73.356 52.4386 74.2058 52.8519 75.1351 52.6757C76.7743 52.4168 77.277 50.7813 77.7091 49.3754C77.7679 49.1841 77.8254 48.997 77.8842 48.8183L85.1264 27.1408C85.3741 26.4237 84.6736 25.5917 83.8314 25.2948C82.9967 25.1143 82.3241 25.6248 82.0803 26.4002C81.4668 28.2804 80.8386 30.1616 80.2105 32.0428C79.5825 33.9238 78.9544 35.8047 78.341 37.6848C77.711 39.6386 77.0596 41.5738 76.4111 43.5005C76.2144 44.0849 76.018 44.6685 75.8225 45.2517C72.529 38.9959 68.7988 32.9993 64.5604 27.3425C56.7107 16.856 47.0175 6.95474 34.2233 2.74515C27.914 0.634747 21.1207 0.13323 14.6308 1.59944ZM74.5524 49.7571C74.5895 49.8009 74.6035 49.8022 74.6012 49.7919C74.599 49.7815 74.5804 49.7595 74.5524 49.7571Z" fill="#E9EAEC"/>
</svg>
