<svg width="20" height="22" viewBox="0 0 20 22" fill="none" xmlns="http://www.w3.org/2000/svg">
<path d="M19.3744 7.50244C19.2653 7.56372 16.6672 8.85695 16.6672 11.7243C16.7897 14.9944 19.9459 16.1412 20 16.1412C19.9459 16.2025 19.5235 17.7034 18.2724 19.2768C17.2795 20.6321 16.1775 21.9985 14.504 21.9985C12.9121 21.9985 12.3407 21.0953 10.504 21.0953C8.53147 21.0953 7.97335 21.9985 6.46314 21.9985C4.78967 21.9985 3.60599 20.5589 2.55896 19.2163C1.19871 17.4591 0.0425398 14.7015 0.00172334 12.0538C-0.0257834 10.6508 0.274128 9.27158 1.03544 8.10011C2.10998 6.46468 4.02835 5.35449 6.1233 5.31788C7.72845 5.26934 9.15703 6.30631 10.1366 6.30631C11.0754 6.30631 12.8305 5.31788 14.8163 5.31788C15.6735 5.31868 17.9592 5.55026 19.3744 7.50244ZM10.0009 5.03775C9.71515 3.75646 10.504 2.47517 11.2387 1.65785C12.1774 0.669422 13.6601 -0.00146484 14.9388 -0.00146484C15.0204 1.27983 14.5031 2.53645 13.5785 3.45165C12.7489 4.44008 11.3203 5.18418 10.0009 5.03775Z" fill="#111827"/>
</svg>
