<svg width="21" height="21" viewBox="0 0 21 21" fill="none" xmlns="http://www.w3.org/2000/svg">
<g id="Icon" clip-path="url(#clip0_1312_1874)">
<path id="Vector" d="M12.9993 5.86268L7.5826 11.2793C7.25108 11.6109 7.06483 12.0605 7.06483 12.5293C7.06483 12.9982 7.25108 13.4478 7.5826 13.7793C7.91412 14.1109 8.36376 14.2971 8.8326 14.2971C9.30144 14.2971 9.75108 14.1109 10.0826 13.7793L15.4993 8.36268C16.1623 7.69964 16.5348 6.80036 16.5348 5.86268C16.5348 4.925 16.1623 4.02572 15.4993 3.36268C14.8362 2.69964 13.9369 2.32715 12.9993 2.32715C12.0616 2.32715 11.1623 2.69964 10.4993 3.36268L5.0826 8.77935C4.08804 9.77391 3.5293 11.1228 3.5293 12.5293C3.5293 13.9359 4.08804 15.2848 5.0826 16.2794C6.07716 17.2739 7.42608 17.8327 8.8326 17.8327C10.2391 17.8327 11.588 17.2739 12.5826 16.2794L17.9993 10.8627" stroke="#276CF4" stroke-width="1.5" stroke-linecap="round" stroke-linejoin="round"/>
</g>
<defs>
<clipPath id="clip0_1312_1874">
<rect width="20" height="20" fill="white" transform="translate(0.5 0.0292969)"/>
</clipPath>
</defs>
</svg>
