<?xml version="1.0" encoding="UTF-8"?>
<!DOCTYPE svg PUBLIC "-//W3C//DTD SVG 1.1//EN" "http://www.w3.org/Graphics/SVG/1.1/DTD/svg11.dtd">
<svg xmlns="http://www.w3.org/2000/svg" version="1.1" width="1200px" height="628px" style="shape-rendering:geometricPrecision; text-rendering:geometricPrecision; image-rendering:optimizeQuality; fill-rule:evenodd; clip-rule:evenodd" xmlns:xlink="http://www.w3.org/1999/xlink">
<g><path style="opacity:0.997" fill="#1b8ac8" d="M 751.5,196.5 C 741.258,234.656 723.425,268.656 698,298.5C 697.517,299.448 697.351,300.448 697.5,301.5C 694.702,296.416 690.369,293.249 684.5,292C 627.167,291.333 569.833,291.333 512.5,292C 507.065,293.769 503.232,297.269 501,302.5C 500.333,309.833 500.333,317.167 501,324.5C 502.406,329.573 505.572,333.073 510.5,335C 568.499,335.5 626.499,335.667 684.5,335.5C 676.343,336.329 668.01,336.829 659.5,337C 652.167,342.333 644.833,347.667 637.5,353C 653.339,353.169 669.005,353.669 684.5,354.5C 626.499,354.333 568.499,354.5 510.5,355C 501.99,359.189 498.656,366.022 500.5,375.5C 498.673,385.408 502.006,392.741 510.5,397.5C 493.163,397.667 475.83,397.5 458.5,397C 446.263,395.896 434.263,393.73 422.5,390.5C 395.208,319.83 404.041,254.163 449,193.5C 498.025,136.706 559.858,113.873 634.5,125C 682.765,134.112 721.765,157.946 751.5,196.5 Z"/></g>
<g><path style="opacity:0.991" fill="#007dc2" d="M 751.5,196.5 C 785.914,241.493 798.414,292.159 789,348.5C 773.898,418.264 733.398,466.764 667.5,494C 595.327,517.962 529.994,505.962 471.5,458C 450.305,438.98 433.971,416.48 422.5,390.5C 434.263,393.73 446.263,395.896 458.5,397C 475.83,397.5 493.163,397.667 510.5,397.5C 568.459,398.659 626.459,398.825 684.5,398C 695.569,394.729 700.235,387.229 698.5,375.5C 700.049,364.247 695.383,357.247 684.5,354.5C 669.005,353.669 653.339,353.169 637.5,353C 644.833,347.667 652.167,342.333 659.5,337C 668.01,336.829 676.343,336.329 684.5,335.5C 690.922,334.249 695.422,330.582 698,324.5C 698.767,316.785 698.6,309.118 697.5,301.5C 697.351,300.448 697.517,299.448 698,298.5C 723.425,268.656 741.258,234.656 751.5,196.5 Z"/></g>
<g><path style="opacity:1" fill="#fefefe" d="M 511.5,229.5 C 569.834,229.333 628.168,229.5 686.5,230C 691.208,231.378 694.708,234.212 697,238.5C 699.541,248.448 698.874,258.114 695,267.5C 692.592,269.956 689.759,271.789 686.5,273C 628.167,273.667 569.833,273.667 511.5,273C 502.423,268.68 498.756,261.514 500.5,251.5C 498.887,241.392 502.554,234.058 511.5,229.5 Z"/></g>
<g><path style="opacity:1" fill="#fdfefe" d="M 697.5,301.5 C 698.6,309.118 698.767,316.785 698,324.5C 695.422,330.582 690.922,334.249 684.5,335.5C 626.499,335.667 568.499,335.5 510.5,335C 505.572,333.073 502.406,329.573 501,324.5C 500.333,317.167 500.333,309.833 501,302.5C 503.232,297.269 507.065,293.769 512.5,292C 569.833,291.333 627.167,291.333 684.5,292C 690.369,293.249 694.702,296.416 697.5,301.5 Z"/></g>
<g><path style="opacity:1" fill="#fdfefe" d="M 684.5,354.5 C 695.383,357.247 700.049,364.247 698.5,375.5C 700.235,387.229 695.569,394.729 684.5,398C 626.459,398.825 568.459,398.659 510.5,397.5C 502.006,392.741 498.673,385.408 500.5,375.5C 498.656,366.022 501.99,359.189 510.5,355C 568.499,354.5 626.499,354.333 684.5,354.5 Z"/></g>
</svg>
