<svg width="60" height="60" viewBox="0 0 60 60" fill="none" xmlns="http://www.w3.org/2000/svg">
<path d="M52.5 33.1375C45.3512 36.0281 37.7111 37.5094 30 37.5C22.0425 37.5 14.45 35.95 7.5 33.1375M30 30H30.025M40 15V10C40 8.67392 39.4732 7.40215 38.5355 6.46447C37.5979 5.52678 36.3261 5 35 5H25C23.6739 5 22.4021 5.52678 21.4645 6.46447C20.5268 7.40215 20 8.67392 20 10V15H40ZM12.5 50H47.5C48.8261 50 50.0979 49.4732 51.0355 48.5355C51.9732 47.5979 52.5 46.3261 52.5 45V20C52.5 18.6739 51.9732 17.4021 51.0355 16.4645C50.0979 15.5268 48.8261 15 47.5 15H12.5C11.1739 15 9.90215 15.5268 8.96447 16.4645C8.02678 17.4021 7.5 18.6739 7.5 20V45C7.5 46.3261 8.02678 47.5979 8.96447 48.5355C9.90215 49.4732 11.1739 50 12.5 50Z" stroke="#276CF4" stroke-width="3" stroke-linecap="round" stroke-linejoin="round"/>
</svg>
