<svg width="20" height="21" viewBox="0 0 20 21" fill="none" xmlns="http://www.w3.org/2000/svg">
<path fill-rule="evenodd" clip-rule="evenodd" d="M10 18.5293C14.4183 18.5293 18 14.9476 18 10.5293C18 6.11102 14.4183 2.5293 10 2.5293C5.58172 2.5293 2 6.11102 2 10.5293C2 14.9476 5.58172 18.5293 10 18.5293ZM13.7071 9.2364C14.0976 8.84588 14.0976 8.21271 13.7071 7.82219C13.3166 7.43167 12.6834 7.43167 12.2929 7.82219L9 11.1151L7.70711 9.82219C7.31658 9.43167 6.68342 9.43167 6.29289 9.82219C5.90237 10.2127 5.90237 10.8459 6.29289 11.2364L8.29289 13.2364C8.68342 13.6269 9.31658 13.6269 9.70711 13.2364L13.7071 9.2364Z" fill="#12B76A"/>
</svg>
