<?xml version="1.0" encoding="UTF-8"?>
<!DOCTYPE svg PUBLIC "-//W3C//DTD SVG 1.1//EN" "http://www.w3.org/Graphics/SVG/1.1/DTD/svg11.dtd">
<svg xmlns="http://www.w3.org/2000/svg" version="1.1" width="256px" height="256px" style="shape-rendering:geometricPrecision; text-rendering:geometricPrecision; image-rendering:optimizeQuality; fill-rule:evenodd; clip-rule:evenodd" xmlns:xlink="http://www.w3.org/1999/xlink">
<g><path style="opacity:0.959" fill="#000000" d="M 255.5,226.5 C 255.5,230.833 255.5,235.167 255.5,239.5C 246.932,254.698 235.265,257.532 220.5,248C 189.653,216.986 158.653,186.153 127.5,155.5C 96.347,186.153 65.347,216.986 34.5,248C 19.7348,257.532 8.06813,254.698 -0.5,239.5C -0.5,235.167 -0.5,230.833 -0.5,226.5C 0.792465,223.263 2.6258,220.263 5,217.5C 35.8333,186.667 66.6667,155.833 97.5,125C 66.9719,94.8055 36.8052,64.3055 7,33.5C 1.59427,22.62 3.42761,13.12 12.5,5C 22.5198,-0.331404 31.8531,0.668596 40.5,8C 69.3471,37.0138 98.3471,65.8471 127.5,94.5C 156.653,65.8471 185.653,37.0138 214.5,8C 226.449,-1.3213 237.616,-0.487963 248,10.5C 252.849,19.5879 252.183,28.2546 246,36.5C 216.5,66 187,95.5 157.5,125C 188.333,155.833 219.167,186.667 250,217.5C 252.374,220.263 254.208,223.263 255.5,226.5 Z"/></g>
</svg>
