<svg width="18" height="18" viewBox="0 0 18 18" fill="none" xmlns="http://www.w3.org/2000/svg">
<path fill-rule="evenodd" clip-rule="evenodd" d="M3.86409 3.8646C4.03287 3.69588 4.26175 3.6011 4.50039 3.6011C4.73904 3.6011 4.96792 3.69588 5.13669 3.8646L9.00039 7.7283L12.8641 3.8646C12.9471 3.77864 13.0464 3.71008 13.1562 3.66291C13.266 3.61574 13.3841 3.59092 13.5036 3.58988C13.6231 3.58884 13.7416 3.61161 13.8523 3.65686C13.9629 3.70212 14.0633 3.76894 14.1478 3.85345C14.2324 3.93795 14.2992 4.03844 14.3444 4.14904C14.3897 4.25965 14.4125 4.37816 14.4114 4.49766C14.4104 4.61717 14.3856 4.73526 14.3384 4.84507C14.2912 4.95487 14.2227 5.05418 14.1367 5.1372L10.273 9.0009L14.1367 12.8646C14.3006 13.0343 14.3914 13.2617 14.3893 13.4977C14.3872 13.7336 14.2926 13.9594 14.1257 14.1262C13.9589 14.2931 13.7331 14.3878 13.4972 14.3898C13.2612 14.3919 13.0338 14.3011 12.8641 14.1372L9.00039 10.2735L5.13669 14.1372C4.96695 14.3011 4.73961 14.3919 4.50363 14.3898C4.26766 14.3878 4.04192 14.2931 3.87506 14.1262C3.70819 13.9594 3.61354 13.7336 3.61149 13.4977C3.60944 13.2617 3.70015 13.0343 3.86409 12.8646L7.72779 9.0009L3.86409 5.1372C3.69537 4.96843 3.60059 4.73955 3.60059 4.5009C3.60059 4.26226 3.69537 4.03338 3.86409 3.8646Z" fill="#2F3A4C"/>
</svg>
