<svg width="14" height="13" viewBox="0 0 14 13" fill="none" xmlns="http://www.w3.org/2000/svg">
<path d="M13.3341 4.76233C13.6209 5.85438 13.6209 6.94631 13.334 8.03836C13.047 9.13051 12.4957 10.0846 11.6796 10.9013C10.8636 11.7179 9.9099 12.2698 8.81864 12.5569C7.72737 12.8441 6.6362 12.8441 5.54485 12.557C4.45344 12.2699 3.49979 11.7179 2.68383 10.9014C1.86782 10.0848 1.31645 9.13057 1.02936 8.03848C0.742482 6.94645 0.742482 5.85452 1.02938 4.76239C1.31639 3.6703 1.86786 2.71603 2.68387 1.89946C3.49987 1.08288 4.45356 0.530946 5.54485 0.24377C6.63604 -0.0434279 7.72733 -0.0432627 8.81857 0.243831C9.90984 0.531068 10.8634 1.08301 11.6794 1.89954C12.4955 2.71613 13.0471 3.67046 13.3341 4.76233ZM11.0236 10.2449C11.9918 9.27603 12.517 8.10975 12.599 6.74625L12.4234 6.71702C12.353 6.70521 12.2008 6.69945 11.9666 6.69934C11.7324 6.69936 11.4931 6.71591 11.2492 6.74912C11.005 6.78242 10.6967 6.85069 10.3237 6.95431C9.95085 7.05785 9.57891 7.19354 9.20797 7.36159C9.5868 8.63925 9.85234 9.86602 10.0046 11.042C10.3872 10.8075 10.7269 10.5419 11.0236 10.2449ZM6.55526 11.7981C7.40238 11.8957 8.22228 11.802 9.01488 11.5167C8.8548 10.3876 8.59312 9.17251 8.23008 7.87145C6.73081 8.74663 5.39164 9.77414 4.21258 10.9542C4.9271 11.419 5.70803 11.7004 6.55526 11.7981ZM2.2123 8.60097C2.4797 9.21243 2.85558 9.76047 3.33977 10.245C3.39446 10.2997 3.43747 10.3387 3.46863 10.3622C4.88208 8.94778 6.37743 7.81463 7.95486 6.96297C7.83777 6.5957 7.72454 6.27531 7.61516 6.00177C7.59155 6.00979 7.55762 6.02625 7.51268 6.05165C7.46765 6.07716 7.43557 6.09572 7.41586 6.10752L7.1231 6.24813C6.91998 6.34194 6.63196 6.44259 6.25926 6.55001C5.88629 6.65728 5.47351 6.75407 5.02054 6.84C4.56755 6.9259 4.04632 6.96109 3.45669 6.94532C2.86715 6.92972 2.30112 6.84581 1.75843 6.69345C1.79354 7.35373 1.94497 7.98967 2.2123 8.60097ZM3.33977 2.55577C2.42612 3.47006 1.90298 4.5797 1.77016 5.88464L1.79357 5.73222C2.23092 5.89642 2.72092 5.98438 3.26363 5.99598C3.8063 6.00762 4.28564 5.97551 4.7015 5.89938C5.1172 5.82308 5.54469 5.71564 5.98416 5.57708C6.42328 5.43829 6.7161 5.33691 6.86248 5.27221C7.0089 5.20771 7.12515 5.156 7.21108 5.11698L7.22862 5.11121L7.24041 5.09941C6.6195 3.71253 5.92069 2.46597 5.14366 1.36033C4.45639 1.64155 3.85526 2.04005 3.33977 2.55577ZM8.33851 1.08756C7.60246 0.929297 6.87122 0.920512 6.14524 1.06114C6.88301 2.12006 7.54895 3.2863 8.14224 4.56003C9.04038 3.90378 9.78209 3.04804 10.3678 1.9932C9.75091 1.54782 9.07433 1.24589 8.33851 1.08756ZM11.0177 2.66716C10.9864 2.71398 10.9464 2.77174 10.8976 2.84004C10.8488 2.90833 10.7892 2.99149 10.7189 3.08917C10.6487 3.18674 10.5675 3.29332 10.4759 3.40852C10.3841 3.5238 10.2846 3.64487 10.1771 3.77195C10.0698 3.89893 9.95257 4.03172 9.8258 4.17041C9.69872 4.30923 9.56705 4.44691 9.43037 4.58368C9.29384 4.72031 9.14627 4.86006 8.98828 5.00264C8.83031 5.14533 8.67109 5.27699 8.51106 5.39812C8.51882 5.42949 8.53644 5.47635 8.5638 5.53888C8.59113 5.60132 8.61254 5.64837 8.6284 5.67939C8.7181 5.91781 8.81765 6.18941 8.92682 6.49419C9.30563 6.33406 9.68828 6.20306 10.075 6.10136C10.4615 5.9999 10.7834 5.93158 11.0411 5.89632C11.299 5.86124 11.5557 5.84075 11.8113 5.83488C12.0671 5.82895 12.2387 5.83098 12.3267 5.84063C12.4147 5.85044 12.4996 5.86117 12.5815 5.87287L12.5933 5.8729C12.4683 4.60702 11.959 3.51491 11.0646 2.59681L11.0177 2.66716Z" fill="white"/>
</svg>
