<svg width="30" height="30" viewBox="0 0 30 30" fill="none" xmlns="http://www.w3.org/2000/svg">
<circle cx="15.0423" cy="14.9583" r="13.8542" fill="#276CF4" stroke="white" stroke-width="1.45833"/>
<path d="M18.1687 9.74529C18.183 9.731 18.1966 9.71613 18.2097 9.70071C18.296 9.5987 18.4031 9.51532 18.5243 9.45619C18.6455 9.39704 18.778 9.36352 18.9134 9.35793C19.0487 9.35235 19.1836 9.37484 19.3095 9.42384C19.4354 9.47284 19.5492 9.5472 19.6438 9.64187C19.7385 9.73653 19.812 9.84943 19.8598 9.97322C19.9077 10.097 19.929 10.2291 19.9225 10.3613C19.9161 10.4934 19.8819 10.623 19.8221 10.7417C19.7623 10.8604 19.6781 10.9659 19.5744 11.0511C19.5562 11.0661 19.5387 11.082 19.522 11.0987L11.611 19.0097L9.75016 19.5172L10.2577 17.6563L18.1687 9.74529Z" stroke="white" stroke-width="1.45833" stroke-linecap="round" stroke-linejoin="round"/>
<mask id="path-3-inside-1_1051_2069" fill="white">
<path d="M16.46 10.4238L18.8445 12.8084L16.46 10.4238Z"/>
</mask>
<path d="M17.4912 9.39263C16.9216 8.82312 15.9983 8.82312 15.4288 9.39263C14.8592 9.96215 14.8592 10.8855 15.4288 11.455L17.4912 9.39263ZM17.8133 13.8396C18.3828 14.4091 19.3062 14.4091 19.8757 13.8396C20.4452 13.2701 20.4452 12.3467 19.8757 11.7772L17.8133 13.8396ZM15.4288 11.455L17.8133 13.8396L19.8757 11.7772L17.4912 9.39263L15.4288 11.455Z" fill="white" mask="url(#path-3-inside-1_1051_2069)"/>
</svg>
