<svg width="61" height="60" viewBox="0 0 61 60" fill="none" xmlns="http://www.w3.org/2000/svg">
<path d="M43 22.5V17.5C43 16.1739 42.4732 14.9021 41.5355 13.9645C40.5979 13.0268 39.3261 12.5 38 12.5H13C11.6739 12.5 10.4021 13.0268 9.46447 13.9645C8.52678 14.9021 8 16.1739 8 17.5V32.5C8 33.8261 8.52678 35.0979 9.46447 36.0355C10.4021 36.9732 11.6739 37.5 13 37.5H18M23 47.5H48C49.3261 47.5 50.5979 46.9732 51.5355 46.0355C52.4732 45.0979 53 43.8261 53 42.5V27.5C53 26.1739 52.4732 24.9021 51.5355 23.9645C50.5979 23.0268 49.3261 22.5 48 22.5H23C21.6739 22.5 20.4021 23.0268 19.4645 23.9645C18.5268 24.9021 18 26.1739 18 27.5V42.5C18 43.8261 18.5268 45.0979 19.4645 46.0355C20.4021 46.9732 21.6739 47.5 23 47.5ZM40.5 35C40.5 36.3261 39.9732 37.5979 39.0355 38.5355C38.0979 39.4732 36.8261 40 35.5 40C34.1739 40 32.9021 39.4732 31.9645 38.5355C31.0268 37.5979 30.5 36.3261 30.5 35C30.5 33.6739 31.0268 32.4021 31.9645 31.4645C32.9021 30.5268 34.1739 30 35.5 30C36.8261 30 38.0979 30.5268 39.0355 31.4645C39.9732 32.4021 40.5 33.6739 40.5 35Z" stroke="#276CF4" stroke-width="3" stroke-linecap="round" stroke-linejoin="round"/>
</svg>
