<svg width="23" height="22" viewBox="0 0 23 22" fill="none" xmlns="http://www.w3.org/2000/svg">
<path d="M21.1258 11.2124C21.1258 10.421 21.0603 9.84351 20.9185 9.24463H11.6973V12.8165H17.1099C17.0008 13.7042 16.4115 15.041 15.102 15.9393L15.0836 16.0589L17.9992 18.2724L18.2012 18.2921C20.0563 16.6131 21.1258 14.1427 21.1258 11.2124Z" fill="#4285F4"/>
<path d="M11.6976 20.6233C14.3494 20.6233 16.5755 19.7677 18.2016 18.2919L15.1024 15.9391C14.273 16.5059 13.1599 16.9016 11.6976 16.9016C9.10043 16.9016 6.89609 15.2226 6.11031 12.9019L5.99513 12.9114L2.96347 15.2108L2.92383 15.3188C4.53888 18.463 7.85634 20.6233 11.6976 20.6233Z" fill="#276CF4"/>
<path d="M6.10908 12.9019C5.90174 12.303 5.78175 11.6613 5.78175 10.9983C5.78175 10.3352 5.90174 9.69353 6.09817 9.09465L6.09268 8.96711L3.02303 6.63086L2.92259 6.67768C2.25695 7.98241 1.875 9.44758 1.875 10.9983C1.875 12.549 2.25695 14.0141 2.92259 15.3188L6.10908 12.9019Z" fill="#FBBC05"/>
<path d="M11.6977 5.09518C13.5419 5.09518 14.7859 5.87587 15.4953 6.52827L18.2671 3.87603C16.5648 2.32534 14.3494 1.37354 11.6977 1.37354C7.85637 1.37354 4.53889 3.5338 2.92383 6.67794L6.09942 9.09491C6.89612 6.77422 9.10047 5.09518 11.6977 5.09518Z" fill="#EB4335"/>
</svg>
