<svg width="24" height="24" viewBox="0 0 24 24" fill="none" xmlns="http://www.w3.org/2000/svg">
<path d="M12 21C11.7188 21 11.4467 20.9627 11.22 20.8788C7.75535 19.657 2.25 15.3202 2.25 8.91295C2.25 5.6487 4.81674 3 7.97302 3C9.50581 3 10.9388 3.61554 12 4.71606C13.0612 3.61554 14.4942 3 16.027 3C19.1833 3 21.75 5.65803 21.75 8.91295C21.75 15.3295 16.2447 19.657 12.78 20.8788C12.5533 20.9627 12.2812 21 12 21ZM7.97302 4.39896C5.56953 4.39896 3.61047 6.4228 3.61047 8.91295C3.61047 15.2829 9.5693 18.8269 11.6644 19.5637C11.8277 19.6197 12.1814 19.6197 12.3447 19.5637C14.4307 18.8269 20.3986 15.2922 20.3986 8.91295C20.3986 6.4228 18.4395 4.39896 16.036 4.39896C14.6574 4.39896 13.3786 5.06114 12.5533 6.20829C12.2993 6.56269 11.7188 6.56269 11.4649 6.20829C10.6214 5.05181 9.35163 4.39896 7.97302 4.39896Z" fill="#2F3A4C"/>
</svg>
