<svg width="25" height="24" viewBox="0 0 25 24" fill="none" xmlns="http://www.w3.org/2000/svg">
<path fill-rule="evenodd" clip-rule="evenodd" d="M16.3522 22H7.99152C5.68278 22 3.81117 20.214 3.81117 18.0108L3.81117 13.133C3.81117 12.4248 3.51635 11.7456 2.99156 11.2448C1.77568 10.0845 1.93374 8.16205 3.32438 7.19692L9.71311 2.763C11.179 1.74567 13.1648 1.74567 14.6306 2.763L21.0194 7.19691C22.41 8.16205 22.5681 10.0845 21.3522 11.2448C20.8274 11.7456 20.5326 12.4248 20.5326 13.133L20.5326 18.0108C20.5326 20.214 18.661 22 16.3522 22ZM10.1719 17.25C9.75766 17.25 9.42188 17.5858 9.42188 18C9.42188 18.4142 9.75766 18.75 10.1719 18.75H14.1719C14.5861 18.75 14.9219 18.4142 14.9219 18C14.9219 17.5858 14.5861 17.25 14.1719 17.25H10.1719Z" fill="#2F3A4C"/>
</svg>
