<svg width="48" height="48" viewBox="0 0 48 48" fill="none" xmlns="http://www.w3.org/2000/svg">
<circle opacity="0.1" cx="24" cy="24" r="23.5" fill="white" stroke="#2F3A4C"/>
<path d="M20.6495 15.8597L20.6488 15.8597C19.2898 15.9211 18.2309 16.2459 17.3868 17.0869C16.5408 17.9316 16.22 18.9945 16.1585 20.3411L20.6495 15.8597ZM20.6495 15.8597C25.0137 15.6585 27.4508 15.7496 28.9168 16.0083C29.6398 16.1359 30.0988 16.2999 30.4246 16.4723C30.7448 16.6417 30.9719 16.8375 31.2211 17.0863M20.6495 15.8597L31.7513 16.5558M32.784 29.8413C33.0051 29.2732 33.1572 28.6236 33.1993 27.6722C33.5635 19.677 33.1402 17.944 31.7513 16.5558M32.784 29.8413L32.0853 29.5686C32.0853 29.5687 32.0853 29.5687 32.0853 29.5688M32.784 29.8413L32.0851 29.5694C32.0851 29.5692 32.0852 29.569 32.0853 29.5688M32.784 29.8413C31.5383 33.0331 28.5842 33.2296 20.615 32.8687M32.0853 29.5688C32.2733 29.0853 32.4112 28.5176 32.45 27.6391L32.45 27.638C32.6323 23.6369 32.6129 21.2711 32.3905 19.7445C32.1765 18.275 31.7857 17.6506 31.2211 17.0863M32.0853 29.5688C31.8113 30.2708 31.4625 30.7631 31.009 31.1261C30.5502 31.4934 29.9344 31.7683 29.0644 31.9537C27.2868 32.3327 24.6596 32.3011 20.6494 32.1195M31.2211 17.0863C31.2212 17.0864 31.2213 17.0865 31.2214 17.0866L31.7513 16.5558M31.2211 17.0863L31.7513 16.5558M20.6494 32.1195L20.615 32.8687M20.6494 32.1195C19.7664 32.0789 19.1984 31.9426 18.715 31.7545L18.7139 31.7541C17.6909 31.3577 16.9189 30.583 16.5243 29.5693L16.5243 29.5692C16.3938 29.234 16.2827 28.5707 16.2076 27.6607C16.1347 26.7788 16.1009 25.7477 16.0901 24.7331C16.0683 22.7052 16.1383 20.7848 16.1585 20.3412L15.8254 29.8413M20.6494 32.1195C20.6492 32.1195 20.6491 32.1195 20.6489 32.1195L20.615 32.8687M20.615 32.8687C19.6619 32.8249 19.0122 32.675 18.443 32.4534C17.2232 31.9809 16.2961 31.0509 15.8254 29.8413M15.8254 29.8413L15.8254 29.8413L15.8254 29.8413ZM18.7546 31.6526L18.7556 31.6529C19.1458 31.8041 19.6992 31.9669 20.6546 32.01C24.5926 32.1908 27.1293 32.2174 28.7868 31.9127C29.631 31.7575 30.3129 31.5062 30.8522 31.0962C31.4026 30.6778 31.7422 30.142 31.9802 29.5315L31.9805 29.5308C32.132 29.1411 32.2954 28.5882 32.3385 27.634C32.5192 23.712 32.5026 21.3993 32.3158 19.9432C32.2214 19.208 32.0795 18.6539 31.8764 18.2051C31.6672 17.7427 31.4098 17.4297 31.1419 17.1623L31.1413 17.1617C30.2185 16.2429 29.0491 16.0178 27.9549 15.9683L27.9549 15.9683C24.0204 15.7906 21.7042 15.8072 20.2477 15.993C19.5123 16.0868 18.9586 16.2278 18.5101 16.4301C18.0478 16.6386 17.735 16.8953 17.4675 17.1623L17.4668 17.163C16.5461 18.0844 16.3205 19.2528 16.2709 20.3455L16.2709 20.3455C16.2466 20.8816 16.1904 22.7744 16.2069 24.7074C16.2152 25.6737 16.2417 26.6603 16.3008 27.4969C16.357 28.2937 16.4482 29.0668 16.6288 29.5305C17.0125 30.5189 17.7655 31.2678 18.7546 31.6526ZM29.0818 19.5429C28.902 19.5429 28.7579 19.3972 28.7579 19.2206C28.7579 19.0445 28.9016 18.8988 29.0818 18.8988C29.2627 18.8988 29.4066 19.0453 29.4066 19.2206C29.4066 19.3964 29.2623 19.5429 29.0818 19.5429ZM24.3047 27.8266C22.1797 27.8266 20.4593 26.1071 20.4593 23.9891C20.4593 21.8714 22.1794 20.153 24.3047 20.153C26.43 20.153 28.1501 21.8714 28.1501 23.9891C28.1501 26.1071 26.4297 27.8266 24.3047 27.8266ZM24.3047 20.2619C22.2441 20.2619 20.5719 21.9301 20.5719 23.9891C20.5719 26.0488 22.2438 27.7177 24.3047 27.7177C26.3656 27.7177 28.0375 26.0488 28.0375 23.9891C28.0375 21.9301 26.3653 20.2619 24.3047 20.2619Z" fill="white" stroke="#2F3A4C" stroke-width="1.5"/>
</svg>
