<svg width="13" height="13" viewBox="0 0 13 13" fill="none" xmlns="http://www.w3.org/2000/svg">
<path fill-rule="evenodd" clip-rule="evenodd" d="M3.74397 0.475981C2.76791 0.520051 1.92192 0.758848 1.2388 1.43955C0.553299 2.12383 0.31763 2.97376 0.273481 3.94032C0.246036 4.54361 0.0855571 9.1013 0.550913 10.2966C0.86473 11.1029 1.4828 11.7229 2.29598 12.038C2.67543 12.1856 3.10858 12.2856 3.74397 12.3148C9.05678 12.5554 11.0262 12.4244 11.8567 10.2966C12.004 9.91778 12.1055 9.48471 12.1335 8.85046C12.3763 3.52036 12.0941 2.36502 11.1682 1.43955C10.4338 0.706438 9.56986 0.207392 3.74397 0.475981ZM3.79288 11.2428C3.21118 11.2166 2.89558 11.1196 2.68498 11.0381C2.15519 10.832 1.75725 10.4354 1.55261 9.90837C1.19823 9.00016 1.31576 4.68664 1.34738 3.98866C1.37841 3.30498 1.51682 2.68014 1.99888 2.19775C2.59549 1.60221 3.3663 1.31033 8.61468 1.54736C9.29959 1.57833 9.92544 1.71655 10.4087 2.19775C11.0053 2.79329 11.3012 3.57057 11.0602 8.80242C11.0339 9.38307 10.9367 9.69814 10.855 9.90837C10.315 11.293 9.07288 11.4852 3.79288 11.2428ZM8.67256 3.21611C8.67256 3.61036 8.99295 3.93095 9.3885 3.93095C9.78405 3.93095 10.105 3.61036 10.105 3.21611C10.105 2.82186 9.78405 2.50156 9.3885 2.50156C8.99295 2.50156 8.67256 2.82186 8.67256 3.21611ZM3.14019 6.3951C3.14019 8.08406 4.5118 9.45339 6.20379 9.45339C7.89577 9.45339 9.26738 8.08406 9.26738 6.3951C9.26738 4.70614 7.89577 3.33769 6.20379 3.33769C4.5118 3.33769 3.14019 4.70614 3.14019 6.3951ZM4.21528 6.3951C4.21528 5.29931 5.10543 4.41024 6.20379 4.41024C7.30215 4.41024 8.19229 5.29931 8.19229 6.3951C8.19229 7.49149 7.30215 8.38084 6.20379 8.38084C5.10543 8.38084 4.21528 7.49149 4.21528 6.3951Z" fill="white"/>
</svg>
