<svg width="48" height="48" viewBox="0 0 48 48" fill="none" xmlns="http://www.w3.org/2000/svg">
<circle opacity="0.1" cx="24" cy="24" r="23.5" fill="white" stroke="#2F3A4C"/>
<path fill-rule="evenodd" clip-rule="evenodd" d="M31.7081 31.5H28.7103V26.2507C28.7103 24.8107 28.0755 24.0073 26.937 24.0073C25.6981 24.0073 24.9629 24.8445 24.9629 26.2507V31.5H21.965V21.75H24.9629V22.8464C24.9629 22.8464 25.9035 21.1948 28.023 21.1948C30.1432 21.1948 31.7081 22.4896 31.7081 25.1686V31.5ZM18.549 20.1907C17.5379 20.1907 16.7188 19.3642 16.7188 18.345C16.7188 17.3265 17.5379 16.5 18.549 16.5C19.5592 16.5 20.3784 17.3265 20.3784 18.345C20.3792 19.3642 19.5592 20.1907 18.549 20.1907ZM16.7188 31.5H20.4661V21.75H16.7188V31.5Z" fill="white" stroke="#2F3A4C"/>
</svg>
