<svg width="11" height="11" viewBox="0 0 11 11" fill="none" xmlns="http://www.w3.org/2000/svg">
<path fill-rule="evenodd" clip-rule="evenodd" d="M10.1394 10.4023H8.14082V6.90283C8.14082 5.94283 7.71762 5.40723 6.95866 5.40723C6.13274 5.40723 5.64259 5.96533 5.64259 6.90283V10.4023H3.64401V3.90234H5.64259V4.6333C5.64259 4.6333 6.26964 3.53223 7.68264 3.53223C9.09614 3.53223 10.1394 4.3954 10.1394 6.1814V10.4023ZM1.36662 2.86279C0.692598 2.86279 0.146484 2.31182 0.146484 1.63232C0.146484 0.953324 0.692598 0.402344 1.36662 0.402344C2.04014 0.402344 2.58625 0.953324 2.58625 1.63232C2.58675 2.31182 2.04014 2.86279 1.36662 2.86279ZM0.146484 10.4023H2.64471V3.90234H0.146484V10.4023Z" fill="white"/>
</svg>
