<svg width="60" height="60" viewBox="0 0 60 60" fill="none" xmlns="http://www.w3.org/2000/svg">
<path d="M27.5007 14.705V48.1C27.4999 49.1362 27.1335 50.1388 26.466 50.9314C25.7985 51.7239 24.8727 52.2554 23.8518 52.4323C22.8308 52.6092 21.7802 52.4201 20.885 51.8983C19.9898 51.3765 19.3074 50.5555 18.9582 49.58L13.5906 34.205M45.0007 32.5C46.9898 32.5 48.8974 31.7098 50.304 30.3033C51.7105 28.8968 52.5007 26.9891 52.5007 25C52.5007 23.0109 51.7105 21.1032 50.304 19.6967C48.8974 18.2902 46.9898 17.5 45.0007 17.5V32.5ZM13.5906 34.2075C11.4687 33.3053 9.72361 31.6976 8.65073 29.6567C7.57784 27.6157 7.24304 25.2667 7.70299 23.0072C8.16294 20.7478 9.38939 18.7166 11.1748 17.2575C12.9602 15.7984 15.1949 15.0009 17.5007 15H22.0806C32.3306 15 41.1432 11.915 45.0007 7.5V42.5C41.1432 38.085 32.3331 35 22.0806 35H17.5007C16.1572 35.002 14.8273 34.7324 13.5906 34.2075Z" stroke="#276CF4" stroke-width="3" stroke-linecap="round" stroke-linejoin="round"/>
</svg>
