<svg width="20" height="20" viewBox="0 0 20 20" fill="none" xmlns="http://www.w3.org/2000/svg">
<path d="M11.25 3.06424L10.6877 3.56054C10.698 3.57221 10.7087 3.58356 10.7197 3.59457L11.25 3.06424ZM16.9358 11.25L16.4395 10.6877C16.4278 10.698 16.4164 10.7087 16.4054 10.7197L16.9358 11.25ZM17.0833 8.89757L17.6456 8.40127C17.6353 8.3896 17.6247 8.37825 17.6137 8.36724L17.0833 8.89757ZM8.89757 17.0833L8.36724 17.6137C8.37825 17.6247 8.3896 17.6353 8.40127 17.6456L8.89757 17.0833ZM11.1024 17.0833L11.5987 17.6456C11.6104 17.6353 11.6217 17.6247 11.6328 17.6137L11.1024 17.0833ZM3.06424 11.25L3.59457 10.7197L3.57805 10.7032L3.56054 10.6877L3.06424 11.25ZM5.83333 5.08333C5.41912 5.08333 5.08333 5.41912 5.08333 5.83333C5.08333 6.24755 5.41912 6.58333 5.83333 6.58333V5.08333ZM5.84167 6.58333C6.25588 6.58333 6.59167 6.24755 6.59167 5.83333C6.59167 5.41912 6.25588 5.08333 5.84167 5.08333V6.58333ZM3.25 5.83333C3.25 4.4066 4.4066 3.25 5.83333 3.25V1.75C3.57817 1.75 1.75 3.57817 1.75 5.83333H3.25ZM3.25 10V5.83333H1.75V10H3.25ZM5.83333 3.25H10V1.75H5.83333V3.25ZM10 3.25C10.2737 3.25 10.5186 3.36899 10.6877 3.56054L11.8123 2.56794C11.3706 2.06747 10.7219 1.75 10 1.75V3.25ZM16.75 10C16.75 10.2737 16.631 10.5186 16.4395 10.6877L17.4321 11.8123C17.9325 11.3706 18.25 10.7219 18.25 10H16.75ZM16.521 9.39387C16.6641 9.55592 16.75 9.76701 16.75 10H18.25C18.25 9.38762 18.0212 8.82684 17.6456 8.40127L16.521 9.39387ZM10 16.75C9.76701 16.75 9.55592 16.6641 9.39387 16.521L8.40127 17.6456C8.82684 18.0212 9.38762 18.25 10 18.25V16.75ZM10.6061 16.521C10.4441 16.6641 10.233 16.75 10 16.75V18.25C10.6124 18.25 11.1732 18.0212 11.5987 17.6456L10.6061 16.521ZM3.56054 10.6877C3.36899 10.5186 3.25 10.2737 3.25 10H1.75C1.75 10.7219 2.06747 11.3706 2.56794 11.8123L3.56054 10.6877ZM10.7197 3.59457L16.553 9.4279L17.6137 8.36724L11.7803 2.53391L10.7197 3.59457ZM9.4279 16.553L3.59457 10.7197L2.53391 11.7803L8.36724 17.6137L9.4279 16.553ZM16.4054 10.7197L10.5721 16.553L11.6328 17.6137L17.4661 11.7803L16.4054 10.7197ZM5.83333 6.58333H5.84167V5.08333H5.83333V6.58333Z" fill="#276CF4"/>
</svg>
