<svg width="60" height="60" viewBox="0 0 60 60" fill="none" xmlns="http://www.w3.org/2000/svg">
<path d="M24.375 42.5L22.5 50L20 52.5H40L37.5 50L35.625 42.5H24.375ZM7.5 32.5H52.5H7.5ZM12.5 42.5H47.5C48.8261 42.5 50.0979 41.9732 51.0355 41.0355C51.9732 40.0979 52.5 38.8261 52.5 37.5V12.5C52.5 11.1739 51.9732 9.90215 51.0355 8.96447C50.0979 8.02678 48.8261 7.5 47.5 7.5H12.5C11.1739 7.5 9.90215 8.02678 8.96447 8.96447C8.02678 9.90215 7.5 11.1739 7.5 12.5V37.5C7.5 38.8261 8.02678 40.0979 8.96447 41.0355C9.90215 41.9732 11.1739 42.5 12.5 42.5Z" stroke="#276CF4" stroke-width="3" stroke-linecap="round" stroke-linejoin="round"/>
</svg>
