<svg width="61" height="60" viewBox="0 0 61 60" fill="none" xmlns="http://www.w3.org/2000/svg">
<ellipse cx="30.5" cy="41.25" rx="15" ry="6.25" stroke="#276CF4" stroke-width="2.5" stroke-linejoin="round"/>
<circle cx="30.5" cy="20" r="7.5" stroke="#276CF4" stroke-width="2.5" stroke-linejoin="round"/>
<path fill-rule="evenodd" clip-rule="evenodd" d="M15.4333 33.8516C12.8678 34.057 10.5413 34.5663 8.69693 35.3041C7.47874 35.7913 6.40903 36.4028 5.62343 37.1458C4.83518 37.8912 4.25 38.8554 4.25 40.0002C4.25 41.145 4.83518 42.1092 5.62343 42.8546C6.40903 43.5976 7.47874 44.2091 8.69693 44.6963C9.70608 45.1 10.8596 45.4353 12.1177 45.6898C11.4117 44.7661 10.9193 43.7786 10.6755 42.7469C10.3048 42.6309 9.95414 42.5066 9.6254 42.3751C8.58153 41.9576 7.82066 41.4917 7.3412 41.0382C6.86437 40.5873 6.75 40.2361 6.75 40.0002C6.75 39.7643 6.86437 39.4131 7.3412 38.9622C7.82066 38.5087 8.58153 38.0428 9.6254 37.6253C10.3416 37.3388 11.1619 37.0866 12.0658 36.8791C12.8999 35.7675 14.0425 34.747 15.4333 33.8516Z" fill="#276CF4"/>
<path fill-rule="evenodd" clip-rule="evenodd" d="M50.3242 42.7469C50.0804 43.7786 49.588 44.7662 48.882 45.6898C50.1401 45.4353 51.2936 45.1 52.3028 44.6963C53.5209 44.2091 54.5906 43.5976 55.3763 42.8546C56.1645 42.1092 56.7497 41.145 56.7497 40.0002C56.7497 38.8554 56.1645 37.8912 55.3763 37.1458C54.5906 36.4028 53.5209 35.7913 52.3028 35.3041C50.4584 34.5663 48.1318 34.057 45.5664 33.8516C46.9572 34.747 48.0998 35.7675 48.9339 36.8791C49.8378 37.0866 50.6581 37.3388 51.3743 37.6253C52.4181 38.0428 53.179 38.5087 53.6585 38.9622C54.1353 39.4131 54.2497 39.7643 54.2497 40.0002C54.2497 40.2361 54.1353 40.5873 53.6585 41.0382C53.179 41.4917 52.4181 41.9576 51.3743 42.3751C51.0455 42.5066 50.6949 42.6309 50.3242 42.7469Z" fill="#276CF4"/>
<path fill-rule="evenodd" clip-rule="evenodd" d="M41.5024 25.9388C41.0992 26.6841 40.6225 27.3838 40.082 28.0282C40.9532 28.489 41.9464 28.75 43.0005 28.75C46.4523 28.75 49.2505 25.9518 49.2505 22.5C49.2505 19.0482 46.4523 16.25 43.0005 16.25C42.8103 16.25 42.622 16.2585 42.4361 16.2751C42.6837 17.0692 42.8541 17.8972 42.9388 18.7505C42.9593 18.7502 42.9799 18.75 43.0005 18.75C45.0716 18.75 46.7505 20.4289 46.7505 22.5C46.7505 24.5711 45.0716 26.25 43.0005 26.25C42.4679 26.25 41.9612 26.139 41.5024 25.9388Z" fill="#276CF4"/>
<path fill-rule="evenodd" clip-rule="evenodd" d="M18.5644 16.2751C18.3785 16.2585 18.1902 16.25 18 16.25C14.5482 16.25 11.75 19.0482 11.75 22.5C11.75 25.9518 14.5482 28.75 18 28.75C19.0541 28.75 20.0473 28.489 20.9185 28.0282C20.378 27.3838 19.9013 26.6841 19.4981 25.9388C19.0393 26.139 18.5326 26.25 18 26.25C15.9289 26.25 14.25 24.5711 14.25 22.5C14.25 20.4289 15.9289 18.75 18 18.75C18.0206 18.75 18.0412 18.7502 18.0617 18.7505C18.1464 17.8972 18.3168 17.0692 18.5644 16.2751Z" fill="#276CF4"/>
</svg>
