<svg width="21" height="20" viewBox="0 0 21 20" fill="none" xmlns="http://www.w3.org/2000/svg">
<path d="M17.5448 20H2.79899C1.34984 20 0.171875 18.822 0.171875 17.3729V2.62712C0.171875 1.17797 1.34984 0 2.79899 0H17.5363C18.9939 0 20.1719 1.17797 20.1719 2.62712V17.3644C20.1719 18.822 18.9939 20 17.5448 20ZM4.12103 1.31356H3.33289C2.31594 1.31356 1.49391 2.13559 1.49391 3.15254V3.67797H4.12103V1.31356ZM4.12103 4.73729H1.49391V7.62712H4.12103V4.73729ZM4.12103 8.68644H1.49391V11.5763H4.12103V8.68644ZM4.12103 12.6271H1.49391V15H4.12103V12.6271ZM4.12103 16.0508H1.49391V16.839C1.49391 17.8559 2.31594 18.678 3.33289 18.678H4.12103V16.0508ZM12.2397 9.61017L9.2312 7.72034C9.03628 7.61017 8.82442 7.61017 8.6295 7.72034C8.43459 7.83051 8.33289 8.01695 8.33289 8.23729V12.0254C8.33289 12.2458 8.44306 12.4322 8.6295 12.5424C8.81594 12.6525 9.03628 12.6525 9.2312 12.5424L12.2397 10.6525C12.4346 10.5424 12.5363 10.3559 12.5363 10.1356C12.5363 9.90678 12.4261 9.72034 12.2397 9.61017ZM18.8583 3.16102C18.8583 2.14407 18.0363 1.32203 17.0193 1.32203H16.2312V3.69492H18.8583V3.16102ZM18.8583 4.73729H16.2312V7.62712H18.8583V4.73729ZM18.8583 8.68644H16.2312V11.5763H18.8583V8.68644ZM18.8583 12.6271H16.2312V15H18.8583V12.6271ZM18.8583 16.0508H16.2312V18.678H17.0193C18.0363 18.678 18.8583 17.8559 18.8583 16.839V16.0508Z" fill="#1C2636"/>
</svg>
