<svg width="77" height="76" viewBox="0 0 77 76" fill="none" xmlns="http://www.w3.org/2000/svg">
<g filter="url(#filter0_d_552_2526)">
<rect x="2.33398" y="1" width="72" height="72" rx="36" fill="#FF5B5E"/>
<path fill-rule="evenodd" clip-rule="evenodd" d="M58.7706 46.4397C58.5171 45.9224 58.2635 45.2759 58.1368 44.7586C57.7565 43.9828 57.3762 43.2069 57.1227 42.431C54.0804 35.7069 50.7845 28.8534 47.2352 22.1293L47.1084 21.8707C46.7281 21.2241 46.3478 20.4483 46.0943 19.8017C45.9388 19.5638 45.7953 19.3138 45.649 19.0591L45.649 19.059C45.3183 18.4829 44.9737 17.8828 44.4464 17.3448C43.052 15.5345 41.0238 14.5 38.742 14.5C36.4603 14.5 34.5588 15.5345 33.0377 17.2155C32.5814 17.7741 32.1908 18.3996 31.8186 18.9957C31.6738 19.2276 31.5318 19.4551 31.3898 19.6724C31.2579 19.9414 31.1261 20.1948 30.9995 20.4381L30.9995 20.4381L30.9995 20.4381C30.761 20.8966 30.5413 21.319 30.3757 21.7414L30.2489 22C26.6995 28.8534 23.4037 35.7069 20.3614 42.431V42.5603C20.2079 43.0302 20.0078 43.4526 19.7895 43.9137C19.6473 44.2141 19.4973 44.5309 19.3473 44.8879C19.0937 45.4052 18.8402 45.9224 18.7135 46.569C18.0796 48.25 17.9529 49.8017 18.2064 51.4828C18.7135 54.8448 20.8684 57.6897 24.0375 58.9828C24.9248 59.2414 26.1925 59.5 27.4601 59.5H27.4601C27.8404 59.5 28.2207 59.5 28.601 59.3707C30.1221 59.2414 31.6433 58.7241 33.0377 57.819C34.8124 56.7845 36.5871 55.2328 38.6153 53.1638C40.5167 55.3621 42.4182 56.7845 44.1928 57.819C45.714 58.7241 47.2352 59.1121 48.6295 59.3707C48.8197 59.3707 49.0098 59.403 49.1999 59.4353L49.2 59.4353C49.3901 59.4677 49.5803 59.5 49.7704 59.5C51.038 59.5 52.3057 59.2414 53.3198 58.7241C56.4889 57.431 58.6438 54.5862 59.1509 51.2241C59.5312 49.6724 59.2776 48.1207 58.7706 46.4397ZM38.6163 48.7656C36.2078 45.6622 34.6866 42.8173 34.0528 40.3605C33.7993 39.326 33.7993 38.4208 33.926 37.6449C34.0528 36.8691 34.3063 36.3518 34.6866 35.7053C35.574 34.5415 36.9684 33.7656 38.6163 33.7656C40.2642 33.7656 41.7853 34.5415 42.5459 35.7053C42.9262 36.2225 43.1797 36.8691 43.3065 37.6449C43.4333 38.4208 43.4333 39.4553 43.1797 40.3605C42.5459 42.8173 41.0248 45.6622 38.6163 48.7656ZM52.3066 56.2663C54.4615 55.3612 56.1095 53.2922 56.363 50.9646C56.6165 49.8008 56.4897 48.637 55.9827 47.4732C55.8559 47.0853 55.6024 46.5681 55.3489 46.0509L55.3489 46.0508C55.125 45.6702 54.945 45.2447 54.7573 44.8008C54.6261 44.4907 54.4912 44.1716 54.3348 43.8525C51.2925 37.1284 47.9966 30.275 44.574 23.5508L44.4472 23.2922C44.1937 22.6456 43.8134 21.8698 43.4331 21.2232L43.4331 21.2232C43.0528 20.5767 42.6726 19.9301 42.1655 19.2836C41.2782 18.2491 40.0105 17.6025 38.6161 17.6025C37.2218 17.6025 35.9541 18.2491 35.0668 19.2836C34.5597 19.8008 34.1794 20.4474 33.7991 21.2232C33.5456 21.8698 33.1653 22.6456 32.785 23.2922L32.6583 23.5508C29.2357 30.1456 25.9398 36.9991 22.8975 43.7232V43.8525C22.8004 44.0507 22.7032 44.2405 22.6082 44.4261C22.3312 44.9672 22.0722 45.4731 21.8834 46.0508C21.6299 46.5681 21.3764 47.0853 21.2496 47.4732C20.8693 48.7663 20.7426 49.8008 20.8693 50.9646C21.1228 53.2922 22.7708 55.3612 24.9257 56.2663C25.9398 56.6543 27.0807 56.7836 28.3483 56.6543C29.4892 56.525 30.6301 56.137 31.7709 55.4905C33.4189 54.5853 35.0668 53.1629 36.8415 51.0939C33.9259 47.4732 32.0245 44.1112 31.3906 41.137C31.0104 39.7146 31.0104 38.4215 31.1371 37.2577C31.2639 36.0939 31.6442 35.0594 32.278 34.1543C33.6724 32.0853 36.0809 30.9215 38.6161 30.9215C41.2782 30.9215 43.5599 32.0853 44.9543 34.1543C45.4614 35.0594 45.9684 36.0939 46.0952 37.2577C46.2219 38.4215 46.0952 39.7146 45.8416 41.137C45.0811 44.1112 43.3064 47.4732 40.3908 51.0939C42.2923 53.1629 43.8134 54.5853 45.4614 55.4905C46.6022 56.137 47.7431 56.525 48.884 56.6543C50.0248 56.9129 51.2925 56.6543 52.3066 56.2663Z" fill="white"/>
</g>
<defs>
<filter id="filter0_d_552_2526" x="0.333984" y="0" width="76" height="76" filterUnits="userSpaceOnUse" color-interpolation-filters="sRGB">
<feFlood flood-opacity="0" result="BackgroundImageFix"/>
<feColorMatrix in="SourceAlpha" type="matrix" values="0 0 0 0 0 0 0 0 0 0 0 0 0 0 0 0 0 0 127 0" result="hardAlpha"/>
<feOffset dy="1"/>
<feGaussianBlur stdDeviation="1"/>
<feColorMatrix type="matrix" values="0 0 0 0 0 0 0 0 0 0 0 0 0 0 0 0 0 0 0.2 0"/>
<feBlend mode="normal" in2="BackgroundImageFix" result="effect1_dropShadow_552_2526"/>
<feBlend mode="normal" in="SourceGraphic" in2="effect1_dropShadow_552_2526" result="shape"/>
</filter>
</defs>
</svg>
