<svg width="106" height="24" viewBox="0 0 106 24" fill="none" xmlns="http://www.w3.org/2000/svg">
<g clip-path="url(#clip0_657_661)">
<path d="M24.9079 22.405H19.0317L17.234 18.2871H7.44064L5.80285 22.405H0.0234375L8.85301 1.60703H15.1786L24.9079 22.405ZM12.0963 6.57679L8.88546 14.6577H15.6285L12.0963 6.57679ZM46.2534 1.60703H51.0055V22.405H45.5463V9.41399L39.6383 15.9393H38.8038L32.8962 9.41399V22.4048H27.437V1.60703H32.1891L39.2207 9.32217L46.2534 1.60703ZM64.8377 1.60703C72.8325 1.60703 76.9418 6.33314 76.9418 12.0357C76.9418 18.0126 72.9608 22.405 64.2273 22.405H55.1723V1.60703H64.8377ZM60.6311 18.5931H64.1946C69.6852 18.5931 71.323 15.0549 71.323 12.0049C71.323 8.43664 69.2998 5.41843 64.1303 5.41843H60.6309V18.5931H60.6311ZM87.8025 6.53842L80.9192 0H105.978V23.7998L99.0945 17.2621V6.53842H87.8025ZM87.7944 7.8486L80.7077 14.5788V24H90.6262L97.7126 17.2698H87.7944V7.8486Z" fill="#9D60ED"/>
</g>
<defs>
<clipPath id="clip0_657_661">
<rect width="106" height="24" fill="white"/>
</clipPath>
</defs>
</svg>
