<svg width="242" height="54" viewBox="0 0 242 54" fill="none" xmlns="http://www.w3.org/2000/svg">
<path d="M46.5581 20.3403L46.5256 20.3079C46.523 20.3061 46.5209 20.3036 46.5196 20.3008L26.2193 0L5.91915 20.3003C5.91681 20.3027 5.9155 20.3058 5.91314 20.3074L5.87964 20.3398C2.77548 23.4614 0.803792 27.5311 0.278033 31.9019C-0.247726 36.2728 0.702614 40.694 2.97797 44.4627C5.25333 48.2315 8.72313 51.1316 12.8358 52.7017C16.9485 54.2718 21.468 54.4223 25.6758 53.1287C26.0299 53.0205 26.4084 53.0205 26.7625 53.1287C30.9701 54.4217 35.4893 54.2713 39.6017 52.7009C43.7141 51.1306 47.1835 48.2307 49.4588 44.4622C51.734 40.6937 52.6844 36.2728 52.1589 31.9022C51.6333 27.5316 49.6619 23.4619 46.5581 20.3403ZM13.1376 33.7271C13.0388 33.8259 12.9604 33.9433 12.907 34.0723C12.8535 34.2012 12.826 34.3396 12.826 34.4793C12.8621 38.0623 13.8747 41.5674 15.7547 44.6176C15.7974 44.6869 15.8172 44.7678 15.8111 44.8488C15.8051 44.9298 15.7735 45.0069 15.721 45.069C15.6685 45.1311 15.5977 45.1749 15.5187 45.1943C15.4398 45.2137 15.3567 45.2077 15.2814 45.177C13.8681 44.5825 12.5841 43.7183 11.5013 42.6329C9.28239 40.4135 8.03493 37.4041 8.03291 34.2657C8.03089 31.1274 9.2745 28.1164 11.4906 25.8943L26.2193 11.167L40.9472 25.8943C43.1637 28.1161 44.4077 31.1271 44.4056 34.2657C44.4038 37.4041 43.1561 40.4135 40.9369 42.6329C39.8541 43.7183 38.5703 44.5825 37.1572 45.177C37.0817 45.2077 36.9986 45.2137 36.9197 45.1943C36.8408 45.1749 36.77 45.1309 36.7173 45.069C36.6649 45.0069 36.6332 44.9298 36.6272 44.8486C36.6211 44.7676 36.6408 44.6866 36.6835 44.6174C38.564 41.5674 39.5771 38.0623 39.6138 34.4793C39.6138 34.3396 39.586 34.2012 39.5322 34.072C39.4785 33.9428 39.3999 33.8256 39.3008 33.7268L32.3344 26.3376C32.2649 26.2797 32.1777 26.248 32.0872 26.248C31.9971 26.248 31.9095 26.2797 31.8403 26.3376C31.7708 26.3953 31.7242 26.4758 31.7079 26.5646C31.6917 26.6535 31.7072 26.745 31.7517 26.8236C34.4573 31.7197 32.1307 38.7524 28.2508 42.6329L28.2304 42.6533C27.6949 43.1831 26.9719 43.48 26.2187 43.4798C25.4654 43.4795 24.7427 43.182 24.2076 42.652L24.1887 42.6329C20.3074 38.7524 17.982 31.7205 20.6881 26.8246C20.7326 26.746 20.7481 26.6545 20.7319 26.5657C20.7157 26.4768 20.6689 26.3963 20.5995 26.3387C20.5302 26.2807 20.4428 26.249 20.3525 26.249C20.2622 26.249 20.1747 26.2807 20.1054 26.3387L13.1376 33.7271Z" fill="#2272F9"/>
<path d="M96.4991 16.9532H103.218L96.2487 40.2389H88.5703L85.3153 26.4678L82.0186 40.2389H74.3401L67.3711 16.9532H74.507L78.1376 33.3116L81.7264 16.9532H89.2797L92.8685 33.3116L96.4991 16.9532Z" fill="#2272F9"/>
<path d="M120.67 32.8526C121.699 31.851 122.214 30.4322 122.214 28.5961C122.214 26.7599 121.699 25.355 120.67 24.3813C119.641 23.3797 118.458 22.8789 117.123 22.8789C115.787 22.8789 114.605 23.3797 113.576 24.3813C112.546 25.3828 112.032 26.8016 112.032 28.6378C112.032 30.4739 112.546 31.8928 113.576 32.8943C114.605 33.868 115.787 34.3549 117.123 34.3549C118.458 34.3549 119.641 33.8541 120.67 32.8526ZM107.859 37.1926C105.8 34.9669 104.771 32.1153 104.771 28.6378C104.771 25.1602 105.8 22.3086 107.859 20.083C109.917 17.8295 112.421 16.7028 115.37 16.7028C118.347 16.7028 120.628 17.8017 122.214 19.9995V16.9532H129.35V40.2389H122.214V36.8587C120.489 39.3069 118.18 40.531 115.287 40.531C112.393 40.531 109.917 39.4182 107.859 37.1926Z" fill="#2272F9"/>
<path d="M132.657 16.9532H140.252L145.552 34.2714L150.851 16.9532H158.446L150.184 40.2389H140.919L132.657 16.9532Z" fill="#2272F9"/>
<path d="M171.632 40.531C168.238 40.531 165.456 39.446 163.286 37.276C161.116 35.0782 160.031 32.171 160.031 28.5543C160.031 24.9377 161.102 22.0582 163.244 19.9161C165.414 17.7739 168.21 16.7028 171.632 16.7028C175.054 16.7028 177.892 17.76 180.145 19.8743C182.399 21.9887 183.526 24.9238 183.526 28.6795C183.526 29.4863 183.47 30.2375 183.359 30.933H167.334C167.473 31.9623 167.932 32.8108 168.711 33.4785C169.49 34.1184 170.325 34.4383 171.215 34.4383C172.133 34.4383 172.815 34.3549 173.26 34.188C173.705 33.9932 174.025 33.8124 174.22 33.6455C174.442 33.4507 174.72 33.1447 175.054 32.7274H182.774C182.107 35.0643 180.771 36.9561 178.768 38.4028C176.765 39.8216 174.386 40.531 171.632 40.531ZM176.097 26.4678C175.986 25.3828 175.513 24.5064 174.679 23.8388C173.844 23.1432 172.856 22.7955 171.716 22.7955C170.575 22.7955 169.615 23.1432 168.836 23.8388C168.057 24.5064 167.57 25.3828 167.376 26.4678H176.097Z" fill="#2272F9"/>
<path d="M195.245 16.9532V21.2932C196.914 18.2329 199.14 16.7028 201.922 16.7028V23.9639H200.169C198.528 23.9639 197.29 24.3534 196.455 25.1324C195.648 25.9114 195.245 27.2746 195.245 29.222V40.2389H188.109V16.9532H195.245Z" fill="#2272F9"/>
<path d="M212.306 14.3242C211.499 15.131 210.511 15.5344 209.343 15.5344C208.174 15.5344 207.187 15.131 206.38 14.3242C205.573 13.5174 205.17 12.5297 205.17 11.3613C205.17 10.165 205.573 9.16347 206.38 8.35667C207.187 7.54988 208.174 7.14648 209.343 7.14648C210.511 7.14648 211.499 7.54988 212.306 8.35667C213.112 9.16347 213.516 10.165 213.516 11.3613C213.516 12.5297 213.112 13.5174 212.306 14.3242ZM205.796 40.2389V16.9532H212.932V40.2389H205.796Z" fill="#2272F9"/>
<path d="M233.183 32.936C234.129 31.9345 234.602 30.4878 234.602 28.5961C234.602 26.7043 234.115 25.2715 233.141 24.2978C232.168 23.2963 231.013 22.7955 229.678 22.7955C228.342 22.7955 227.188 23.2963 226.214 24.2978C225.268 25.2715 224.795 26.7043 224.795 28.5961C224.795 30.4878 225.282 31.9345 226.256 32.936C227.257 33.9376 228.426 34.4383 229.761 34.4383C231.097 34.4383 232.237 33.9376 233.183 32.936ZM221.039 37.2343C218.703 35.0365 217.534 32.1432 217.534 28.5543C217.534 24.9655 218.703 22.1 221.039 19.9578C223.376 17.7878 226.27 16.7028 229.719 16.7028C233.169 16.7028 236.049 17.7878 238.358 19.9578C240.695 22.1 241.863 24.9655 241.863 28.5543C241.863 32.1432 240.709 35.0365 238.399 37.2343C236.09 39.4321 233.211 40.531 229.761 40.531C226.311 40.531 223.404 39.4321 221.039 37.2343Z" fill="#2272F9"/>
</svg>
