<svg width="199" height="42" viewBox="0 0 199 42" fill="none" xmlns="http://www.w3.org/2000/svg">
<path d="M0.515625 41.3841H7.24547V24.9962C7.24547 23.181 7.74207 21.7254 8.73528 20.6295C9.72849 19.5335 11.0299 18.9855 12.6396 18.9855C14.2836 18.9855 15.585 19.5335 16.544 20.6295C17.5372 21.6912 18.0338 23.1467 18.0338 24.9962V41.3841H24.7636V24.9962C24.7636 23.181 25.2602 21.7254 26.2534 20.6295C27.2466 19.5335 28.5481 18.9855 30.1578 18.9855C31.8017 18.9855 33.1031 19.5335 34.0621 20.6295C35.0553 21.6912 35.5519 23.1467 35.5519 24.9962V41.3841H42.2818V23.4036C42.2818 21.3144 41.8194 19.4821 40.8947 17.9067C40.0042 16.297 38.7884 15.047 37.2472 14.1565C35.706 13.266 33.9422 12.8208 31.9558 12.8208C30.1064 12.8208 28.4282 13.1975 26.9213 13.951C25.4486 14.7045 24.2328 15.8347 23.2738 17.3416C22.4518 15.9717 21.2703 14.8757 19.7291 14.0537C18.2221 13.2318 16.5268 12.8208 14.6432 12.8208C12.8965 12.8208 11.3382 13.1633 9.96823 13.8483C8.59829 14.5332 7.55371 15.5607 6.83449 16.9306V13.4373H0.515625V41.3841Z" fill="#02C39A"/>
<path d="M56.4518 42.0006C60.0822 42.0006 62.9933 40.8019 65.1852 38.4045V41.3841H71.5555V22.7871C71.5555 20.835 71.0589 19.1054 70.0657 17.5985C69.0724 16.0915 67.7025 14.9271 65.9558 14.1051C64.2434 13.2489 62.2398 12.8208 59.9452 12.8208C57.1368 12.8208 54.6367 13.4886 52.4448 14.8243C50.2528 16.16 48.7459 17.9238 47.9239 20.1157L53.4208 22.7871C53.9346 21.5199 54.7394 20.5096 55.8354 19.7561C56.9313 18.9684 58.2156 18.5746 59.6883 18.5746C61.2295 18.5746 62.4625 18.9855 63.3872 19.8075C64.3461 20.5952 64.8256 21.5884 64.8256 22.7871V23.7118L56.5032 25.0475C53.2154 25.5955 50.7837 26.6401 49.2083 28.1813C47.6328 29.7225 46.8451 31.6575 46.8451 33.9864C46.8451 36.4523 47.7185 38.4045 49.4651 39.8429C51.2118 41.2814 53.5407 42.0006 56.4518 42.0006ZM53.8318 33.7296C53.8318 31.7774 55.1504 30.5444 57.7875 30.0307L64.8256 28.8491V29.9793C64.8256 31.8973 64.1578 33.5241 62.8221 34.8598C61.5206 36.1955 59.8082 36.8633 57.6848 36.8633C56.5546 36.8633 55.6299 36.5893 54.9107 36.0413C54.1914 35.4591 53.8318 34.6885 53.8318 33.7296Z" fill="#02C39A"/>
<path d="M77.7756 41.3841H84.5054V25.8181C84.5054 23.6947 85.0877 22.0508 86.2521 20.8863C87.4508 19.6876 88.992 19.0883 90.8757 19.0883H93.2902V13.129H91.6463C89.9338 13.129 88.4269 13.4373 87.1255 14.0537C85.824 14.6702 84.8137 15.7833 84.0945 17.393V13.4373H77.7756V41.3841Z" fill="#02C39A"/>
<path d="M110.483 41.6923C111.613 41.6923 112.727 41.6067 113.822 41.4355V35.6303C113.172 35.7331 112.572 35.7845 112.024 35.7845C110.381 35.7845 109.182 35.4077 108.428 34.6543C107.675 33.9008 107.298 32.822 107.298 31.4178V19.4479H113.72V13.4373H107.298V7.06704H100.568V9.2247C100.568 10.5946 100.192 11.6392 99.4381 12.3584C98.6846 13.0777 97.6229 13.4373 96.253 13.4373H95.7392V19.4479H100.568V31.7774C100.568 34.894 101.424 37.3257 103.137 39.0723C104.884 40.819 107.332 41.6923 110.483 41.6923Z" fill="#02C39A"/>
<path d="M118.964 10.3035H125.694V3.11133H118.964V10.3035ZM118.964 41.3841H125.694V13.4373H118.964V41.3841Z" fill="#02C39A"/>
<path d="M131.908 41.3841H138.638V24.9962C138.638 23.181 139.151 21.7254 140.179 20.6295C141.24 19.5335 142.61 18.9855 144.289 18.9855C145.967 18.9855 147.32 19.5335 148.347 20.6295C149.409 21.6912 149.94 23.1467 149.94 24.9962V41.3841H156.669V23.4036C156.669 21.3144 156.224 19.4821 155.334 17.9067C154.443 16.297 153.193 15.047 151.584 14.1565C150.008 13.266 148.193 12.8208 146.138 12.8208C144.391 12.8208 142.816 13.1633 141.412 13.8483C140.042 14.5332 138.98 15.5436 138.227 16.8793V13.4373H131.908V41.3841Z" fill="#02C39A"/>
<path d="M176.025 42.0006C178.731 42.0006 181.197 41.3841 183.423 40.1512C185.649 38.884 187.43 37.1544 188.766 34.9625C190.102 32.7363 190.769 30.2191 190.769 27.4107C190.769 24.6023 190.102 22.1022 188.766 19.9103C187.464 17.7183 185.701 15.9888 183.474 14.7216C181.248 13.4544 178.765 12.8208 176.025 12.8208C173.251 12.8208 170.751 13.4544 168.525 14.7216C166.299 15.9888 164.518 17.7183 163.182 19.9103C161.881 22.1022 161.23 24.6023 161.23 27.4107C161.23 30.2191 161.881 32.7192 163.182 34.9111C164.518 37.103 166.299 38.8326 168.525 40.0998C170.785 41.367 173.286 42.0006 176.025 42.0006ZM176.025 35.8358C174.518 35.8358 173.166 35.4762 171.967 34.757C170.802 34.0378 169.878 33.0446 169.193 31.7774C168.542 30.4759 168.217 29.0204 168.217 27.4107C168.217 25.801 168.542 24.3626 169.193 23.0954C169.878 21.8282 170.802 20.835 171.967 20.1157C173.166 19.3623 174.518 18.9855 176.025 18.9855C177.532 18.9855 178.851 19.3623 179.981 20.1157C181.146 20.835 182.053 21.8282 182.704 23.0954C183.389 24.3626 183.731 25.801 183.731 27.4107C183.731 29.0204 183.389 30.4759 182.704 31.7774C182.053 33.0446 181.146 34.0378 179.981 34.757C178.851 35.4762 177.532 35.8358 176.025 35.8358Z" fill="#02C39A"/>
</svg>
