<svg width="245" height="64" viewBox="0 0 245 64" fill="none" xmlns="http://www.w3.org/2000/svg">
<g clip-path="url(#clip0_1821_1169)">
<path d="M60.1377 31.9998C60.1377 40.0348 56.9906 47.7406 51.3886 53.4222C45.7865 59.1037 38.1886 62.2956 30.2661 62.2956C22.3437 62.2956 14.7457 59.1037 9.14372 53.4222C3.54171 47.7406 0.394531 40.0348 0.394531 31.9998C0.394531 23.9649 3.54171 16.2591 9.14372 10.5775C14.7457 4.89597 22.3437 1.7041 30.2661 1.7041C38.1886 1.7041 45.7865 4.89597 51.3886 10.5775C56.9906 16.2591 60.1377 23.9649 60.1377 31.9998Z" fill="#ED5763"/>
<path d="M30.5116 48.8845C22.3031 48.9138 13.7621 41.8199 13.7188 30.4022C13.7043 22.8539 17.7219 15.5988 22.8378 11.2896C27.8525 7.08313 34.7026 4.40092 40.9168 4.3716C41.642 4.34392 42.3673 4.42291 43.0701 4.60611C40.3418 5.21599 37.8961 6.74143 36.1285 8.93573C34.3609 11.13 33.3748 13.8649 33.3297 16.698C33.3297 16.9032 33.3297 17.1084 33.3586 17.1964C42.4632 19.4389 46.5819 25.0085 46.6108 32.718C46.6051 34.853 46.1837 36.9658 45.3707 38.9352C44.5577 40.9045 43.3691 42.6916 41.8732 44.1937C40.3773 45.6959 38.6035 46.8836 36.6538 47.6885C34.704 48.4935 32.6167 48.9 30.5116 48.8845Z" fill="white"/>
<path d="M79.4315 44.5465L70.3125 22.4293H76.281L81.9894 37.1155L87.51 22.4293H93.2039L84.3306 44.5465H79.4315ZM109.086 33.378C109.093 32.4883 108.986 31.6016 108.768 30.7397C108.584 29.977 108.261 29.2561 107.815 28.6145C107.412 28.0329 106.89 27.5476 106.283 27.1928C105.635 26.8222 104.902 26.6349 104.158 26.6505C103.415 26.6342 102.681 26.8215 102.034 27.1928C101.421 27.5443 100.892 28.03 100.488 28.6145C100.045 29.2617 99.7261 29.9876 99.5482 30.7544C99.3318 31.6115 99.2249 32.4932 99.2303 33.378C99.223 34.2676 99.3299 35.1545 99.5482 36.0162C99.7302 36.7766 100.038 37.5002 100.459 38.1561C100.858 38.7744 101.406 39.2801 102.05 39.6261C102.695 39.9721 103.415 40.1471 104.144 40.1348C104.873 40.1573 105.594 39.9866 106.238 39.6396C106.882 39.2925 107.425 38.7812 107.815 38.1561C108.255 37.5109 108.578 36.7912 108.768 36.0309C108.988 35.1644 109.095 34.2725 109.086 33.378ZM114.592 33.3926C114.593 34.835 114.373 36.2687 113.942 37.6431C113.522 38.9991 112.86 40.2657 111.991 41.3806C111.059 42.5699 109.865 43.5209 108.504 44.1573C107.144 44.7936 105.655 45.0976 104.158 45.0448C102.66 45.0942 101.17 44.7887 99.808 44.1527C98.4459 43.5166 97.2486 42.5675 96.311 41.3806C95.4435 40.2645 94.7826 38.9982 94.3601 37.6431C93.5012 34.8914 93.5012 31.9378 94.3601 29.1861C94.7829 27.8446 95.4441 26.5928 96.311 25.4926C97.1932 24.3916 98.3033 23.501 99.5627 22.8837C100.997 22.1938 102.571 21.8525 104.158 21.887C105.646 21.8453 107.124 22.1484 108.478 22.7732C109.833 23.398 111.03 24.3281 111.977 25.4926C112.844 26.5772 113.509 27.8084 113.942 29.1861C114.376 30.5639 114.592 31.9709 114.592 33.3926ZM131.443 27.31C130.486 26.9009 129.461 26.6772 128.423 26.6505C127.611 26.6106 126.802 26.7775 126.07 27.1359C125.338 27.4943 124.706 28.0329 124.232 28.7024C123.775 29.3458 123.433 30.065 123.22 30.8277C122.996 31.6136 122.884 32.428 122.888 33.2461C122.883 34.1339 122.98 35.0193 123.177 35.8843C123.35 36.6657 123.659 37.4099 124.087 38.0828C124.477 38.702 125.001 39.2233 125.619 39.6071C126.226 39.9882 126.963 40.1934 127.787 40.1934C128.531 40.1766 129.261 39.9754 129.911 39.6071C130.534 39.3092 131.064 38.8426 131.443 38.2587V27.31ZM131.891 44.5465L131.674 42.8463C131.099 43.4807 130.413 44.0024 129.651 44.3853C128.546 44.8645 127.35 45.0869 126.15 45.0362C124.95 44.9855 123.776 44.6629 122.714 44.0921C121.576 43.4572 120.59 42.5766 119.824 41.5125C119.015 40.3936 118.408 39.1381 118.032 37.8043C117.626 36.3751 117.422 34.8947 117.425 33.4073C117.425 31.9563 117.627 30.5492 118.046 29.1715C118.454 27.8338 119.106 26.5858 119.968 25.4926C120.9 24.3213 122.087 23.3858 123.437 22.76C124.786 22.1342 126.261 21.8353 127.743 21.887C128.9 21.887 130.128 22.1068 131.443 22.5319V13.9576H137.05V44.5465H131.891ZM152.831 34.1694C151.595 34.2534 150.365 34.41 149.146 34.6385C147.932 34.8876 147.094 35.298 146.617 35.899C146.171 36.4479 145.926 37.1367 145.924 37.8483C145.924 38.5812 146.184 39.1674 146.718 39.6071C147.366 40.0879 148.157 40.3261 148.958 40.2814C149.681 40.2814 150.404 40.1348 151.083 39.827C151.725 39.5426 152.316 39.1512 152.831 38.6691V34.1694ZM153.279 44.5172L153.063 42.8756C152.422 43.5795 151.631 44.1259 150.75 44.4732C148.899 45.2166 146.843 45.2478 144.97 44.5612C143.625 44.1065 142.46 43.2259 141.645 42.0491C140.831 40.8723 140.411 39.4614 140.446 38.0242C140.428 37.0563 140.631 36.0971 141.04 35.2223C141.448 34.3474 142.052 33.5806 142.802 32.9822C143.56 32.3839 144.403 31.9046 145.302 31.5605C147.023 30.9415 148.815 30.5474 150.635 30.388L152.803 30.1828V29.8603C152.803 28.6438 152.485 27.7791 151.863 27.2514C151.123 26.6933 150.212 26.4181 149.291 26.4746C147.653 26.4829 146.058 27.0051 144.724 27.9696C144.433 28.1574 144.153 28.3629 143.886 28.5852L142.022 24.5985C142.916 23.9104 143.898 23.3483 144.941 22.9276C147.657 21.7824 150.672 21.5865 153.511 22.3707C154.487 22.6801 155.38 23.2122 156.121 23.9261C156.863 24.6401 157.433 25.5169 157.788 26.4892C158.223 27.7152 158.429 29.0124 158.395 30.3147V44.5319L153.279 44.5172ZM175.723 18.9996C174.724 18.546 173.638 18.3257 172.544 18.3547C171.778 18.3547 171.113 18.5892 170.593 19.0729C170.058 19.5419 169.798 20.3187 169.798 21.3887V22.4293H174.509V27.0169H169.841V44.5465H164.234V27.0169H161.344V22.4293H164.234V21.2567C164.234 19.8057 164.422 18.5892 164.783 17.5925C165.078 16.6998 165.575 15.8898 166.236 15.2278C166.896 14.5659 167.7 14.0706 168.584 13.7817C171.159 13.0843 173.887 13.254 176.359 14.2654L175.723 18.9996ZM191.013 33.378C191.017 32.4885 190.91 31.6021 190.695 30.7397C190.511 29.977 190.187 29.2561 189.741 28.6145C189.339 28.0329 188.816 27.5476 188.209 27.1928C187.562 26.8222 186.828 26.6349 186.085 26.6505C185.341 26.6342 184.607 26.8215 183.96 27.1928C183.349 27.5466 182.821 28.0319 182.414 28.6145C181.97 29.2631 181.647 29.9882 181.46 30.7544C181.02 32.4849 181.02 34.3003 181.46 36.0309C181.651 36.7862 181.963 37.5043 182.385 38.1561C182.78 38.7607 183.31 39.2628 183.931 39.6218C184.592 39.9832 185.334 40.165 186.085 40.1494C186.812 40.1678 187.532 39.9937 188.173 39.6441C188.814 39.2946 189.355 38.7818 189.741 38.1561C190.181 37.5109 190.504 36.7912 190.695 36.0309C190.912 35.1639 191.019 34.2724 191.013 33.378ZM196.519 33.3926C196.522 34.8352 196.302 36.2693 195.869 37.6431C195.451 39.0001 194.789 40.2672 193.918 41.3806C192.985 42.5699 191.791 43.5209 190.431 44.1573C189.07 44.7936 187.582 45.0976 186.085 45.0448C184.586 45.0942 183.097 44.7887 181.734 44.1527C180.372 43.5166 179.175 42.5675 178.237 41.3806C177.37 40.2645 176.709 38.9982 176.287 37.6431C175.416 34.8932 175.416 31.936 176.287 29.1861C176.705 27.8456 177.361 26.5939 178.223 25.4926C179.109 24.39 180.225 23.4992 181.489 22.8837C182.924 22.1938 184.497 21.8525 186.085 21.887C187.572 21.8453 189.05 22.1484 190.405 22.7732C191.76 23.398 192.956 24.3281 193.903 25.4926C194.77 26.5772 195.435 27.8084 195.869 29.1861C196.302 30.5639 196.519 31.9709 196.519 33.3926ZM213.933 44.5465V31.9416C214.019 30.5566 213.654 29.1814 212.893 28.0282C212.555 27.5805 212.116 27.2216 211.613 26.9819C211.11 26.7421 210.558 26.6285 210.002 26.6505C209.145 26.6405 208.302 26.8795 207.574 27.3393C206.876 27.7675 206.23 28.2793 205.652 28.8637V44.5465H200.045V22.4293H205.161L205.421 24.1881C207.185 22.6965 209.411 21.8819 211.708 21.887C212.864 21.887 213.919 22.0629 214.887 22.4146C215.832 22.7608 216.68 23.3342 217.358 24.0855C218.066 24.8477 218.601 25.8443 218.977 27.0609C219.352 28.292 219.54 29.7577 219.54 31.4579V44.5465H213.933ZM236.984 30.8277C236.942 30.1398 236.781 29.4649 236.507 28.8343C236.283 28.3148 235.959 27.8462 235.553 27.4566C234.853 26.7993 233.934 26.4331 232.98 26.4306C231.956 26.4493 230.972 26.8393 230.206 27.5299C229.744 27.9473 229.37 28.4541 229.104 29.0204C228.839 29.5868 228.687 30.2012 228.659 30.8277H236.984ZM228.529 34.9169C228.645 36.7784 229.223 38.1268 230.263 38.9476C231.409 39.8114 232.811 40.2511 234.238 40.1934C235.571 40.1918 236.894 39.9434 238.14 39.4606C238.597 39.2769 239.041 39.0614 239.469 38.8157C239.761 38.6474 240.032 38.4457 240.278 38.2147L241.781 42.8463C240.931 43.4298 240.001 43.8841 239.021 44.1947C237.232 44.7512 235.372 45.0376 233.501 45.0448C232.123 45.0497 230.755 44.8168 229.454 44.356C228.191 43.9089 227.041 43.183 226.087 42.2307C225.077 41.205 224.29 39.977 223.775 38.6251C223.163 36.9876 222.869 35.2458 222.908 33.4952C222.908 31.6192 223.182 29.9776 223.702 28.5412C224.349 26.5721 225.6 24.8642 227.272 23.6671C228.943 22.47 230.949 21.8462 232.995 21.887C234.312 21.8737 235.62 22.1072 236.853 22.5759C238.024 23.0302 239.036 23.7484 239.888 24.7011C240.755 25.6685 241.435 26.9143 241.926 28.4533C242.432 29.9776 242.677 31.795 242.677 33.9056V34.9169H228.529Z" fill="#ED5763"/>
</g>
<defs>
<clipPath id="clip0_1821_1169">
<rect width="244.211" height="64" fill="white" transform="translate(0.394531)"/>
</clipPath>
</defs>
</svg>
