<svg width="271" height="54" viewBox="0 0 271 54" fill="none" xmlns="http://www.w3.org/2000/svg">
<path d="M8.19041 12.3254L11.331 13.8956C11.909 14.1481 12.5381 14.2619 13.1679 14.2278C13.7978 14.1938 14.4109 14.0128 14.9583 13.6994L17.9262 11.7679C18.4368 11.3973 18.8525 10.9109 19.139 10.3486C19.4256 9.7864 19.575 9.16426 19.5749 8.53317L19.3865 4.99221C19.3177 4.36622 19.1029 3.76504 18.7593 3.23727C18.4155 2.7095 17.9527 2.26982 17.4079 1.95373L14.2674 0.344202C13.6904 0.0887184 13.0614 -0.0273242 12.4312 0.00541595C11.8011 0.0381561 11.1874 0.218737 10.64 0.532634L7.6723 2.46407C7.16251 2.83567 6.74749 3.32222 6.46107 3.8843C6.17458 4.4463 6.02462 5.06805 6.02344 5.69883L6.21187 9.23979C6.27287 9.87434 6.48415 10.4852 6.8282 11.0217C7.17225 11.5584 7.63925 12.0053 8.19041 12.3254Z" fill="#3EB4B4"/>
<path d="M27.1346 16.9104L23.994 15.3008C23.4174 15.0484 22.7896 14.9347 22.161 14.9688C21.5324 15.0029 20.9206 15.1838 20.3746 15.4971L17.3753 17.4285C16.8674 17.8019 16.4538 18.2888 16.1675 18.8505C15.8812 19.4121 15.7302 20.0329 15.7266 20.6633L15.9151 24.2043C15.9838 24.8303 16.1986 25.4315 16.5422 25.9593C16.886 26.4871 17.3488 26.9267 17.8935 27.2427L21.0341 28.813C21.6097 29.0684 22.2375 29.1845 22.8664 29.1518C23.4953 29.1191 24.1076 28.9384 24.6536 28.6246L27.6292 26.6931C28.1374 26.3182 28.551 25.8298 28.8371 25.2669C29.1234 24.704 29.2744 24.082 29.278 23.4505L29.0896 19.9174C29.0176 19.2994 28.8036 18.7064 28.4645 18.1848C28.1253 17.6631 27.6702 17.227 27.1346 16.9104Z" fill="#3EB4B4"/>
<path d="M36.8239 31.8433L33.6834 30.273C33.1064 30.0174 32.4774 29.9014 31.8473 29.9341C31.2171 29.9669 30.6035 30.1474 30.0561 30.4614L27.0883 32.3929C26.5794 32.7652 26.1651 33.252 25.8787 33.8139C25.5923 34.3757 25.4419 34.997 25.4395 35.6276L25.628 39.1686C25.7031 39.7845 25.9193 40.3749 26.2598 40.8936C26.6001 41.4124 27.0557 41.8457 27.5908 42.1599L30.7313 43.7302C31.3094 43.9826 31.9384 44.0964 32.5683 44.0623C33.1981 44.0283 33.8112 43.8473 34.3587 43.5339L37.3343 41.6025C37.8426 41.23 38.2561 40.7431 38.5412 40.1811C38.8263 39.6191 38.975 38.9979 38.9753 38.3677L38.8103 34.8896C38.7426 34.2612 38.5274 33.6578 38.1821 33.1284C37.837 32.599 37.3715 32.1587 36.8239 31.8433Z" fill="#3EB4B4"/>
<path d="M13.6865 23.0497L13.5373 20.2938C13.5409 19.6635 13.6919 19.0426 13.9782 18.481C14.2645 17.9193 14.6781 17.4324 15.1861 17.0591L20.9725 13.2983C21.5185 12.985 22.1304 12.804 22.759 12.77C23.3875 12.7359 24.0153 12.8496 24.592 13.102L27.0573 14.3582C27.6343 14.6137 28.2633 14.7298 28.8934 14.6971C29.5237 14.6643 30.1373 14.4837 30.6847 14.1698L33.6525 12.2305C34.1618 11.8585 34.5764 11.3719 34.8628 10.8099C35.1493 10.2479 35.2994 9.62651 35.3013 8.99573L35.1128 5.46262C35.0453 4.83522 34.831 4.23247 34.4872 3.70329C34.1435 3.17403 33.68 2.73318 33.1343 2.41629L29.9937 0.806767C29.4157 0.554346 28.7867 0.44058 28.1568 0.474654C27.5269 0.508729 26.9138 0.689703 26.3664 1.00305L23.3358 2.90308C22.8274 3.27555 22.414 3.76249 22.1289 4.32449C21.8438 4.88649 21.6951 5.50769 21.6949 6.13784L21.8362 8.89366C21.8359 9.52389 21.6872 10.1451 21.4021 10.7071C21.117 11.2691 20.7035 11.756 20.1952 12.1284L14.4088 15.8892C13.8614 16.2031 13.2478 16.3838 12.6177 16.4165C11.9874 16.4493 11.3585 16.3331 10.7815 16.0777L8.324 14.8293C7.747 14.5738 7.11803 14.4578 6.4878 14.4905C5.85766 14.5232 5.24407 14.7038 4.69667 15.0177L1.72886 16.9492C1.21907 17.3208 0.80413 17.8073 0.517635 18.3694C0.231139 18.9315 0.0812558 19.5531 0.0800781 20.1839L0.268509 23.7249C0.335402 24.3525 0.549509 24.9555 0.893241 25.4848C1.23705 26.0142 1.70083 26.4549 2.24705 26.7712L5.38759 28.3415C5.96561 28.594 6.59466 28.7077 7.22449 28.6737C7.85433 28.6396 8.46752 28.4586 9.01492 28.1452L11.9827 26.2138C12.4928 25.8547 12.9121 25.3819 13.2079 24.8327C13.5035 24.2836 13.6674 23.6731 13.6865 23.0497Z" fill="#3EB4B4"/>
<path d="M44.7689 20.3981C44.699 19.7713 44.4837 19.1696 44.1402 18.6407C43.7967 18.1119 43.3345 17.6705 42.7904 17.3518L39.6498 15.7815C39.0717 15.5296 38.4426 15.4162 37.8129 15.4503C37.1832 15.4843 36.5701 15.665 36.0225 15.9778L33.0546 17.9092C32.5458 18.2817 32.1315 18.7684 31.8451 19.3302C31.5588 19.8921 31.4083 20.5134 31.4059 21.144L31.5551 23.9077C31.5527 24.5382 31.4022 25.1595 31.1158 25.7213C30.8295 26.2832 30.4151 26.7699 29.9062 27.1424L24.1276 30.8954C23.5802 31.2087 22.9671 31.3897 22.3373 31.4238C21.7074 31.4578 21.0784 31.3441 20.5003 31.0916L18.035 29.8354C17.4583 29.583 16.8305 29.4692 16.2019 29.5033C15.5733 29.5375 14.9616 29.7184 14.4155 30.0317L11.4163 31.9553C10.9084 32.3286 10.4948 32.8155 10.2084 33.3772C9.92217 33.9388 9.77119 34.5596 9.76758 35.1901L9.95593 38.7309C10.0247 39.357 10.2395 39.9582 10.5832 40.486C10.9269 41.0137 11.3897 41.4534 11.9346 41.7695L15.0751 43.379C15.6507 43.6344 16.2784 43.7505 16.9073 43.7177C17.5363 43.685 18.1485 43.5043 18.6946 43.1905L21.6702 41.2591C22.1777 40.8854 22.591 40.3983 22.8772 39.8368C23.1635 39.2752 23.3147 38.6546 23.319 38.0244L23.1698 35.2606C23.1716 34.6299 23.3218 34.0085 23.6082 33.4466C23.8946 32.8846 24.3092 32.398 24.8185 32.0259L30.5971 28.2652C31.1445 27.9513 31.7582 27.7706 32.3884 27.7379C33.0185 27.7051 33.6475 27.8212 34.2245 28.0766L36.6819 29.3251C37.2589 29.5806 37.888 29.6966 38.5181 29.6639C39.1483 29.6311 39.7619 29.4506 40.3093 29.1367L43.285 27.2052C43.7928 26.8323 44.206 26.3453 44.491 25.7834C44.7761 25.2215 44.925 24.6005 44.9259 23.9705L44.7689 20.3981Z" fill="#3EB4B4"/>
<path d="M55.3125 6.24222H67.0826L72.6031 28.5846L78.1236 6.24222H90.4145L79.2173 42.0733H65.9368L55.3125 6.24222Z" fill="#3EB4B4"/>
<path d="M101.97 42.49C99.0533 42.49 96.7791 41.5525 95.1473 39.6776C93.5154 37.8028 92.6995 35.2508 92.6995 32.0219V15.9812H103.74V31.5531C103.74 32.3517 103.949 32.9767 104.365 33.428C104.817 33.8447 105.39 34.053 106.084 34.053C106.778 34.053 107.49 33.8447 108.219 33.428L108.792 40.6672C108.028 41.2574 107.022 41.7088 105.772 42.0212C104.556 42.3337 103.289 42.49 101.97 42.49ZM98.22 12.0752C96.5881 12.0752 95.1993 11.5717 94.0536 10.5649C92.9425 9.52326 92.387 8.25598 92.387 6.76302C92.387 5.27006 92.9772 4.02013 94.1577 3.01325C95.3382 2.00637 96.6923 1.50293 98.22 1.50293C99.8171 1.50293 101.189 2.02373 102.334 3.06533C103.515 4.10693 104.105 5.3395 104.105 6.76302C104.105 8.2907 103.515 9.55799 102.334 10.5649C101.154 11.5717 99.7824 12.0752 98.22 12.0752Z" fill="#3EB4B4"/>
<path d="M111.825 16.3458H122.814V21.6579C123.613 19.6094 124.689 18.0991 126.043 17.127C127.432 16.1201 129.046 15.6166 130.886 15.6166L132.397 24.1057C129.098 24.1057 126.668 24.4702 125.106 25.1994C123.578 25.8938 122.814 27.0048 122.814 28.5325V42.0733H111.825V16.3458Z" fill="#3EB4B4"/>
<path d="M148.765 42.49C145.848 42.49 143.244 41.9171 140.953 40.7713C138.696 39.6256 136.925 38.0458 135.641 36.032C134.391 33.9836 133.766 31.6399 133.766 29.0012C133.766 26.3625 134.408 24.0362 135.693 22.0225C136.977 19.974 138.748 18.3942 141.005 17.2832C143.297 16.1722 145.901 15.6166 148.817 15.6166C151.768 15.6166 154.372 16.1895 156.629 17.3353C158.921 18.4463 160.691 20.0087 161.941 22.0225C163.191 24.0362 163.816 26.3625 163.816 29.0012C163.816 31.6747 163.174 34.0356 161.889 36.0841C160.639 38.0979 158.868 39.6776 156.577 40.8234C154.32 41.9344 151.716 42.49 148.765 42.49ZM148.869 34.6779C150.293 34.6779 151.456 34.1571 152.358 33.1155C153.296 32.0392 153.765 30.6678 153.765 29.0012C153.765 27.3347 153.296 25.9806 152.358 24.939C151.456 23.8626 150.293 23.3245 148.869 23.3245C147.446 23.3245 146.265 23.8626 145.328 24.939C144.425 25.9806 143.974 27.3347 143.974 29.0012C143.974 30.6678 144.425 32.0392 145.328 33.1155C146.265 34.1571 147.446 34.6779 148.869 34.6779Z" fill="#3EB4B4"/>
<path d="M182.458 53.9997C180.549 53.9997 178.726 53.8087 176.99 53.4268L177.823 45.7189C179.177 45.9272 180.427 46.0314 181.573 46.0314C183.726 46.0314 185.357 45.3891 186.468 44.1044C187.58 42.8545 188.239 40.7366 188.448 37.7507C186.399 40.6324 183.274 42.0733 179.073 42.0733C176.782 42.0733 174.664 41.4831 172.719 40.3026C170.81 39.1221 169.282 37.525 168.136 35.5112C167.025 33.4975 166.47 31.2927 166.47 28.8971C166.47 26.4667 167.025 24.2446 168.136 22.2308C169.247 20.1823 170.758 18.5678 172.667 17.3874C174.612 16.2069 176.729 15.6166 179.021 15.6166C181.139 15.6166 182.979 16.1722 184.542 17.2832C186.139 18.3595 187.18 19.8178 187.666 21.6579V15.6166H198.655V35.4592C198.655 41.5352 197.266 46.1356 194.489 49.2604C191.746 52.4199 187.736 53.9997 182.458 53.9997ZM182.458 34.2613C183.847 34.2613 185.045 33.7752 186.052 32.8031C187.059 31.7962 187.597 30.6157 187.666 29.2616V28.845C187.597 27.5256 187.041 26.3625 186 25.3556C184.993 24.3487 183.812 23.8453 182.458 23.8453C181.035 23.8453 179.82 24.3661 178.813 25.4077C177.806 26.4146 177.302 27.6298 177.302 29.0533C177.302 30.4768 177.806 31.7094 178.813 32.751C179.82 33.7579 181.035 34.2613 182.458 34.2613Z" fill="#3EB4B4"/>
<path d="M215.441 42.49C213.184 42.49 211.067 41.8997 209.087 40.7192C207.143 39.504 205.581 37.8722 204.4 35.8237C203.22 33.7405 202.63 31.4316 202.63 28.8971C202.63 26.3972 203.22 24.1404 204.4 22.1266C205.581 20.0782 207.161 18.481 209.14 17.3353C211.119 16.1895 213.219 15.6166 215.441 15.6166C217.247 15.6166 218.913 16.1201 220.441 17.127C222.003 18.1338 223.184 19.6442 223.982 21.6579V15.6166H234.919V42.0733H223.982V37.2299C222.246 40.7366 219.399 42.49 215.441 42.49ZM218.826 34.2613C220.215 34.2613 221.396 33.7752 222.368 32.8031C223.375 31.7962 223.913 30.6157 223.982 29.2616V28.845C223.913 27.4562 223.357 26.2757 222.316 25.3035C221.309 24.3314 220.146 23.8453 218.826 23.8453C217.368 23.8453 216.118 24.3661 215.077 25.4077C214.07 26.4146 213.566 27.6298 213.566 29.0533C213.566 30.5115 214.087 31.7441 215.129 32.751C216.17 33.7579 217.403 34.2613 218.826 34.2613Z" fill="#3EB4B4"/>
<path d="M240.194 16.3458H250.662V21.6579C252.676 17.6304 255.87 15.6166 260.245 15.6166C263.578 15.6166 266.182 16.8145 268.057 19.2102C269.967 21.5711 270.922 24.8522 270.922 29.0533V42.0733H259.985V27.9596C259.985 26.4667 259.655 25.3209 258.995 24.5223C258.37 23.7238 257.485 23.3245 256.339 23.3245C255.506 23.3245 254.69 23.6022 253.891 24.1578C253.093 24.6786 252.433 25.4424 251.912 26.4493C251.426 27.4562 251.183 28.6019 251.183 29.8866V42.0733H240.194V16.3458Z" fill="#3EB4B4"/>
</svg>
