<svg width="73" height="28" viewBox="0 0 73 28" fill="none" xmlns="http://www.w3.org/2000/svg">
<g clip-path="url(#clip0_657_643)">
<path d="M0 0.390625H5.2841V5.61428H0V0.390625Z" fill="#2272F9"/>
<path d="M5.15368 27.6075V8.77626H0.132812V27.5889H5.15375L5.15368 27.6075ZM38.4005 27.7934V23.1832C37.667 23.1832 37.0465 23.146 36.5952 23.0717C36.0686 22.9974 35.6738 22.8114 35.4105 22.5512C35.1472 22.2909 34.9779 21.9191 34.8839 21.4172C34.8087 20.9524 34.7711 20.339 34.7711 19.5954V13.0333H38.4005V8.77626H34.7711V1.45196H29.7501V19.6512C29.7501 21.1941 29.8818 22.4954 30.1451 23.5364C30.4084 24.5589 30.8597 25.3954 31.4802 26.0274C32.1007 26.6594 32.9282 27.1056 33.9249 27.3845C34.9403 27.6633 36.219 27.7934 37.7422 27.7934H38.4005ZM67.1341 27.6075V0.00195312H62.1132V27.6075H67.1341ZM24.9175 10.6352C23.526 9.14806 21.5703 8.40447 19.088 8.40447C17.8846 8.40447 16.775 8.64615 15.7972 9.12944C14.8006 9.6128 13.9732 10.282 13.2962 11.1371L13.0329 11.4903V8.77626H8.08732V27.5889H13.0705V17.5691V17.9224C13.1269 16.1563 13.5595 14.8551 14.3869 14.0185C15.2707 13.1262 16.3425 12.6801 17.5649 12.6801C19.0129 12.6801 20.1223 13.1262 20.8557 13.9814C21.5703 14.8365 21.9464 16.0448 21.9464 17.5877V27.5889H27.0048V16.9185C27.0237 14.2416 26.3091 12.1224 24.9175 10.6352ZM59.518 18.164C59.518 16.807 59.2736 15.5429 58.8035 14.3532C58.3146 13.1819 57.6376 12.141 56.7914 11.2486C55.9264 10.3564 54.8921 9.66858 53.6886 9.16668C52.4851 8.6647 51.15 8.42302 49.702 8.42302C48.3293 8.42302 47.0317 8.68331 45.8282 9.18522C44.6247 9.70575 43.5716 10.3935 42.6878 11.2673C41.804 12.141 41.0894 13.182 40.5817 14.3718C40.0552 15.5615 39.8107 16.8442 39.8107 18.2012C39.8107 19.5583 40.0552 20.8409 40.5441 22.0306C41.033 23.2204 41.7288 24.2614 42.5938 25.1352C43.4589 26.0088 44.5307 26.7152 45.7718 27.2171C47.0129 27.7377 48.3857 27.998 49.8525 27.998C54.1023 27.998 56.7349 26.0832 58.3146 24.2986L54.7041 21.5844C53.9519 22.4768 52.1467 23.6852 49.8901 23.6852C48.4797 23.6852 47.3138 23.3691 46.43 22.7184C45.5461 22.0864 44.9444 21.1941 44.6247 20.0973L44.5683 19.93H59.518V18.164ZM44.6059 16.4352C44.6059 15.0595 46.2043 12.6615 49.6456 12.6429C53.0868 12.6429 54.7041 15.041 54.7041 16.4166L44.6059 16.4352ZM72.8508 25.2281C72.7567 25.005 72.6251 24.8191 72.4558 24.6518C72.2866 24.4845 72.0986 24.3543 71.8729 24.2614C71.6473 24.1685 71.4028 24.1127 71.1583 24.1127C70.8951 24.1127 70.6694 24.1685 70.4438 24.2614C70.2181 24.3543 70.03 24.4845 69.8608 24.6518C69.6916 24.8191 69.5599 25.005 69.4659 25.2281C69.3719 25.4511 69.3155 25.6928 69.3155 25.9345C69.3155 26.1947 69.3719 26.4178 69.4659 26.6409C69.5599 26.8639 69.6916 27.0499 69.8608 27.2171C70.03 27.3845 70.2181 27.5146 70.4438 27.6075C70.6694 27.7005 70.9139 27.7562 71.1583 27.7562C71.4216 27.7562 71.6473 27.7005 71.8729 27.6075C72.0986 27.5146 72.2866 27.3845 72.4559 27.2171C72.6251 27.0499 72.7567 26.864 72.8508 26.6409C72.9449 26.4178 73.0012 26.1762 73.0012 25.9344C73.0012 25.6926 72.9448 25.4511 72.8508 25.2281H72.8508ZM72.5499 26.5293C72.4747 26.7152 72.3619 26.8825 72.2302 27.0127C72.0986 27.1428 71.9294 27.2543 71.7413 27.3287C71.5533 27.403 71.3652 27.4402 71.1396 27.4402C70.9327 27.4402 70.7258 27.403 70.5378 27.3287C70.3498 27.2544 70.1805 27.1428 70.0489 27.0126C69.9173 26.8825 69.8044 26.7152 69.7291 26.5293C69.6539 26.3434 69.6163 26.1575 69.6163 25.9345C69.6163 25.73 69.6539 25.5255 69.7292 25.3396C69.8044 25.1537 69.9173 24.9864 70.0489 24.8563C70.1805 24.7261 70.3498 24.6146 70.5378 24.5402C70.7258 24.4658 70.9138 24.4287 71.1396 24.4287C71.3464 24.4287 71.5533 24.4659 71.7413 24.5402C71.9294 24.6146 72.0986 24.7261 72.2302 24.8563C72.3619 24.9864 72.4747 25.1536 72.5499 25.3396C72.6251 25.5256 72.6627 25.7114 72.6627 25.9345C72.6627 26.1575 72.6251 26.3434 72.5499 26.5293ZM71.4968 26.1017C71.6472 26.0832 71.7601 26.0274 71.8541 25.9345C71.9481 25.8415 72.0045 25.7114 72.0045 25.5255C72.0045 25.321 71.9481 25.1723 71.8165 25.0608C71.7037 24.9492 71.4968 24.8934 71.2523 24.8934H70.425V26.9941H70.8199V26.1389H71.1019L71.6284 26.9941H72.0421L71.4968 26.1017ZM71.2899 25.7857H70.8197V25.1909H71.2899C71.3463 25.1909 71.4027 25.2094 71.4592 25.2281C71.5156 25.2467 71.5532 25.2838 71.5719 25.321C71.6096 25.3582 71.6096 25.4139 71.6096 25.4883C71.6096 25.5626 71.5908 25.6185 71.5719 25.6556C71.5343 25.6928 71.4967 25.73 71.4592 25.7486C71.4027 25.7671 71.3463 25.7857 71.2899 25.7857H71.2899Z" fill="#2272F9"/>
</g>
<defs>
<clipPath id="clip0_657_643">
<rect width="73" height="28" fill="white"/>
</clipPath>
</defs>
</svg>
