<svg width="166" height="28" viewBox="0 0 166 28" fill="none" xmlns="http://www.w3.org/2000/svg">
<path d="M160.61 22.7258C160.077 22.1316 159.626 21.4686 159.267 20.7544C158.7 19.6349 157.916 18.641 156.962 17.8313C156.007 17.0217 154.902 16.4126 153.71 16.04C152.668 15.7154 151.578 15.5777 150.488 15.633C151.281 15.5874 152.062 15.8452 152.674 16.3549C153.286 16.8646 153.684 17.5884 153.789 18.3813C154.075 20.0946 154.829 21.694 155.966 23.0006C157.103 24.3072 158.578 25.2697 160.227 25.7807C162.112 26.3643 164.132 26.3328 165.999 25.6908C163.92 25.3493 162.019 24.3033 160.61 22.7258Z" fill="#02C39A"/>
<path d="M147.244 15.4632C147.487 16.521 147.913 17.5287 148.505 18.441C148.073 17.7786 147.907 16.9795 148.039 16.2015C148.171 15.4233 148.592 14.7227 149.22 14.2377C150.551 13.1442 151.551 11.7053 152.108 10.0811C152.664 8.45687 152.756 6.71121 152.372 5.0385C151.934 3.12497 150.894 1.39923 149.403 0.110352C150.146 2.07958 150.188 4.24134 149.524 6.23795C149.27 6.99172 148.917 7.70888 148.473 8.37087C147.793 9.41079 147.329 10.5757 147.11 11.7965C146.891 13.0174 146.92 14.2695 147.197 15.4789L147.244 15.4632Z" fill="#02C39A"/>
<path d="M151.889 19.1465C151.536 19.8581 150.932 20.4082 150.198 20.6863C149.463 20.9644 148.652 20.95 147.927 20.646C146.33 20.0379 144.597 19.893 142.924 20.2274C141.25 20.5619 139.701 21.3626 138.449 22.5401C137.022 23.8887 136.054 25.6629 135.684 27.6068C137.011 25.9693 138.849 24.8409 140.894 24.4079C141.662 24.2482 142.446 24.1863 143.229 24.2237C144.458 24.2884 145.686 24.1024 146.843 23.6768C147.999 23.2511 149.06 22.5945 149.962 21.7456C150.752 21.0005 151.408 20.1209 151.899 19.1465H151.889Z" fill="#02C39A"/>
<path d="M0 27.4825H4.45128V16.6431C4.45128 15.4425 4.77975 14.4798 5.43668 13.7549C6.09361 13.03 6.95442 12.6676 8.0191 12.6676C9.10644 12.6676 9.96725 13.03 10.6015 13.7549C11.2585 14.4571 11.5869 15.4199 11.5869 16.6431V27.4825H16.0382V16.6431C16.0382 15.4425 16.3667 14.4798 17.0236 13.7549C17.6805 13.03 18.5413 12.6676 19.606 12.6676C20.6934 12.6676 21.5542 13.03 22.1885 13.7549C22.8454 14.4571 23.1739 15.4199 23.1739 16.6431V27.4825H27.6251V15.5898C27.6251 14.208 27.3193 12.996 26.7077 11.954C26.1187 10.8893 25.3145 10.0625 24.2952 9.47351C23.2758 8.88454 22.1092 8.59005 20.7953 8.59005C19.5721 8.59005 18.4621 8.83923 17.4653 9.33759C16.4913 9.83596 15.6871 10.5835 15.0528 11.5802C14.5091 10.6741 13.7276 9.94922 12.7082 9.40555C11.7115 8.86188 10.5902 8.59005 9.3443 8.59005C8.189 8.59005 7.1583 8.81658 6.25218 9.26964C5.34607 9.72269 4.65516 10.4023 4.17945 11.3084V8.9978H0V27.4825Z" fill="#02C39A"/>
<path d="M36.9976 27.8903C39.3988 27.8903 41.3243 27.0974 42.774 25.5117V27.4825H46.9875V15.182C46.9875 13.8908 46.659 12.7468 46.0021 11.7501C45.3451 10.7534 44.439 9.9832 43.2837 9.43953C42.1511 8.87321 40.8259 8.59005 39.3082 8.59005C37.4506 8.59005 35.797 9.03178 34.3472 9.91524C32.8974 10.7987 31.9007 11.9653 31.357 13.4151L34.9928 15.182C35.3326 14.3439 35.8649 13.6756 36.5898 13.1772C37.3147 12.6562 38.1642 12.3957 39.1383 12.3957C40.1576 12.3957 40.9731 12.6676 41.5848 13.2112C42.2191 13.7322 42.5362 14.3892 42.5362 15.182V15.7937L37.0316 16.6771C34.8569 17.0396 33.2485 17.7305 32.2065 18.7498C31.1645 19.7692 30.6435 21.0491 30.6435 22.5895C30.6435 24.2205 31.2211 25.5117 32.3764 26.4631C33.5317 27.4146 35.0721 27.8903 36.9976 27.8903ZM35.2646 22.4196C35.2646 21.1284 36.1368 20.3129 37.881 19.9731L42.5362 19.1916V19.9391C42.5362 21.2077 42.0945 22.2837 41.211 23.1672C40.3502 24.0506 39.2176 24.4923 37.8131 24.4923C37.0655 24.4923 36.4539 24.3111 35.9782 23.9487C35.5025 23.5636 35.2646 23.0539 35.2646 22.4196Z" fill="#02C39A"/>
<path d="M51.1016 27.4825H55.5529V17.1868C55.5529 15.7823 55.938 14.695 56.7082 13.9248C57.501 13.1319 58.5204 12.7355 59.7663 12.7355H61.3634V8.79393H60.276C59.1434 8.79393 58.1467 8.9978 57.2858 9.40555C56.425 9.8133 55.7568 10.5495 55.2811 11.6142V8.9978H51.1016V27.4825Z" fill="#02C39A"/>
<path d="M72.7353 27.6864C73.4828 27.6864 74.219 27.6298 74.9439 27.5165V23.6768C74.5135 23.7448 74.1171 23.7788 73.7546 23.7788C72.6673 23.7788 71.8745 23.5296 71.3761 23.0312C70.8777 22.5329 70.6285 21.8193 70.6285 20.8905V12.9734H74.8759V8.9978H70.6285V4.78437H66.1773V6.2115C66.1773 7.11762 65.9281 7.80853 65.4297 8.28424C64.9314 8.75995 64.2291 8.9978 63.323 8.9978H62.9832V12.9734H66.1773V21.1284C66.1773 23.1898 66.7436 24.7982 67.8762 25.9535C69.0315 27.1088 70.6512 27.6864 72.7353 27.6864Z" fill="#02C39A"/>
<path d="M78.3448 6.92507H82.796V2.16797H78.3448V6.92507ZM78.3448 27.4825H82.796V8.9978H78.3448V27.4825Z" fill="#02C39A"/>
<path d="M86.9059 27.4825H91.3572V16.6431C91.3572 15.4425 91.697 14.4798 92.3766 13.7549C93.0788 13.03 93.9849 12.6676 95.0949 12.6676C96.2049 12.6676 97.0997 13.03 97.7793 13.7549C98.4815 14.4571 98.8327 15.4199 98.8327 16.6431V27.4825H103.284V15.5898C103.284 14.208 102.989 12.996 102.4 11.954C101.812 10.8893 100.985 10.0625 99.92 9.47351C98.878 8.88454 97.6774 8.59005 96.3182 8.59005C95.1629 8.59005 94.1209 8.81658 93.1921 9.26964C92.286 9.72269 91.5837 10.391 91.0854 11.2744V8.9978H86.9059V27.4825Z" fill="#02C39A"/>
<path d="M116.086 27.8903C117.876 27.8903 119.507 27.4825 120.979 26.667C122.452 25.8289 123.63 24.6849 124.513 23.2351C125.397 21.7627 125.838 20.0977 125.838 18.2402C125.838 16.3826 125.397 14.729 124.513 13.2792C123.652 11.8294 122.486 10.6854 121.013 9.84728C119.541 9.00913 117.899 8.59005 116.086 8.59005C114.252 8.59005 112.598 9.00913 111.125 9.84728C109.653 10.6854 108.475 11.8294 107.592 13.2792C106.731 14.729 106.3 16.3826 106.3 18.2402C106.3 20.0977 106.731 21.7514 107.592 23.2011C108.475 24.6509 109.653 25.7949 111.125 26.633C112.621 27.4712 114.274 27.8903 116.086 27.8903ZM116.086 23.8128C115.09 23.8128 114.195 23.5749 113.402 23.0992C112.632 22.6235 112.02 21.9666 111.567 21.1284C111.137 20.2676 110.922 19.3048 110.922 18.2402C110.922 17.1755 111.137 16.2241 111.567 15.3859C112.02 14.5477 112.632 13.8908 113.402 13.4151C114.195 12.9167 115.09 12.6676 116.086 12.6676C117.083 12.6676 117.955 12.9167 118.703 13.4151C119.473 13.8908 120.073 14.5477 120.504 15.3859C120.957 16.2241 121.183 17.1755 121.183 18.2402C121.183 19.3048 120.957 20.2676 120.504 21.1284C120.073 21.9666 119.473 22.6235 118.703 23.0992C117.955 23.5749 117.083 23.8128 116.086 23.8128Z" fill="#02C39A"/>
</svg>
