<svg width="73" height="72" viewBox="0 0 73 72" fill="none" xmlns="http://www.w3.org/2000/svg">
<rect x="0.333984" width="72" height="72" rx="36" fill="#F6F8F9"/>
<path d="M47.3946 28.0215C47.7842 25.4815 47.3946 23.7881 46.031 22.2249C44.5376 20.4664 41.8106 19.75 38.3043 19.75H28.24C27.5258 19.75 26.9414 20.271 26.8116 20.9875L22.5911 47.6909C22.5261 48.2119 22.9157 48.6678 23.4352 48.6678H29.6685L29.214 51.4033C29.1491 51.8592 29.4737 52.25 29.9932 52.25H35.2526C35.9019 52.25 36.4213 51.7941 36.4862 51.2079L37.5901 44.3041C37.655 43.7179 38.2394 43.262 38.8237 43.262H39.6029C44.6675 43.262 48.6932 41.1779 49.862 35.1859C50.3165 32.7109 50.1217 30.5616 48.8231 29.1288C48.4335 28.6728 47.979 28.3472 47.3946 28.0215Z" fill="#009CDE"/>
<path d="M47.3946 28.0215C47.7842 25.4815 47.3946 23.7881 46.031 22.2249C44.5376 20.4664 41.8105 19.75 38.3043 19.75H28.24C27.5258 19.75 26.9414 20.271 26.8116 20.9875L22.5911 47.6909C22.5261 48.2119 22.9157 48.6678 23.4352 48.6678H29.6685L31.1619 39.0286C31.2918 38.3121 31.8762 37.7911 32.5904 37.7911H35.5772C41.421 37.7911 45.9661 35.4464 47.2647 28.5426C47.3297 28.4123 47.3297 28.2169 47.3946 28.0215Z" fill="#012169"/>
<path d="M32.915 28.0867C32.98 27.6308 33.5643 27.0446 34.1487 27.0446H42.0703C42.9793 27.0446 43.8883 27.1097 44.6675 27.24C45.3817 27.3702 46.6803 27.6959 47.3297 28.0867C47.7192 25.5466 47.3297 23.8532 45.9661 22.2901C44.5376 20.4664 41.8105 19.75 38.3043 19.75H28.24C27.5258 19.75 26.9414 20.271 26.8116 20.9875L22.5911 47.6909C22.5261 48.2119 22.9157 48.6678 23.4352 48.6678H29.6685L32.915 28.0867Z" fill="#003087"/>
</svg>
