<svg width="76" height="76" viewBox="0 0 76 76" fill="none" xmlns="http://www.w3.org/2000/svg">
<g filter="url(#filter0_d_552_2430)">
<rect x="2" y="1" width="72" height="72" rx="36" fill="#1ED760"/>
<path fill-rule="evenodd" clip-rule="evenodd" d="M38 14.5C50.4264 14.5 60.5 24.5736 60.5 37C60.5 49.4264 50.4264 59.5 38 59.5C25.5736 59.5 15.5 49.4264 15.5 37C15.5 24.5736 25.5736 14.5 38 14.5ZM34.6898 41.388L33.1931 41.3857C31.1537 41.4132 29.4926 41.6051 26.2169 42.3716C25.4337 42.5548 24.8837 43.263 25.0379 44.0065C25.2061 44.8175 25.9157 45.2994 26.7586 45.1251C28.111 44.8454 29.4719 44.6312 30.8448 44.487C33.7081 44.1862 36.5562 44.2509 39.3836 44.8318C41.8843 45.3456 44.2247 46.2608 46.3918 47.6169C47.0048 48.0005 47.6538 47.9388 48.1368 47.4853C48.8654 46.8014 48.7054 45.7614 47.7762 45.1823C43.7694 42.6858 39.368 41.4949 34.6898 41.388ZM34.2342 34.1227C32.6147 34.087 31.008 34.2277 29.4095 34.4558C28.0096 34.6557 26.6291 34.9573 25.2751 35.367C24.2902 35.665 23.7601 36.6165 24.0331 37.55C24.3095 38.495 25.2574 39.0193 26.238 38.7349C29.9468 37.6593 33.7184 37.4058 37.5478 37.8227C41.4797 38.2506 45.2083 39.3059 48.627 41.3465C49.5184 41.8786 50.5405 41.6294 51.0657 40.7792C51.584 39.9402 51.3342 38.9078 50.4375 38.3612C49.771 37.9549 49.085 37.5743 48.3823 37.2348C43.9143 35.0752 39.1726 34.1453 34.2342 34.1227ZM37.6843 26.4889C35.2877 26.3194 32.8926 26.3673 30.5021 26.5915C28.3291 26.7951 26.1813 27.1504 24.0868 27.7797C22.8624 28.1476 22.2236 29.2626 22.558 30.4065C22.8969 31.5662 24.0128 32.1545 25.2442 31.8179C30.9919 30.2471 36.7873 30.2821 42.6033 31.342C45.6998 31.9063 48.6537 32.8906 51.4005 34.4681C52.7925 35.2677 54.4913 34.2403 54.4993 32.3546C54.4928 31.8711 54.1658 31.2682 53.513 30.8502C53.2609 30.6889 52.9979 30.5436 52.7336 30.4029C48.0292 27.8991 42.9428 26.8611 37.6843 26.4889Z" fill="white"/>
</g>
<defs>
<filter id="filter0_d_552_2430" x="0" y="0" width="76" height="76" filterUnits="userSpaceOnUse" color-interpolation-filters="sRGB">
<feFlood flood-opacity="0" result="BackgroundImageFix"/>
<feColorMatrix in="SourceAlpha" type="matrix" values="0 0 0 0 0 0 0 0 0 0 0 0 0 0 0 0 0 0 127 0" result="hardAlpha"/>
<feOffset dy="1"/>
<feGaussianBlur stdDeviation="1"/>
<feColorMatrix type="matrix" values="0 0 0 0 0 0 0 0 0 0 0 0 0 0 0 0 0 0 0.2 0"/>
<feBlend mode="normal" in2="BackgroundImageFix" result="effect1_dropShadow_552_2430"/>
<feBlend mode="normal" in="SourceGraphic" in2="effect1_dropShadow_552_2430" result="shape"/>
</filter>
</defs>
</svg>
