<svg width="72" height="72" viewBox="0 0 72 72" fill="none" xmlns="http://www.w3.org/2000/svg">
<rect width="72" height="72" rx="36" fill="#1B2124"/>
<path d="M36 20C27.1636 20 20 27.1629 20 36C20 44.8371 27.1636 52 36 52C44.8364 52 52 44.8371 52 36C52 27.1629 44.8364 20 36 20ZM43.806 43.065C43.5491 43.52 43.0764 43.776 42.5891 43.776C42.3612 43.776 42.1261 43.719 41.9103 43.599C39.9127 42.479 37.7358 41.793 35.4352 41.56C33.1297 41.329 30.8533 41.5629 28.6667 42.2611C27.937 42.4941 27.1515 42.0909 26.9188 41.36C26.6836 40.6279 27.0885 39.8451 27.8206 39.6109C30.3709 38.7961 33.0303 38.519 35.7164 38.792C38.3976 39.065 40.9382 39.865 43.2703 41.1721C43.9418 41.5459 44.1818 42.3939 43.806 43.065ZM45.7212 38.2051C45.4739 38.681 44.9891 38.9539 44.4873 38.9539C44.2691 38.9539 44.0509 38.904 43.8448 38.7961C41.3891 37.5171 38.737 36.7251 35.9564 36.4429C33.1539 36.1561 30.3782 36.4061 27.7018 37.1779C26.9624 37.3879 26.1915 36.9651 25.9806 36.2259C25.7673 35.488 26.1939 34.7171 26.9309 34.504C29.9515 33.633 33.0836 33.3539 36.2376 33.6739C39.3697 33.993 42.3612 34.8851 45.1321 36.329C45.8109 36.6841 46.0776 37.5239 45.7212 38.2051ZM46.4145 34.1619C46.2061 34.1619 45.9952 34.1149 45.7939 34.016C42.88 32.5629 39.7454 31.6579 36.4751 31.3261C33.2 30.991 29.9418 31.2499 26.7879 32.0921C26.0461 32.289 25.2848 31.849 25.0861 31.1059C24.8873 30.3639 25.3285 29.601 26.0727 29.4029C29.5515 28.4739 33.1491 28.191 36.7588 28.5581C40.3636 28.9229 43.8206 29.9219 47.0352 31.5251C47.7236 31.8679 48.0024 32.704 47.6606 33.391C47.4182 33.88 46.9261 34.1619 46.4145 34.1619Z" fill="#1ED760"/>
</svg>
