<svg width="150" height="32" viewBox="0 0 150 32" fill="none" xmlns="http://www.w3.org/2000/svg">
<path d="M17.05 5.67122L18.2435 4.4777C20.5873 2.13394 24.403 2.07593 26.7602 4.40619C27.6534 5.29113 28.247 6.43364 28.4576 7.67323C28.6681 8.91283 28.485 10.1872 27.9341 11.3175C27.6698 11.8574 27.5808 12.4663 27.6793 13.0593C27.778 13.6522 28.0593 14.1996 28.4841 14.6248C29.2653 13.8419 29.8844 12.9127 30.3062 11.8904C30.7281 10.8681 30.9445 9.77273 30.943 8.66679C30.9413 7.56087 30.722 6.46608 30.2972 5.44498C29.8724 4.42387 29.2505 3.49646 28.4672 2.71574C25.1711 -0.561871 19.8207 -0.496648 16.5337 2.79017L5.15746 14.1661L4.22223 13.2309C1.83872 10.8474 1.82353 6.9513 4.24909 4.61015C5.14692 3.74623 6.29078 3.18227 7.52279 2.99611C8.7548 2.80995 10.0142 3.01078 11.1272 3.57086C11.6352 3.83119 12.2125 3.92431 12.7766 3.83694C13.3407 3.74958 13.8628 3.48618 14.2682 3.08437L14.2972 3.05552C14.3063 3.04655 14.3134 3.03589 14.3183 3.02413C14.3232 3.01239 14.3257 2.99979 14.3257 2.98707C14.3257 2.97435 14.3232 2.96175 14.3183 2.95001C14.3134 2.93827 14.3063 2.9276 14.2972 2.91862C12.7315 1.39218 10.6332 0.534773 8.44651 0.527841C6.25981 0.520911 4.15616 1.36499 2.58074 2.88148C-0.812901 6.15756 -0.800774 11.6054 2.5347 14.9408L13.9076 26.3137L12.6995 27.5218C10.3557 29.8656 6.5399 29.9236 4.18279 27.5933C3.28959 26.7084 2.69602 25.5659 2.48545 24.3263C2.27489 23.0868 2.45789 21.8124 3.00876 20.6821C3.27305 20.1422 3.36212 19.5332 3.26355 18.9404C3.16496 18.3474 2.88364 17.7999 2.45888 17.3747C1.67778 18.1577 1.05859 19.0868 0.636689 20.109C0.214786 21.1314 -0.00155924 22.2267 8.45927e-06 23.3328C0.00157616 24.4387 0.221026 25.5335 0.645827 26.5545C1.07063 27.5757 1.69245 28.5031 2.47577 29.2838C5.7718 32.5616 11.1223 32.4965 14.4093 29.2095L25.8003 17.8184L26.739 18.7571C29.0828 21.1009 29.1408 24.9166 26.8106 27.2737C25.9257 28.167 24.7831 28.7605 23.5435 28.9712C22.304 29.1817 21.0296 28.9986 19.8993 28.4477C19.3592 28.1833 18.75 28.0941 18.1568 28.1929C17.5637 28.2916 17.0161 28.5732 16.5908 28.9983C17.3738 29.7795 18.3029 30.3987 19.3252 30.8206C20.3476 31.2425 21.4429 31.4589 22.5489 31.4574C23.6548 31.4557 24.7496 31.2362 25.7707 30.8114C26.7918 30.3866 27.7192 29.7648 28.4999 28.9815C31.7777 25.6854 31.7125 20.3349 28.4257 17.0481L17.05 5.67122ZM15.6059 24.6147L6.8562 15.865L15.3511 7.37027L24.1008 16.1199L15.6059 24.6147Z" fill="#ED5763"/>
<path d="M45.468 26.1468C43.7268 26.1468 42.3958 25.636 41.4749 24.6144C40.5612 23.5927 40.0504 22.1969 39.9424 20.427L42.7052 19.7363C42.8419 22.4991 43.7628 23.8805 45.468 23.8805C46.8494 23.8805 47.54 23.1898 47.54 21.8084C47.54 21.3983 47.4825 21.0206 47.3674 20.6753C47.2594 20.3227 47.0904 20.0026 46.8601 19.7148C46.6299 19.4198 46.4213 19.186 46.2342 19.0133C46.0471 18.8334 45.7917 18.614 45.468 18.355L42.0145 15.5922C41.3814 15.0958 40.8741 14.4662 40.4928 13.7036C40.1187 12.9338 39.9316 12.0596 39.9316 11.0811C39.9316 9.65656 40.3741 8.5234 41.2591 7.68162C42.144 6.83984 43.3168 6.41895 44.7773 6.41895C46.3457 6.41895 47.5904 6.80386 48.5113 7.5737C49.4394 8.33633 50.0114 9.41914 50.2273 10.8221C50.2488 10.9732 50.274 11.1818 50.3028 11.448L47.54 12.1387C47.5328 12.0164 47.5149 11.833 47.4861 11.5883C47.3638 10.7106 47.0868 10.0091 46.6551 9.48389C46.2306 8.95148 45.6047 8.68528 44.7773 8.68528C44.1154 8.68528 43.6045 8.87234 43.2448 9.24646C42.8851 9.61339 42.7052 10.1278 42.7052 10.7897C42.7052 11.8761 43.1657 12.7863 44.0866 13.5201L47.54 16.2829C49.3819 17.7722 50.3028 19.5529 50.3028 21.625C50.3028 23.0423 49.8639 24.1503 48.9862 24.9489C48.1156 25.7475 46.9429 26.1468 45.468 26.1468Z" fill="#ED5763"/>
<path d="M56.0766 23.8805C56.8032 23.8805 57.4939 23.6934 58.1486 23.3193V14.772C58.1199 14.7576 58.0479 14.7144 57.9328 14.6425C57.8177 14.5705 57.7349 14.5238 57.6846 14.5022C57.6414 14.4734 57.5659 14.4303 57.4579 14.3727C57.35 14.3151 57.2601 14.2756 57.1881 14.254C57.1234 14.2252 57.0371 14.1964 56.9291 14.1676C56.8284 14.1317 56.7277 14.1065 56.627 14.0921C56.5334 14.0777 56.4327 14.0705 56.3248 14.0705C56.0945 14.0705 55.8895 14.1245 55.7096 14.2324C55.537 14.3331 55.3931 14.4554 55.278 14.5993C55.1628 14.7432 55.0621 14.9483 54.9758 15.2145C54.8966 15.4807 54.8391 15.7181 54.8031 15.9267C54.7671 16.1282 54.7383 16.4016 54.7168 16.7469C54.6952 17.0851 54.6808 17.3477 54.6736 17.5348C54.6736 17.7218 54.6736 17.9844 54.6736 18.3226C54.6736 18.337 54.6736 18.3478 54.6736 18.355C54.6736 18.4773 54.6736 18.6751 54.6736 18.9485C54.6736 19.2219 54.6736 19.4845 54.6736 19.7363C54.6736 19.9882 54.6736 20.2256 54.6736 20.4486C54.6808 20.9307 54.7024 21.3552 54.7383 21.7221C54.7815 22.0818 54.8499 22.438 54.9434 22.7905C55.0441 23.1358 55.188 23.4056 55.3751 23.5999C55.5693 23.787 55.8032 23.8805 56.0766 23.8805ZM58.1486 30.0967V24.7115C57.7385 25.136 57.3141 25.4813 56.8752 25.7475C56.4435 26.0137 55.9471 26.1468 55.3859 26.1468C54.8535 26.1468 54.3786 26.0137 53.9613 25.7475C53.5512 25.4741 53.2203 25.1252 52.9684 24.7007C52.7238 24.2762 52.5188 23.7762 52.3533 23.2006C52.195 22.6178 52.0835 22.0458 52.0187 21.4847C51.9612 20.9235 51.9324 20.3407 51.9324 19.7363V17.6319C51.9324 17.006 51.9612 16.434 52.0187 15.916C52.0763 15.3979 52.1806 14.8871 52.3317 14.3835C52.4828 13.8799 52.6807 13.4554 52.9253 13.11C53.1771 12.7575 53.5081 12.4769 53.9182 12.2682C54.3282 12.0524 54.8031 11.9445 55.3427 11.9445C55.6521 11.9445 55.9399 11.9876 56.2061 12.074C56.4795 12.1531 56.7385 12.2826 56.9831 12.4625C57.2349 12.6424 57.4292 12.8006 57.5659 12.9373C57.7098 13.0669 57.904 13.2611 58.1486 13.5201V12.1387H60.9114V30.0967H58.1486Z" fill="#ED5763"/>
<path d="M65.0987 26.1468C64.4944 26.1468 64.0087 25.9346 63.6418 25.5101C63.2749 25.0784 63.0914 24.546 63.0914 23.9129V12.1387H65.8542V23.0711C65.8542 23.3589 65.9405 23.5927 66.1132 23.7726C66.293 23.9524 66.5233 24.0424 66.8039 24.0424C66.955 24.0424 67.1025 24.0244 67.2463 23.9884C67.3902 23.9524 67.5305 23.8913 67.6672 23.805C67.8111 23.7114 67.9226 23.6395 68.0018 23.5891C68.0809 23.5316 68.1924 23.438 68.3363 23.3085C68.4874 23.179 68.581 23.0999 68.6169 23.0711V12.1387H71.3797V25.9526H68.6169V24.4633C68.3435 24.7007 68.1421 24.8734 68.0126 24.9813C67.8903 25.0892 67.6996 25.2367 67.4406 25.4238C67.1816 25.6036 66.9514 25.7367 66.7499 25.8231C66.5557 25.9022 66.311 25.9742 66.0161 26.0389C65.7211 26.1109 65.4153 26.1468 65.0987 26.1468Z" fill="#ED5763"/>
<path d="M77.5743 23.8805C77.7686 23.8805 77.9557 23.8229 78.1355 23.7078C78.3226 23.5927 78.4629 23.4812 78.5564 23.3733C78.65 23.2654 78.7651 23.1215 78.9018 22.9416C78.9234 22.9056 78.9413 22.8804 78.9557 22.866V19.0457C78.8406 19.1248 78.65 19.2471 78.3838 19.4126C78.1175 19.5781 77.9053 19.7148 77.747 19.8227C77.5887 19.9234 77.3981 20.0673 77.175 20.2544C76.952 20.4342 76.7793 20.6105 76.657 20.7832C76.5347 20.9487 76.4268 21.1537 76.3333 21.3983C76.2397 21.6429 76.193 21.8984 76.193 22.1646C76.193 23.3085 76.6534 23.8805 77.5743 23.8805ZM76.193 26.1468C75.4231 26.1468 74.7684 25.8159 74.2288 25.154C73.6964 24.4849 73.4302 23.733 73.4302 22.8984C73.4302 22.2293 73.5417 21.6214 73.7647 21.0746C73.995 20.5278 74.236 20.0925 74.4878 19.7687C74.7396 19.4378 75.1605 19.0996 75.7505 18.7543C76.3405 18.4017 76.7865 18.1607 77.0887 18.0312C77.3909 17.9017 77.9161 17.6895 78.6643 17.3945C78.7938 17.3441 78.891 17.3045 78.9557 17.2758V16.2829C78.9557 15.585 78.8586 15.0454 78.6643 14.6641C78.4701 14.2756 78.1068 14.0813 77.5743 14.0813C77.0995 14.0813 76.7577 14.2468 76.5491 14.5777C76.3476 14.9015 76.2325 15.3512 76.2038 15.9267C76.1966 16.0059 76.193 16.1246 76.193 16.2829H73.4302C73.4446 14.9591 73.8151 13.905 74.5418 13.1208C75.2684 12.3366 76.2793 11.9445 77.5743 11.9445C78.8622 11.9445 79.8731 12.3438 80.6069 13.1424C81.348 13.9338 81.7185 14.9806 81.7185 16.2829V22.4991C81.7185 23.9381 81.8372 25.0892 82.0746 25.9526H79.3227L78.9557 23.8805C78.8118 24.1683 78.6931 24.3913 78.5996 24.5496C78.5133 24.7079 78.3838 24.9057 78.2111 25.1432C78.0384 25.3734 77.8657 25.5533 77.6931 25.6828C77.5204 25.8051 77.3045 25.913 77.0455 26.0065C76.7865 26.1001 76.5023 26.1468 76.193 26.1468Z" fill="#ED5763"/>
<path d="M84.1035 25.9526V12.1387H86.8663V13.9842C87.1469 13.4374 87.5534 12.9625 88.0858 12.5596C88.6254 12.1495 89.2226 11.9445 89.8773 11.9445C89.8989 11.9445 90.0464 11.9589 90.3198 11.9876V15.0418C89.8089 14.8403 89.2981 14.7396 88.7873 14.7396C88.2117 14.7396 87.7477 14.9123 87.3951 15.2576C87.0426 15.603 86.8663 16.0599 86.8663 16.6282V25.9526H84.1035Z" fill="#ED5763"/>
<path d="M95.392 26.1468C94.7229 26.1468 94.1402 26.0317 93.6437 25.8015C93.1545 25.5713 92.7624 25.2727 92.4674 24.9057C92.1796 24.5316 91.9458 24.0568 91.7659 23.4812C91.586 22.8984 91.4601 22.3192 91.3882 21.7437C91.3234 21.1609 91.2839 20.4846 91.2695 19.7148C91.2479 19.1104 91.2479 18.5061 91.2695 17.9017C91.2911 17.1822 91.3378 16.5455 91.4098 15.9915C91.4889 15.4303 91.622 14.8871 91.8091 14.3619C91.9961 13.8367 92.2372 13.405 92.5321 13.0669C92.8343 12.7287 93.2264 12.4589 93.7085 12.2574C94.1977 12.0488 94.7661 11.9445 95.4136 11.9445C96.0036 11.9445 96.5216 12.0236 96.9677 12.1819C97.4209 12.333 97.7951 12.5668 98.0901 12.8834C98.3922 13.1928 98.6404 13.5381 98.8347 13.9194C99.0362 14.3007 99.1872 14.7648 99.288 15.3116C99.3887 15.8512 99.457 16.3836 99.493 16.9088C99.5362 17.434 99.5578 18.0384 99.5578 18.7219V19.0457H94.0322V19.7363C94.0322 19.8299 94.0322 19.9774 94.0322 20.1788C94.0178 20.445 94.0143 20.722 94.0214 21.0098C94.0358 21.2904 94.0502 21.5674 94.0646 21.8408C94.079 22.1142 94.1186 22.3768 94.1833 22.6286C94.2481 22.8732 94.3272 23.0891 94.4208 23.2761C94.5143 23.4632 94.6438 23.6107 94.8093 23.7186C94.9819 23.8265 95.1834 23.8805 95.4136 23.8805C95.7014 23.8805 95.9388 23.8265 96.1259 23.7186C96.313 23.6035 96.4497 23.4344 96.536 23.2114C96.6295 22.9884 96.6943 22.7653 96.7303 22.5423C96.7662 22.3192 96.7878 22.0387 96.795 21.7005V21.1177H99.5362V21.6681C99.4714 23.143 99.1081 24.2582 98.4462 25.0137C97.7843 25.7691 96.7662 26.1468 95.392 26.1468ZM94.0322 17.6643H96.7734V16.8333C96.7662 16.4664 96.7446 16.1462 96.7087 15.8728C96.6727 15.5994 96.6079 15.326 96.5144 15.0526C96.4281 14.7792 96.2914 14.5705 96.1043 14.4267C95.9173 14.2828 95.687 14.2108 95.4136 14.2108C95.133 14.2108 94.8956 14.2864 94.7013 14.4374C94.5143 14.5885 94.374 14.808 94.2805 15.0958C94.1941 15.3764 94.133 15.6534 94.097 15.9267C94.061 16.2001 94.0394 16.5275 94.0322 16.9088V17.6643Z" fill="#ED5763"/>
<path d="M106.724 26.1468C104.983 26.1468 103.652 25.636 102.731 24.6144C101.817 23.5927 101.306 22.1969 101.198 20.427L103.961 19.7363C104.098 22.4991 105.019 23.8805 106.724 23.8805C108.105 23.8805 108.796 23.1898 108.796 21.8084C108.796 21.3983 108.738 21.0206 108.623 20.6753C108.515 20.3227 108.346 20.0026 108.116 19.7148C107.886 19.4198 107.677 19.186 107.49 19.0133C107.303 18.8334 107.047 18.614 106.724 18.355L103.27 15.5922C102.637 15.0958 102.13 14.4662 101.749 13.7036C101.374 12.9338 101.187 12.0596 101.187 11.0811C101.187 9.65656 101.63 8.5234 102.515 7.68162C103.4 6.83984 104.572 6.41895 106.033 6.41895C107.601 6.41895 108.846 6.80386 109.767 7.5737C110.695 8.33633 111.267 9.41914 111.483 10.8221C111.505 10.9732 111.53 11.1818 111.559 11.448L108.796 12.1387C108.789 12.0164 108.771 11.833 108.742 11.5883C108.62 10.7106 108.343 10.0091 107.911 9.48389C107.486 8.95148 106.86 8.68528 106.033 8.68528C105.371 8.68528 104.86 8.87234 104.501 9.24646C104.141 9.61339 103.961 10.1278 103.961 10.7897C103.961 11.8761 104.421 12.7863 105.342 13.5201L108.796 16.2829C110.638 17.7722 111.559 19.5529 111.559 21.625C111.559 23.0423 111.12 24.1503 110.242 24.9489C109.371 25.7475 108.199 26.1468 106.724 26.1468Z" fill="#ED5763"/>
<path d="M117.289 26.1468C116.203 26.1468 115.411 25.8698 114.915 25.3158C114.426 24.7618 114.174 23.9237 114.159 22.8013V14.2108H112.778V12.1387H114.159V7.30389H116.922V12.1387H118.994V14.2108H116.922V22.2725C116.922 22.8265 116.998 23.233 117.149 23.492C117.3 23.751 117.606 23.8805 118.066 23.8805C118.268 23.8805 118.577 23.8445 118.994 23.7726V26.0173C118.304 26.1037 117.735 26.1468 117.289 26.1468Z" fill="#ED5763"/>
<path d="M127.995 24.8518C127.355 25.7151 126.293 26.1468 124.811 26.1468C123.329 26.1468 122.268 25.7151 121.628 24.8518C120.987 23.9884 120.667 22.7437 120.667 21.1177V16.9736C120.667 15.3476 120.987 14.1029 121.628 13.2395C122.268 12.3762 123.329 11.9445 124.811 11.9445C126.293 11.9445 127.355 12.3762 127.995 13.2395C128.635 14.1029 128.955 15.3476 128.955 16.9736V21.1177C128.955 22.7437 128.635 23.9884 127.995 24.8518ZM124.293 23.7942C124.444 23.8517 124.617 23.8805 124.811 23.8805C125.005 23.8805 125.175 23.8517 125.318 23.7942C125.47 23.7366 125.592 23.6683 125.685 23.5891C125.786 23.5028 125.869 23.3805 125.934 23.2222C125.998 23.0567 126.049 22.9128 126.085 22.7905C126.121 22.6682 126.146 22.4919 126.16 22.2617C126.175 22.0315 126.182 21.8516 126.182 21.7221C126.189 21.5854 126.193 21.3839 126.193 21.1177V16.9736C126.193 16.7074 126.189 16.5095 126.182 16.38C126.182 16.2433 126.175 16.0599 126.16 15.8296C126.146 15.5994 126.121 15.4231 126.085 15.3008C126.049 15.1785 125.998 15.0382 125.934 14.8799C125.869 14.7144 125.786 14.5921 125.685 14.513C125.592 14.4267 125.47 14.3547 125.318 14.2971C125.175 14.2396 125.005 14.2108 124.811 14.2108C124.617 14.2108 124.444 14.2396 124.293 14.2971C124.149 14.3547 124.027 14.4267 123.926 14.513C123.833 14.5921 123.754 14.7144 123.689 14.8799C123.624 15.0382 123.574 15.1785 123.538 15.3008C123.502 15.4231 123.477 15.5994 123.462 15.8296C123.448 16.0599 123.437 16.2433 123.43 16.38C123.43 16.5095 123.43 16.7074 123.43 16.9736V21.1177C123.43 21.3839 123.43 21.5854 123.43 21.7221C123.437 21.8516 123.448 22.0315 123.462 22.2617C123.477 22.4919 123.502 22.6682 123.538 22.7905C123.574 22.9128 123.624 23.0567 123.689 23.2222C123.754 23.3805 123.833 23.5028 123.926 23.5891C124.027 23.6683 124.149 23.7366 124.293 23.7942Z" fill="#ED5763"/>
<path d="M131.222 25.9526V12.1387H133.984V13.628C134.395 13.2539 134.729 12.9697 134.988 12.7755C135.247 12.574 135.603 12.387 136.057 12.2143C136.517 12.0344 137.006 11.9445 137.524 11.9445C138.114 11.9445 138.593 12.1603 138.96 12.592C139.327 13.0237 139.51 13.5525 139.51 14.1784V25.9526H136.747V15.5922C136.747 15.1102 136.679 14.7612 136.542 14.5454C136.405 14.3223 136.128 14.2108 135.711 14.2108C135.474 14.2108 135.236 14.2612 134.999 14.3619C134.769 14.4554 134.596 14.5454 134.481 14.6317C134.366 14.7108 134.2 14.8403 133.984 15.0202V25.9526H131.222Z" fill="#ED5763"/>
<path d="M145.834 26.1468C145.165 26.1468 144.582 26.0317 144.086 25.8015C143.597 25.5713 143.204 25.2727 142.909 24.9057C142.622 24.5316 142.388 24.0568 142.208 23.4812C142.028 22.8984 141.902 22.3192 141.83 21.7437C141.766 21.1609 141.726 20.4846 141.712 19.7148C141.69 19.1104 141.69 18.5061 141.712 17.9017C141.733 17.1822 141.78 16.5455 141.852 15.9915C141.931 15.4303 142.064 14.8871 142.251 14.3619C142.438 13.8367 142.679 13.405 142.974 13.0669C143.276 12.7287 143.669 12.4589 144.151 12.2574C144.64 12.0488 145.208 11.9445 145.856 11.9445C146.446 11.9445 146.964 12.0236 147.41 12.1819C147.863 12.333 148.237 12.5668 148.532 12.8834C148.834 13.1928 149.083 13.5381 149.277 13.9194C149.478 14.3007 149.629 14.7648 149.73 15.3116C149.831 15.8512 149.899 16.3836 149.935 16.9088C149.978 17.434 150 18.0384 150 18.7219V19.0457H144.474V19.7363C144.474 19.8299 144.474 19.9774 144.474 20.1788C144.46 20.445 144.456 20.722 144.464 21.0098C144.478 21.2904 144.492 21.5674 144.507 21.8408C144.521 22.1142 144.561 22.3768 144.625 22.6286C144.69 22.8732 144.769 23.0891 144.863 23.2761C144.956 23.4632 145.086 23.6107 145.251 23.7186C145.424 23.8265 145.625 23.8805 145.856 23.8805C146.144 23.8805 146.381 23.8265 146.568 23.7186C146.755 23.6035 146.892 23.4344 146.978 23.2114C147.072 22.9884 147.136 22.7653 147.172 22.5423C147.208 22.3192 147.23 22.0387 147.237 21.7005V21.1177H149.978V21.6681C149.914 23.143 149.55 24.2582 148.888 25.0137C148.226 25.7691 147.208 26.1468 145.834 26.1468ZM144.474 17.6643H147.216V16.8333C147.208 16.4664 147.187 16.1462 147.151 15.8728C147.115 15.5994 147.05 15.326 146.956 15.0526C146.87 14.7792 146.733 14.5705 146.546 14.4267C146.359 14.2828 146.129 14.2108 145.856 14.2108C145.575 14.2108 145.338 14.2864 145.143 14.4374C144.956 14.5885 144.816 14.808 144.723 15.0958C144.636 15.3764 144.575 15.6534 144.539 15.9267C144.503 16.2001 144.482 16.5275 144.474 16.9088V17.6643Z" fill="#ED5763"/>
</svg>
