<svg width="98" height="30" viewBox="0 0 98 30" fill="none" xmlns="http://www.w3.org/2000/svg">
<path d="M9.80682 29.6317C9.28541 29.6317 9.02416 29.3992 9.02416 28.9319V28.7851C9.02416 28.4917 9.26265 28.0492 9.73852 27.46C10.2372 26.8472 10.4865 26.2331 10.4865 25.6203V6.263H8.68379C8.16238 6.263 7.6865 6.49664 7.25507 6.9628C6.85149 7.42165 6.51872 7.94291 6.26862 8.50799C6.04098 9.04751 5.75914 9.55091 5.41876 10.0171C5.07839 10.4832 4.73801 10.7169 4.39763 10.7169H3.81986C3.18463 10.7169 2.90062 10.3602 2.96891 9.64911L3.64967 4.64331C3.71688 3.8837 4.10278 3.50332 4.8063 3.50332H22.2913C22.971 3.50332 23.3569 3.8837 23.4468 4.64331L24.1623 9.68523C24.2067 10.0047 24.1504 10.262 23.991 10.4584C23.8328 10.63 23.6062 10.7157 23.3113 10.7157H22.7325C22.3932 10.7157 22.0528 10.4832 21.7124 10.0159C21.3721 9.54866 21.0772 9.04751 20.8279 8.50799C20.5786 7.94364 20.2382 7.42895 19.8078 6.96167C19.3764 6.49664 18.9005 6.263 18.3791 6.263H16.61V25.6203C16.61 26.2331 16.8485 26.8472 17.3244 27.46C17.823 28.0492 18.0724 28.4906 18.0724 28.7851V28.9319C18.0724 29.3992 17.8014 29.6317 17.2561 29.6317H9.80682ZM38.6067 25.6203C38.6749 26.2094 38.7996 26.688 38.9806 27.056C39.1855 27.3991 39.3774 27.6203 39.5595 27.7185C39.7633 27.8167 39.9443 27.9386 40.1037 28.0865C40.2619 28.2332 40.3421 28.4172 40.3421 28.6384C40.3421 29.4477 39.0609 29.8529 36.4983 29.8529C35.4544 29.8529 34.6717 29.7175 34.1503 29.4466C33.6517 29.1779 33.3341 28.7242 33.1986 28.0865C32.3357 29.3619 30.8961 29.9996 28.8777 29.9996C26.9731 29.9996 25.4197 29.5211 24.2165 28.5639C23.0382 27.6079 22.4496 26.2219 22.4496 24.4058C22.4496 22.6394 23.0382 21.2657 24.2165 20.2838C25.397 19.2792 26.8485 18.7758 28.572 18.7758C29.9097 18.7758 31.0544 19.0817 32.0083 19.6957V19.5851C31.7807 17.1561 31.5205 15.5127 31.2246 14.6527C30.9536 13.7948 30.4083 13.3659 29.5921 13.3659C29.0707 13.3659 28.6512 13.6233 28.3335 14.138C28.013 14.6606 27.772 15.2317 27.6192 15.831C27.4785 16.4543 27.1989 17.0343 26.8029 17.5241C26.3943 18.0399 25.8501 18.2972 25.1704 18.2972C24.4669 18.2972 23.8891 18.076 23.436 17.6347C23.0046 17.1934 22.7889 16.6166 22.7889 15.9055C22.7889 14.4822 23.4468 13.4145 24.7617 12.7034C26.0766 11.9675 27.6875 11.5995 29.5921 11.5995C31.8598 11.5995 33.7308 12.2733 35.205 13.6233C36.701 14.9484 37.5866 16.7509 37.8587 19.0331L38.6067 25.6203ZM30.7487 28.1226C31.2701 28.1226 31.6896 27.8528 32.0072 27.3133C32.3476 26.7738 32.5167 26.1598 32.5167 25.4735L32.3812 23.7805C32.1547 21.7443 31.4522 20.7262 30.2728 20.7262C29.7514 20.7262 29.3319 20.9587 29.0143 21.426C28.6967 21.8662 28.5373 22.4678 28.5373 23.2285C28.5373 24.6022 28.7303 25.7681 29.1162 26.7241C29.5238 27.6564 30.069 28.1237 30.7487 28.1237V28.1226ZM41.8316 29.6317C41.3091 29.6317 41.0489 29.3992 41.0489 28.9319V28.7851C41.0489 28.4917 41.2635 28.0492 41.695 27.46C42.1481 26.8472 42.3747 26.2331 42.3747 25.6203V8.80258C42.3747 8.16487 42.1481 7.55085 41.695 6.9628C41.2635 6.34878 41.0489 5.91988 41.0489 5.67382V5.52709C41.0489 5.2562 41.2982 4.97402 41.7969 4.68056L46.9329 1.957C47.4099 1.7369 47.7838 1.72449 48.0559 1.92088C48.3508 2.09244 48.4982 2.3622 48.4982 2.73016V25.6203C48.4982 26.2331 48.7475 26.8472 49.2462 27.46C49.7448 28.0492 49.9941 28.4906 49.9941 28.7851V28.9319C49.9941 29.3992 49.7231 29.6317 49.179 29.6317H41.8316ZM69.5452 26.5402C69.659 26.7117 69.9994 27.0311 70.5664 27.4973C71.1561 27.9634 71.4509 28.3924 71.4509 28.7851V28.9319C71.4509 29.3992 71.1908 29.6317 70.6683 29.6317H63.5247C63.0033 29.6317 62.742 29.3867 62.742 28.8958V28.7851C62.742 28.4917 62.9122 28.135 63.2526 27.7174C63.593 27.2772 63.6613 26.8833 63.4564 26.5402L60.4634 21.7195L58.7616 23.4125V25.6203C58.7616 26.2331 59.0109 26.8472 59.5106 27.46C60.032 28.0492 60.2933 28.4906 60.2933 28.7851V28.9319C60.2933 29.3992 60.0212 29.6317 59.477 29.6317H52.1285C51.5844 29.6317 51.3123 29.3992 51.3123 28.9319V28.7851C51.3123 28.4917 51.5399 28.0492 51.993 27.46C52.4461 26.8472 52.6738 26.2331 52.6738 25.6203V8.80258C52.6738 8.16487 52.4006 7.55085 51.8564 6.9628C51.3123 6.34878 51.0402 5.91988 51.0402 5.67382V5.52709C51.0402 5.2562 51.2895 4.97402 51.7882 4.68056L57.2331 1.957C57.709 1.76061 58.083 1.74932 58.3551 1.92088C58.6271 2.09244 58.7637 2.3622 58.7637 2.73016V20.2104L63.3556 15.9416C63.6277 15.7452 63.7295 15.5003 63.6623 15.2057C63.6209 14.9198 63.5029 14.6519 63.322 14.4326C63.1448 14.1598 62.9634 13.89 62.7778 13.6233C62.5957 13.3298 62.5057 13.0702 62.5057 12.8501V12.7034C62.5057 12.2124 62.7659 11.9675 63.2873 11.9675H68.6629C69.1832 11.9675 69.4444 12.2 69.4444 12.6673V12.814C69.4444 13.1075 69.2862 13.4145 68.9685 13.7339C68.6509 14.0273 68.1978 14.384 67.6081 14.8005C67.1238 15.1258 66.6686 15.4956 66.2477 15.9055L64.0699 18.076L69.5452 26.5402ZM76.4048 9.79584C75.2482 9.79584 74.3073 9.45272 73.581 8.76534C72.8547 8.05425 72.4926 7.17048 72.4926 6.11627C72.4926 5.06093 72.8558 4.18957 73.581 3.50332C74.3073 2.79224 75.2482 2.43557 76.4048 2.43557C77.5387 2.43557 78.4688 2.79111 79.194 3.50332C79.9202 4.18957 80.2823 5.06093 80.2823 6.11627C80.2823 7.17048 79.9202 8.05425 79.194 8.76534C78.4677 9.45272 77.5387 9.79584 76.4048 9.79584ZM72.7647 29.6317C72.2206 29.6317 71.9485 29.3992 71.9485 28.9319V28.7851C71.9485 28.4917 72.1761 28.0368 72.6292 27.4239C73.0823 26.811 73.3089 26.197 73.3089 25.5841V18.5918C73.3089 17.9541 73.0823 17.3401 72.6292 16.752C72.175 16.138 71.9485 15.7204 71.9485 15.4992V15.3524C71.9485 15.059 72.2086 14.7768 72.7311 14.5059L77.8671 11.7835C78.3441 11.5623 78.7181 11.5374 78.9902 11.7101C79.2623 11.8817 79.3988 12.1639 79.3988 12.5566V25.5841C79.3988 26.197 79.6482 26.8099 80.1468 27.4239C80.6682 28.0368 80.9295 28.4906 80.9295 28.7851V28.9319C80.9295 29.398 80.6454 29.6317 80.0785 29.6317H72.7647ZM89.4519 29.9996C87.7283 29.9996 86.369 29.4104 85.3706 28.2332C84.395 27.056 83.9072 25.3753 83.9072 23.1913V14.4698H82.6151C82.4025 14.4749 82.196 14.3959 82.0373 14.2486C81.8995 14.0723 81.8268 13.8505 81.8324 13.6233V12.814C81.8324 12.2496 82.0937 11.9675 82.6151 11.9675H83.2611C84.305 11.9675 85.2015 11.6356 85.9495 10.9742C86.6974 10.2857 87.1852 9.37935 87.4118 8.25065C87.5256 7.61293 87.8313 7.29351 88.3299 7.29351H89.1126C89.7251 7.29351 90.0308 7.61293 90.0308 8.25065V11.9675H93.5353C93.7619 11.9675 93.9429 12.0532 94.0795 12.2248C94.2378 12.3715 94.318 12.5679 94.318 12.814V13.6233C94.3202 13.7388 94.3002 13.8536 94.2592 13.9609C94.2183 14.0683 94.1572 14.1661 94.0795 14.2486C94.0087 14.3229 93.9236 14.3811 93.8299 14.4192C93.7362 14.4573 93.6358 14.4745 93.5353 14.4698H90.0308V23.3019C90.0308 23.9148 90.1782 24.4058 90.473 24.7737C90.7679 25.118 91.131 25.2895 91.5614 25.2895C92.537 25.2895 93.2849 24.8358 93.8074 23.9272C93.9657 23.7071 94.1467 23.5841 94.3516 23.5592C94.5554 23.5107 94.7256 23.548 94.8611 23.6699C95.0204 23.7929 95.0996 23.9633 95.0996 24.1857C95.0996 25.7309 94.5901 27.0921 93.5689 28.2705C92.5717 29.4229 91.1993 29.9996 89.4519 29.9996Z" fill="#37A6A8"/>
</svg>
