<svg width="159" height="24" viewBox="0 0 159 24" fill="none" xmlns="http://www.w3.org/2000/svg">
<g clip-path="url(#clip0_657_649)">
<path d="M135.837 9.5232V23.9856H139.831V14.344H154.436V23.9856H158.429V9.5232H135.837ZM139.375 4.83448H154.778C156.946 4.37221 158.486 2.1269 158.943 0.0136719H135.21C135.666 2.1269 137.264 4.30617 139.375 4.83448ZM123.686 23.9856C125.682 22.995 126.766 21.278 127.223 19.2969H109.252V0.0797103H105.201V23.9856H123.686ZM75.2497 4.76844H89.5123C91.6802 4.04202 93.4488 2.1269 93.9052 0.0797103H71.3132V14.2119H89.7976V19.1648H75.3067C73.0247 19.8912 71.085 21.6743 70.1151 23.9856H93.7911V9.5232H75.3067L75.2497 4.76844ZM40.1065 4.83448H55.5102C57.6781 4.37221 59.2755 2.1269 59.6749 0.0136719H35.8848C36.3412 2.1269 37.9386 4.30617 40.1065 4.83448ZM40.1065 14.278H55.5102C57.6781 13.8157 59.2755 11.5704 59.6749 9.45716H35.8848C36.3412 11.5704 37.9386 13.7497 40.1065 14.278ZM40.1065 23.9856H55.5102C57.6781 23.5233 59.2755 21.278 59.6749 19.1648H35.8848C36.3412 21.278 37.9386 23.5233 40.1065 23.9856Z" fill="#9D60ED"/>
<path d="M0 0.0797103C0.456405 2.19294 2.05382 4.30617 4.16469 4.83448H10.6685L11.0108 4.96655V23.9196H15.0614V4.96655L15.4037 4.83448H21.9074C24.0753 4.17409 25.6157 2.19294 26.0721 0.0797103V0.0136719L0 0.0797103Z" fill="#9D60ED"/>
</g>
<defs>
<clipPath id="clip0_657_649">
<rect width="159" height="24" fill="white"/>
</clipPath>
</defs>
</svg>
