<svg width="141" height="28" viewBox="0 0 141 28" fill="none" xmlns="http://www.w3.org/2000/svg">
<path d="M4.77009 6.39089L6.39851 7.2051C6.69826 7.33602 7.02443 7.39501 7.35101 7.37735C7.67759 7.35968 7.9955 7.26584 8.27933 7.10332L9.81823 6.10184C10.083 5.90965 10.2985 5.65745 10.4471 5.36592C10.5957 5.0744 10.6732 4.75181 10.6731 4.42457L10.5754 2.58853C10.5398 2.26395 10.4284 1.95223 10.2502 1.67857C10.072 1.40492 9.83199 1.17694 9.5495 1.01304L7.92108 0.178474C7.62194 0.0460018 7.29577 -0.014168 6.96903 0.00280825C6.64229 0.0197845 6.32409 0.113418 6.04026 0.276179L4.50144 1.27766C4.23711 1.47034 4.02192 1.72262 3.8734 2.01407C3.72485 2.30547 3.6471 2.62786 3.64648 2.95493L3.74419 4.79097C3.77582 5.11999 3.88537 5.43672 4.06377 5.71493C4.24216 5.99319 4.4843 6.22491 4.77009 6.39089Z" fill="#3EB4B4"/>
<path d="M14.593 8.76858L12.9645 7.93402C12.6655 7.80313 12.34 7.74418 12.0141 7.76185C11.6882 7.77952 11.3709 7.87336 11.0878 8.03579L9.53265 9.03727C9.2693 9.23085 9.05479 9.48333 8.90636 9.77458C8.75793 10.0658 8.67961 10.3877 8.67773 10.7145L8.77548 12.5506C8.8111 12.8752 8.92249 13.1869 9.10068 13.4606C9.27891 13.7342 9.51889 13.9622 9.80134 14.1261L11.4298 14.9403C11.7282 15.0727 12.0537 15.1329 12.3799 15.116C12.706 15.099 13.0234 15.0053 13.3065 14.8426L14.8494 13.8411C15.1129 13.6467 15.3274 13.3935 15.4758 13.1016C15.6242 12.8097 15.7025 12.4872 15.7044 12.1598L15.6067 10.3278C15.5693 10.0074 15.4584 9.69987 15.2826 9.42939C15.1067 9.15891 14.8707 8.93277 14.593 8.76858Z" fill="#3EB4B4"/>
<path d="M19.6179 16.5113L17.9894 15.6971C17.6903 15.5646 17.3641 15.5044 17.0374 15.5214C16.7106 15.5383 16.3925 15.632 16.1086 15.7948L14.5698 16.7963C14.3059 16.9893 14.0911 17.2417 13.9426 17.5331C13.7941 17.8244 13.7161 18.1465 13.7148 18.4735L13.8126 20.3096C13.8516 20.6289 13.9637 20.935 14.1402 21.204C14.3167 21.473 14.5529 21.6977 14.8304 21.8606L16.4588 22.6748C16.7585 22.8057 17.0847 22.8647 17.4112 22.847C17.7378 22.8294 18.0557 22.7355 18.3396 22.5731L19.8825 21.5716C20.1461 21.3785 20.3605 21.126 20.5083 20.8346C20.6561 20.5432 20.7332 20.2211 20.7334 19.8943L20.6478 18.0908C20.6127 17.765 20.5011 17.4521 20.3221 17.1776C20.1431 16.9032 19.9018 16.6748 19.6179 16.5113Z" fill="#3EB4B4"/>
<path d="M7.61957 11.9517L7.54222 10.5228C7.5441 10.1959 7.62238 9.87401 7.77085 9.5828C7.91928 9.29156 8.13375 9.03907 8.39714 8.8455L11.3975 6.89547C11.6806 6.73303 11.9979 6.63919 12.3238 6.62152C12.6497 6.60386 12.9752 6.66285 13.2743 6.79369L14.5526 7.44506C14.8517 7.57753 15.1779 7.63774 15.5046 7.62076C15.8314 7.60379 16.1496 7.51011 16.4334 7.34735L17.9722 6.3418C18.2363 6.14892 18.4513 5.89659 18.5998 5.60519C18.7483 5.31382 18.8262 4.9916 18.8272 4.66453L18.7295 2.83256C18.6944 2.50724 18.5833 2.19471 18.4051 1.92032C18.2268 1.64589 17.9865 1.4173 17.7036 1.253L16.0751 0.418431C15.7754 0.287547 15.4493 0.228557 15.1226 0.246226C14.7961 0.263894 14.4781 0.357732 14.1943 0.520207L12.6229 1.5054C12.3593 1.69853 12.1449 1.95102 11.9971 2.24242C11.8493 2.53383 11.7722 2.85593 11.772 3.18267L11.8453 4.61161C11.8452 4.93839 11.768 5.26049 11.6202 5.5519C11.4724 5.8433 11.258 6.09579 10.9945 6.28888L7.99411 8.23891C7.71028 8.40167 7.39213 8.49535 7.06538 8.51232C6.7386 8.5293 6.41247 8.46909 6.11329 8.33662L4.83905 7.68932C4.53987 7.55685 4.21374 7.49668 3.88696 7.51365C3.56021 7.53063 3.24206 7.62426 2.95823 7.78702L1.41937 8.7885C1.15504 8.98118 0.939885 9.23347 0.791333 9.52491C0.64278 9.81636 0.565064 10.1387 0.564453 10.4658L0.662157 12.3018C0.696843 12.6273 0.80786 12.9399 0.98609 13.2144C1.16436 13.4888 1.40484 13.7174 1.68806 13.8814L3.31648 14.6956C3.61619 14.8265 3.94236 14.8855 4.26894 14.8678C4.59552 14.8502 4.91347 14.7563 5.1973 14.5938L6.73616 13.5923C7.00061 13.4062 7.21805 13.161 7.3714 12.8762C7.52472 12.5915 7.60968 12.275 7.61957 11.9517Z" fill="#3EB4B4"/>
<path d="M23.7366 10.5764C23.7003 10.2514 23.5887 9.93942 23.4106 9.66519C23.2325 9.39096 22.9928 9.16209 22.7107 8.99685L21.0823 8.18264C20.7825 8.05204 20.4563 7.99321 20.1298 8.01088C19.8033 8.02855 19.4854 8.12222 19.2015 8.28441L17.6626 9.28589C17.3987 9.47902 17.1839 9.73139 17.0354 10.0227C16.887 10.314 16.8089 10.6362 16.8077 10.9632L16.885 12.3962C16.8838 12.7231 16.8058 13.0453 16.6573 13.3366C16.5088 13.6279 16.294 13.8803 16.0301 14.0734L13.0338 16.0194C12.75 16.1819 12.4321 16.2757 12.1055 16.2934C11.7789 16.3111 11.4527 16.2521 11.153 16.1212L9.87466 15.4698C9.57564 15.3389 9.25012 15.2799 8.92419 15.2976C8.59826 15.3153 8.28105 15.4091 7.99791 15.5716L6.44277 16.569C6.17941 16.7626 5.96495 17.015 5.81648 17.3063C5.66805 17.5975 5.58976 17.9194 5.58789 18.2463L5.68555 20.0823C5.72122 20.4069 5.8326 20.7186 6.01079 20.9923C6.18902 21.2659 6.42901 21.4939 6.7115 21.6578L8.33992 22.4924C8.63836 22.6248 8.96385 22.685 9.28994 22.668C9.61607 22.651 9.93353 22.5573 10.2167 22.3946L11.7596 21.3931C12.0227 21.1994 12.237 20.9468 12.3854 20.6557C12.5339 20.3645 12.6123 20.0427 12.6145 19.7159L12.5372 18.2829C12.5381 17.9558 12.6159 17.6336 12.7645 17.3422C12.913 17.0508 13.128 16.7985 13.392 16.6056L16.3883 14.6556C16.6722 14.4928 16.9904 14.3992 17.3171 14.3822C17.6438 14.3652 17.97 14.4254 18.2692 14.5579L19.5434 15.2052C19.8426 15.3377 20.1687 15.3978 20.4955 15.3809C20.8222 15.3639 21.1404 15.2702 21.4242 15.1075L22.9672 14.106C23.2305 13.9126 23.4447 13.6601 23.5925 13.3688C23.7403 13.0774 23.8175 12.7554 23.818 12.4287L23.7366 10.5764Z" fill="#3EB4B4"/>
<path d="M29.2031 3.23669H35.3061L38.1686 14.8215L41.031 3.23669H47.404L41.5981 21.8157H34.712L29.2031 3.23669Z" fill="#3EB4B4"/>
<path d="M53.3956 22.0317C51.8834 22.0317 50.7042 21.5456 49.858 20.5735C49.0119 19.6013 48.5888 18.2781 48.5888 16.6038V8.28649H54.3138V16.3608C54.3138 16.7748 54.4218 17.0989 54.6378 17.3329C54.8718 17.549 55.1689 17.657 55.5289 17.657C55.889 17.657 56.2581 17.549 56.6361 17.3329L56.9332 21.0865C56.5371 21.3926 56.015 21.6266 55.3669 21.7886C54.7368 21.9507 54.0797 22.0317 53.3956 22.0317ZM51.4513 6.26117C50.6052 6.26117 49.885 6.00013 49.291 5.47805C48.7149 4.93796 48.4268 4.28086 48.4268 3.50673C48.4268 2.73261 48.7329 2.08451 49.345 1.56242C49.9571 1.04034 50.6592 0.779297 51.4513 0.779297C52.2794 0.779297 52.9905 1.04934 53.5846 1.58943C54.1967 2.12951 54.5028 2.76861 54.5028 3.50673C54.5028 4.29886 54.1967 4.95596 53.5846 5.47805C52.9725 6.00013 52.2614 6.26117 51.4513 6.26117Z" fill="#3EB4B4"/>
<path d="M58.5058 8.47552H64.2037V11.23C64.6177 10.1678 65.1758 9.38467 65.8779 8.88059C66.598 8.35851 67.4352 8.09746 68.3893 8.09746L69.1725 12.4992C67.4622 12.4992 66.202 12.6882 65.3918 13.0663C64.5997 13.4263 64.2037 14.0024 64.2037 14.7945V21.8157H58.5058V8.47552Z" fill="#3EB4B4"/>
<path d="M77.6596 22.0317C76.1474 22.0317 74.7972 21.7346 73.609 21.1405C72.4388 20.5464 71.5206 19.7273 70.8545 18.6832C70.2064 17.621 69.8824 16.4058 69.8824 15.0376C69.8824 13.6694 70.2154 12.4632 70.8815 11.419C71.5476 10.3568 72.4658 9.53769 73.636 8.9616C74.8242 8.38551 76.1744 8.09746 77.6866 8.09746C79.2169 8.09746 80.5671 8.39451 81.7373 8.98861C82.9255 9.5647 83.8436 10.3748 84.4917 11.419C85.1398 12.4632 85.4639 13.6694 85.4639 15.0376C85.4639 16.4238 85.1308 17.648 84.4647 18.7102C83.8166 19.7543 82.8984 20.5735 81.7103 21.1675C80.5401 21.7436 79.1899 22.0317 77.6596 22.0317ZM77.7136 17.981C78.4517 17.981 79.0548 17.711 79.5229 17.1709C80.009 16.6128 80.252 15.9017 80.252 15.0376C80.252 14.1734 80.009 13.4713 79.5229 12.9312C79.0548 12.3731 78.4517 12.0941 77.7136 12.0941C76.9755 12.0941 76.3634 12.3731 75.8773 12.9312C75.4093 13.4713 75.1752 14.1734 75.1752 15.0376C75.1752 15.9017 75.4093 16.6128 75.8773 17.1709C76.3634 17.711 76.9755 17.981 77.7136 17.981Z" fill="#3EB4B4"/>
<path d="M95.1301 27.9996C94.14 27.9996 93.1948 27.9006 92.2947 27.7026L92.7268 23.706C93.4289 23.814 94.077 23.868 94.6711 23.868C95.7872 23.868 96.6334 23.5349 97.2095 22.8688C97.7856 22.2207 98.1276 21.1225 98.2356 19.5743C97.1735 21.0685 95.5532 21.8157 93.3749 21.8157C92.1867 21.8157 91.0885 21.5096 90.0803 20.8975C89.0902 20.2854 88.298 19.4573 87.7039 18.4131C87.1279 17.3689 86.8398 16.2258 86.8398 14.9836C86.8398 13.7234 87.1279 12.5712 87.7039 11.527C88.28 10.4648 89.0632 9.62771 90.0533 9.01561C91.0615 8.40351 92.1597 8.09746 93.3478 8.09746C94.446 8.09746 95.4002 8.38551 96.2103 8.9616C97.0384 9.51969 97.5785 10.2758 97.8306 11.23V8.09746H103.528V18.3861C103.528 21.5366 102.808 23.922 101.368 25.5422C99.9459 27.1805 97.8666 27.9996 95.1301 27.9996ZM95.1301 17.765C95.8503 17.765 96.4713 17.513 96.9934 17.0089C97.5155 16.4868 97.7946 15.8747 97.8306 15.1726V14.9566C97.7946 14.2724 97.5065 13.6694 96.9664 13.1473C96.4443 12.6252 95.8322 12.3641 95.1301 12.3641C94.392 12.3641 93.7619 12.6342 93.2398 13.1743C92.7178 13.6964 92.4567 14.3265 92.4567 15.0646C92.4567 15.8027 92.7178 16.4418 93.2398 16.9819C93.7619 17.504 94.392 17.765 95.1301 17.765Z" fill="#3EB4B4"/>
<path d="M112.232 22.0317C111.062 22.0317 109.964 21.7256 108.938 21.1135C107.93 20.4834 107.119 19.6373 106.507 18.5751C105.895 17.495 105.589 16.2978 105.589 14.9836C105.589 13.6874 105.895 12.5172 106.507 11.473C107.119 10.4108 107.939 9.5827 108.965 8.98861C109.991 8.39451 111.08 8.09746 112.232 8.09746C113.168 8.09746 114.033 8.35851 114.825 8.88059C115.635 9.40267 116.247 10.1858 116.661 11.23V8.09746H122.332V21.8157H116.661V19.3043C115.761 21.1225 114.285 22.0317 112.232 22.0317ZM113.988 17.765C114.708 17.765 115.32 17.513 115.824 17.0089C116.346 16.4868 116.625 15.8747 116.661 15.1726V14.9566C116.625 14.2364 116.337 13.6243 115.797 13.1203C115.275 12.6162 114.672 12.3641 113.988 12.3641C113.231 12.3641 112.583 12.6342 112.043 13.1743C111.521 13.6964 111.26 14.3265 111.26 15.0646C111.26 15.8207 111.53 16.4598 112.07 16.9819C112.61 17.504 113.249 17.765 113.988 17.765Z" fill="#3EB4B4"/>
<path d="M125.067 8.47552H130.495V11.23C131.539 9.14163 133.195 8.09746 135.464 8.09746C137.192 8.09746 138.542 8.71856 139.514 9.96076C140.505 11.185 141 12.8862 141 15.0646V21.8157H135.329V14.4975C135.329 13.7234 135.158 13.1293 134.816 12.7152C134.492 12.3011 134.033 12.0941 133.438 12.0941C133.006 12.0941 132.583 12.2381 132.169 12.5262C131.755 12.7962 131.413 13.1923 131.143 13.7144C130.891 14.2364 130.765 14.8305 130.765 15.4966V21.8157H125.067V8.47552Z" fill="#3EB4B4"/>
</svg>
