<svg width="145" height="38" viewBox="0 0 145 38" fill="none" xmlns="http://www.w3.org/2000/svg">
<path d="M35.4725 18.9998C35.4725 23.7706 33.6039 28.3459 30.2777 31.7193C26.9515 35.0927 22.4402 36.9879 17.7363 36.9879C13.0323 36.9879 8.52103 35.0927 5.19483 31.7193C1.86864 28.3459 0 23.7706 0 18.9998C0 14.2291 1.86864 9.65373 5.19483 6.28031C8.52103 2.90689 13.0323 1.01172 17.7363 1.01172C22.4402 1.01172 26.9515 2.90689 30.2777 6.28031C33.6039 9.65373 35.4725 14.2291 35.4725 18.9998Z" fill="#ED5763"/>
<path d="M17.8829 29.0255C13.0091 29.0429 7.93787 24.8309 7.91213 18.0516C7.90355 13.5698 10.289 9.2621 13.3265 6.70356C16.304 4.20594 20.3713 2.61338 24.061 2.59598C24.4915 2.57954 24.9222 2.62644 25.3395 2.73522C23.7195 3.09733 22.2674 4.00306 21.2179 5.30593C20.1684 6.6088 19.5829 8.23262 19.5561 9.91479C19.5561 10.0366 19.5561 10.1585 19.5733 10.2107C24.9791 11.5422 27.4246 14.8491 27.4418 19.4266C27.4384 20.6943 27.1882 21.9488 26.7054 23.1181C26.2227 24.2874 25.517 25.3485 24.6288 26.2404C23.7406 27.1323 22.6874 27.8375 21.5298 28.3154C20.3721 28.7934 19.1328 29.0347 17.8829 29.0255Z" fill="white"/>
<path d="M46.9281 26.449L41.5137 13.3169H45.0575L48.4469 22.0368L51.7247 13.3169H55.1055L49.8369 26.449H46.9281ZM64.5356 19.8177C64.5395 19.2895 64.4761 18.7629 64.3468 18.2512C64.2376 17.7984 64.0455 17.3703 63.7805 16.9894C63.5417 16.644 63.2313 16.3559 62.871 16.1452C62.4866 15.9252 62.0509 15.814 61.6096 15.8232C61.1683 15.8135 60.7325 15.9248 60.3483 16.1452C59.9842 16.3539 59.6705 16.6423 59.4301 16.9894C59.1672 17.3736 58.978 17.8047 58.8724 18.2599C58.7439 18.7688 58.6804 19.2924 58.6836 19.8177C58.6793 20.3459 58.7427 20.8725 58.8724 21.3841C58.9804 21.8356 59.1632 22.2652 59.413 22.6547C59.6503 23.0218 59.9754 23.3221 60.358 23.5275C60.7406 23.7329 61.1682 23.8368 61.601 23.8295C62.0337 23.8429 62.4623 23.7415 62.8445 23.5355C63.2267 23.3295 63.5494 23.0259 63.7805 22.6547C64.0418 22.2716 64.2336 21.8443 64.3468 21.3928C64.4772 20.8784 64.5407 20.3488 64.5356 19.8177ZM67.8049 19.8264C67.805 20.6828 67.6747 21.534 67.4187 22.3501C67.1691 23.1552 66.7765 23.9073 66.2603 24.5693C65.7068 25.2754 64.9977 25.84 64.19 26.2179C63.3823 26.5957 62.4985 26.7762 61.6096 26.7449C60.7197 26.7742 59.8354 26.5928 59.0266 26.2152C58.2179 25.8375 57.507 25.274 56.9503 24.5693C56.4352 23.9065 56.0428 23.1547 55.7919 22.3501C55.282 20.7163 55.282 18.9626 55.7919 17.3288C56.043 16.5322 56.4356 15.789 56.9503 15.1357C57.4741 14.4821 58.1332 13.9532 58.881 13.5867C59.7328 13.1771 60.6671 12.9745 61.6096 12.9949C62.493 12.9701 63.3703 13.1501 64.1747 13.5211C64.9791 13.8921 65.6895 14.4443 66.2518 15.1357C66.7666 15.7797 67.1613 16.5107 67.4187 17.3288C67.6761 18.1468 67.8049 18.9822 67.8049 19.8264ZM77.8099 16.2148C77.2415 15.9719 76.6332 15.8391 76.0166 15.8232C75.5345 15.7996 75.0542 15.8986 74.6196 16.1115C74.1849 16.3243 73.8097 16.644 73.5282 17.0416C73.2571 17.4236 73.0539 17.8506 72.9275 18.3034C72.7944 18.7701 72.7279 19.2536 72.7302 19.7394C72.7272 20.2665 72.7848 20.7922 72.9018 21.3058C73.0049 21.7698 73.1879 22.2117 73.4424 22.6112C73.674 22.9789 73.9851 23.2883 74.3519 23.5163C74.7123 23.7425 75.1499 23.8644 75.639 23.8644C76.0812 23.8544 76.5142 23.7349 76.9004 23.5163C77.2704 23.3394 77.5852 23.0623 77.8099 22.7156V16.2148ZM78.0759 26.449L77.9472 25.4395C77.6054 25.8162 77.1982 26.1259 76.7459 26.3533C76.0901 26.6378 75.3798 26.7699 74.6671 26.7398C73.9544 26.7096 73.2574 26.5181 72.6272 26.1792C71.9515 25.8022 71.3657 25.2794 70.9111 24.6476C70.4309 23.9832 70.0707 23.2378 69.8471 22.4458C69.606 21.5972 69.4847 20.7182 69.4867 19.8351C69.4867 18.9735 69.6068 18.1381 69.8556 17.3201C70.0977 16.5258 70.4848 15.7849 70.9969 15.1357C71.55 14.4403 72.255 13.8848 73.0562 13.5133C73.8574 13.1417 74.7328 12.9642 75.6133 12.9949C76.2997 12.9949 77.0291 13.1254 77.8099 13.3778V8.28685H81.1392V26.449H78.0759ZM90.5093 20.2876C89.7753 20.3375 89.0447 20.4305 88.3212 20.5661C87.6005 20.714 87.1028 20.9577 86.8196 21.3145C86.5545 21.6404 86.409 22.0495 86.4078 22.472C86.4078 22.9071 86.5622 23.2552 86.8797 23.5163C87.264 23.8017 87.7341 23.9432 88.2097 23.9166C88.6387 23.9166 89.0678 23.8295 89.4711 23.6468C89.8525 23.4779 90.2034 23.2456 90.5093 22.9593V20.2876ZM90.7753 26.4316L90.6466 25.4569C90.266 25.8748 89.7965 26.1993 89.2737 26.4055C88.1742 26.8468 86.9535 26.8654 85.8414 26.4577C85.043 26.1877 84.3511 25.6649 83.8676 24.9662C83.3841 24.2674 83.1345 23.4297 83.1557 22.5764C83.1446 22.0017 83.2652 21.4322 83.5079 20.9127C83.7506 20.3933 84.1088 19.938 84.5543 19.5827C85.0046 19.2274 85.505 18.9429 86.0388 18.7386C87.0608 18.371 88.1248 18.137 89.2051 18.0424L90.4922 17.9205V17.7291C90.4922 17.0068 90.3034 16.4933 89.9344 16.18C89.4948 15.8486 88.9538 15.6853 88.4071 15.7188C87.4346 15.7237 86.4874 16.0338 85.6956 16.6065C85.5225 16.7179 85.3563 16.84 85.1979 16.972L84.091 14.6049C84.6219 14.1963 85.205 13.8626 85.8243 13.6128C87.4372 12.9328 89.2273 12.8165 90.9126 13.2821C91.4921 13.4658 92.0223 13.7817 92.4626 14.2056C92.9029 14.6296 93.2415 15.1502 93.4525 15.7275C93.7104 16.4554 93.8326 17.2256 93.8129 17.9989V26.4403L90.7753 26.4316ZM104.101 11.2805C103.508 11.0112 102.863 10.8804 102.213 10.8976C101.759 10.8976 101.364 11.0368 101.055 11.324C100.737 11.6025 100.583 12.0637 100.583 12.699V13.3169H103.38V16.0408H100.609V26.449H97.2795V16.0408H95.5633V13.3169H97.2795V12.6207C97.2795 11.7592 97.391 11.0368 97.6055 10.4451C97.7806 9.91499 98.0761 9.43406 98.4681 9.04103C98.8601 8.64801 99.3376 8.3539 99.8623 8.18242C101.391 7.76832 103.011 7.8691 104.479 8.4696L104.101 11.2805ZM113.179 19.8177C113.182 19.2896 113.118 18.7632 112.991 18.2512C112.881 17.7984 112.689 17.3703 112.424 16.9894C112.186 16.644 111.875 16.3559 111.515 16.1452C111.13 15.9252 110.695 15.814 110.253 15.8232C109.812 15.8135 109.376 15.9248 108.992 16.1452C108.629 16.3553 108.316 16.6434 108.074 16.9894C107.811 17.3745 107.619 17.805 107.508 18.2599C107.246 19.2874 107.246 20.3653 107.508 21.3928C107.621 21.8413 107.806 22.2677 108.057 22.6547C108.291 23.0137 108.606 23.3118 108.975 23.525C109.367 23.7395 109.808 23.8475 110.253 23.8382C110.685 23.8491 111.113 23.7457 111.494 23.5382C111.874 23.3307 112.195 23.0262 112.424 22.6547C112.686 22.2716 112.877 21.8443 112.991 21.3928C113.119 20.8781 113.183 20.3487 113.179 19.8177ZM116.449 19.8264C116.45 20.6829 116.32 21.5344 116.063 22.3501C115.814 23.1558 115.422 23.9082 114.904 24.5693C114.351 25.2754 113.642 25.84 112.834 26.2179C112.026 26.5957 111.142 26.7762 110.253 26.7449C109.364 26.7742 108.479 26.5928 107.67 26.2152C106.862 25.8375 106.151 25.274 105.594 24.5693C105.079 23.9065 104.687 23.1547 104.436 22.3501C103.919 20.7174 103.919 18.9615 104.436 17.3288C104.684 16.5329 105.074 15.7897 105.586 15.1357C106.112 14.481 106.774 13.9521 107.525 13.5867C108.377 13.1771 109.311 12.9745 110.253 12.9949C111.137 12.9701 112.014 13.1501 112.819 13.5211C113.623 13.8921 114.333 14.4443 114.896 15.1357C115.41 15.7797 115.805 16.5107 116.063 17.3288C116.32 18.1468 116.449 18.9822 116.449 19.8264ZM126.788 26.449V18.9648C126.84 18.1425 126.623 17.3259 126.171 16.6413C125.97 16.3754 125.71 16.1624 125.411 16.02C125.112 15.8776 124.784 15.8102 124.454 15.8232C123.945 15.8173 123.445 15.9592 123.013 16.2322C122.598 16.4865 122.215 16.7903 121.872 17.1373V26.449H118.542V13.3169H121.58L121.734 14.3612C122.782 13.4755 124.103 12.9919 125.467 12.9949C126.153 12.9949 126.78 13.0993 127.355 13.3082C127.916 13.5138 128.419 13.8542 128.822 14.3003C129.242 14.7528 129.56 15.3446 129.783 16.0669C130.006 16.7979 130.118 17.6682 130.118 18.6777V26.449H126.788ZM140.475 18.3034C140.45 17.895 140.354 17.4943 140.191 17.1199C140.059 16.8114 139.866 16.5332 139.625 16.3019C139.209 15.9116 138.664 15.6941 138.098 15.6927C137.489 15.7038 136.905 15.9353 136.45 16.3454C136.176 16.5932 135.954 16.8941 135.796 17.2304C135.639 17.5666 135.549 17.9315 135.532 18.3034H140.475ZM135.455 20.7314C135.524 21.8367 135.867 22.6373 136.485 23.1246C137.165 23.6375 137.997 23.8986 138.844 23.8644C139.636 23.8634 140.421 23.7159 141.161 23.4292C141.433 23.3202 141.696 23.1922 141.95 23.0463C142.124 22.9464 142.285 22.8267 142.431 22.6895L143.323 25.4395C142.818 25.786 142.266 26.0557 141.684 26.2401C140.622 26.5705 139.518 26.7406 138.407 26.7449C137.589 26.7478 136.776 26.6095 136.004 26.3359C135.254 26.0704 134.571 25.6394 134.005 25.074C133.405 24.465 132.938 23.7359 132.632 22.9332C132.269 21.9609 132.094 20.9267 132.117 19.8873C132.117 18.7734 132.28 17.7987 132.589 16.9459C132.973 15.7767 133.716 14.7627 134.708 14.0519C135.701 13.3411 136.891 12.9707 138.106 12.9949C138.888 12.987 139.665 13.1257 140.397 13.4039C141.092 13.6737 141.693 14.1001 142.199 14.6658C142.714 15.2402 143.117 15.9799 143.409 16.8936C143.709 17.7987 143.855 18.8778 143.855 20.131V20.7314H135.455Z" fill="#ED5763"/>
</svg>
