<svg width="157" height="36" viewBox="0 0 157 36" fill="none" xmlns="http://www.w3.org/2000/svg">
<path d="M30.1503 13.6747L30.1292 13.6537C30.1275 13.6525 30.1261 13.6509 30.1253 13.6491L16.9404 0.463867L3.75564 13.6487C3.75412 13.6503 3.75327 13.6523 3.75174 13.6533L3.72998 13.6744C1.71385 15.7018 0.433259 18.3451 0.0917826 21.1839C-0.249693 24.0227 0.367544 26.8943 1.84537 29.342C3.3232 31.7898 5.5768 33.6734 8.24795 34.6932C10.9191 35.713 13.8545 35.8107 16.5874 34.9705C16.8174 34.9002 17.0632 34.9002 17.2932 34.9705C20.026 35.8103 22.9612 35.7126 25.6322 34.6927C28.3031 33.6727 30.5565 31.7893 32.0342 29.3417C33.512 26.8941 34.1293 24.0227 33.7879 21.1841C33.4466 18.3454 32.1662 15.7022 30.1503 13.6747ZM8.44397 22.3693C8.37978 22.4335 8.32888 22.5098 8.29417 22.5935C8.25944 22.6773 8.24156 22.7672 8.24158 22.8579C8.26504 25.185 8.9227 27.4615 10.1438 29.4427C10.1715 29.4876 10.1843 29.5402 10.1804 29.5928C10.1764 29.6454 10.156 29.6955 10.1219 29.7358C10.0878 29.7762 10.0418 29.8046 9.99049 29.8172C9.93921 29.8298 9.88526 29.8259 9.83637 29.806C8.91841 29.4198 8.08448 28.8585 7.38123 28.1536C5.94004 26.7121 5.12982 24.7575 5.12851 22.7192C5.1272 20.6808 5.93491 18.7252 7.37427 17.282L16.9404 7.71675L26.506 17.282C27.9456 18.725 28.7536 20.6806 28.7523 22.7192C28.7511 24.7575 27.9407 26.7121 26.4994 28.1536C25.7961 28.8585 24.9623 29.4198 24.0445 29.806C23.9954 29.8259 23.9415 29.8298 23.8902 29.8172C23.839 29.8046 23.793 29.776 23.7588 29.7358C23.7247 29.6955 23.7041 29.6454 23.7002 29.5926C23.6963 29.54 23.7091 29.4874 23.7368 29.4425C24.9582 27.4615 25.6162 25.185 25.64 22.8579C25.64 22.7672 25.622 22.6773 25.5871 22.5934C25.5522 22.5094 25.5011 22.4333 25.4367 22.3691L20.9121 17.5699C20.867 17.5323 20.8103 17.5117 20.7516 17.5117C20.693 17.5117 20.6362 17.5323 20.5912 17.5699C20.5461 17.6074 20.5158 17.6596 20.5052 17.7174C20.4947 17.7751 20.5047 17.8345 20.5337 17.8856C22.2909 21.0656 20.7798 25.6332 18.2599 28.1536L18.2466 28.1668C17.8988 28.5109 17.4292 28.7038 16.9401 28.7036C16.4508 28.7034 15.9814 28.5102 15.6338 28.166L15.6216 28.1536C13.1007 25.6332 11.5904 21.0661 13.3479 17.8862C13.3768 17.8352 13.3869 17.7758 13.3764 17.718C13.3659 17.6603 13.3354 17.6081 13.2904 17.5706C13.2454 17.533 13.1886 17.5124 13.13 17.5124C13.0713 17.5124 13.0145 17.533 12.9695 17.5706L8.44397 22.3693Z" fill="#2272F9"/>
<path d="M62.5864 11.4748H66.9501L62.4237 26.5987H57.4367L55.3226 17.6545L53.1814 26.5987H48.1943L43.668 11.4748H48.3027L50.6607 22.0995L52.9916 11.4748H57.8974L60.2283 22.0995L62.5864 11.4748Z" fill="#2272F9"/>
<path d="M78.2851 21.8014C78.9537 21.1509 79.288 20.2293 79.288 19.0368C79.288 17.8442 78.9537 16.9317 78.2851 16.2993C77.6166 15.6488 76.8486 15.3236 75.9813 15.3236C75.114 15.3236 74.3461 15.6488 73.6775 16.2993C73.009 16.9498 72.6747 17.8713 72.6747 19.0639C72.6747 20.2564 73.009 21.178 73.6775 21.8285C74.3461 22.4609 75.114 22.7771 75.9813 22.7771C76.8486 22.7771 77.6166 22.4519 78.2851 21.8014ZM69.9643 24.6201C68.6272 23.1746 67.9586 21.3225 67.9586 19.0639C67.9586 16.8052 68.6272 14.9532 69.9643 13.5076C71.3014 12.044 72.9276 11.3122 74.843 11.3122C76.7764 11.3122 78.258 12.026 79.288 13.4534V11.4748H83.9227V26.5987H79.288V24.4033C78.1677 25.9934 76.668 26.7884 74.7888 26.7884C72.9096 26.7884 71.3014 26.0657 69.9643 24.6201Z" fill="#2272F9"/>
<path d="M86.0705 11.4748H91.0034L94.4455 22.7229L97.8877 11.4748H102.821L97.454 26.5987H91.437L86.0705 11.4748Z" fill="#2272F9"/>
<path d="M111.385 26.7884C109.18 26.7884 107.373 26.0837 105.964 24.6744C104.555 23.2469 103.85 21.3587 103.85 19.0097C103.85 16.6607 104.546 14.7905 105.937 13.3992C107.346 12.0079 109.162 11.3122 111.385 11.3122C113.607 11.3122 115.45 11.9988 116.914 13.3721C118.377 14.7454 119.109 16.6517 119.109 19.091C119.109 19.615 119.073 20.1029 119.001 20.5546H108.593C108.683 21.2231 108.982 21.7743 109.487 22.2079C109.993 22.6235 110.535 22.8313 111.114 22.8313C111.71 22.8313 112.153 22.7771 112.442 22.6687C112.731 22.5422 112.939 22.4247 113.065 22.3163C113.21 22.1898 113.39 21.9911 113.607 21.72H118.621C118.188 23.2379 117.32 24.4666 116.019 25.4062C114.718 26.3277 113.174 26.7884 111.385 26.7884ZM114.285 17.6545C114.213 16.9498 113.905 16.3806 113.363 15.947C112.821 15.4952 112.18 15.2694 111.439 15.2694C110.698 15.2694 110.075 15.4952 109.569 15.947C109.063 16.3806 108.747 16.9498 108.62 17.6545H114.285Z" fill="#2272F9"/>
<path d="M126.721 11.4748V14.2936C127.805 12.306 129.251 11.3122 131.058 11.3122V16.0283H129.919C128.853 16.0283 128.049 16.2812 127.507 16.7872C126.983 17.2931 126.721 18.1785 126.721 19.4433V26.5987H122.086V11.4748H126.721Z" fill="#2272F9"/>
<path d="M137.802 9.76731C137.278 10.2913 136.636 10.5533 135.877 10.5533C135.118 10.5533 134.477 10.2913 133.953 9.76731C133.429 9.2433 133.167 8.60185 133.167 7.84294C133.167 7.06597 133.429 6.41548 133.953 5.89148C134.477 5.36747 135.118 5.10547 135.877 5.10547C136.636 5.10547 137.278 5.36747 137.802 5.89148C138.326 6.41548 138.588 7.06597 138.588 7.84294C138.588 8.60185 138.326 9.2433 137.802 9.76731ZM133.574 26.5987V11.4748H138.208V26.5987H133.574Z" fill="#2272F9"/>
<path d="M151.361 21.8556C151.976 21.2051 152.283 20.2655 152.283 19.0368C152.283 17.8081 151.967 16.8775 151.334 16.2451C150.702 15.5946 149.952 15.2694 149.085 15.2694C148.217 15.2694 147.468 15.5946 146.835 16.2451C146.221 16.8775 145.914 17.8081 145.914 19.0368C145.914 20.2655 146.23 21.2051 146.862 21.8556C147.513 22.5061 148.272 22.8313 149.139 22.8313C150.006 22.8313 150.747 22.5061 151.361 21.8556ZM143.474 24.6473C141.956 23.2198 141.198 21.3406 141.198 19.0097C141.198 16.6788 141.956 14.8176 143.474 13.4263C144.992 12.0169 146.871 11.3122 149.112 11.3122C151.352 11.3122 153.223 12.0169 154.722 13.4263C156.24 14.8176 156.999 16.6788 156.999 19.0097C156.999 21.3406 156.249 23.2198 154.749 24.6473C153.25 26.0747 151.38 26.7884 149.139 26.7884C146.898 26.7884 145.01 26.0747 143.474 24.6473Z" fill="#2272F9"/>
</svg>
